<svg width="1494" height="1036" viewBox="0 0 1494 1036" fill="none" xmlns="http://www.w3.org/2000/svg" xmlns:xlink="http://www.w3.org/1999/xlink">
<path d="M1492.378,977.208L0,977.208L0,977.955L1492.378,977.955L1492.378,977.208Z" fill="#EBEBEB"/>
<path d="M1342.841,1025.233L1243.986,1025.233L1243.986,1025.979L1342.841,1025.979L1342.841,1025.233Z" fill="#EBEBEB"/>
<path d="M988.611,1033.352L962.674,1033.352L962.674,1034.098L988.611,1034.098L988.611,1033.352Z" fill="#EBEBEB"/>
<path d="M1241,997.535L1183.723,997.535L1183.723,998.281L1241,998.281L1241,997.535Z" fill="#EBEBEB"/>
<path d="M285.492,1002.549L156.581,1002.549L156.581,1003.295L285.492,1003.295L285.492,1002.549Z" fill="#EBEBEB"/>
<path d="M330.979,1002.549L312.086,1002.549L312.086,1003.295L330.979,1003.295L330.979,1002.549Z" fill="#EBEBEB"/>
<path d="M672.017,1015.145L392.405,1015.145L392.405,1015.891L672.017,1015.891L672.017,1015.145Z" fill="#EBEBEB"/>
<path d="M707.387,844.088L131.06,844.088C126.545,844.08 122.218,842.282 119.028,839.086C115.838,835.89 114.047,831.56 114.047,827.046L114.047,16.894C114.086,12.405 115.895,8.113 119.08,4.949C122.266,1.786 126.571,0.008 131.06,0L707.387,0C711.907,0 716.241,1.796 719.437,4.992C722.633,8.188 724.429,12.523 724.429,17.043L724.429,827.046C724.429,831.566 722.633,835.9 719.437,839.096C716.241,842.292 711.907,844.088 707.387,844.088ZM131.06,0.597C126.743,0.605 122.605,2.325 119.556,5.381C116.506,8.436 114.793,12.577 114.793,16.894L114.793,827.046C114.793,831.362 116.506,835.504 119.556,838.558C122.605,841.614 126.743,843.334 131.06,843.342L707.387,843.342C711.707,843.334 715.847,841.614 718.901,838.56C721.955,835.506 723.675,831.366 723.683,827.046L723.683,16.894C723.675,12.574 721.955,8.433 718.901,5.379C715.847,2.324 711.707,0.605 707.387,0.597L131.06,0.597Z" fill="#EBEBEB"/>
<path d="M1353.018,844.088L776.663,844.088C772.145,844.08 767.815,842.282 764.62,839.088C761.426,835.894 759.628,831.564 759.62,827.046L759.62,16.894C759.667,12.402 761.482,8.11 764.673,4.948C767.863,1.785 772.171,0.008 776.663,0L1353.018,0C1357.502,0.016 1361.8,1.798 1364.98,4.96C1368.158,8.122 1369.962,12.41 1370.002,16.894L1370.002,827.046C1370.002,831.556 1368.214,835.882 1365.032,839.076C1361.848,842.27 1357.528,844.072 1353.018,844.088ZM776.663,0.597C772.343,0.605 768.202,2.324 765.148,5.379C762.093,8.433 760.374,12.574 760.366,16.894L760.366,827.046C760.374,831.366 762.093,835.506 765.148,838.56C768.202,841.614 772.343,843.334 776.663,843.342L1353.018,843.342C1357.338,843.334 1361.48,841.614 1364.534,838.56C1367.588,835.506 1369.308,831.366 1369.316,827.046L1369.316,16.894C1369.308,12.574 1367.588,8.433 1364.534,5.379C1361.48,2.324 1357.338,0.605 1353.018,0.597L776.663,0.597Z" fill="#EBEBEB"/>
<path d="M739.158,191.966C772.654,191.966 799.808,164.812 799.808,131.316C799.808,97.819 772.654,70.665 739.158,70.665C705.662,70.665 678.508,97.819 678.508,131.316C678.508,164.812 705.662,191.966 739.158,191.966Z" transform="rotate(-26.56 739.158 131.316)" fill="#E0E0E0"/>
<path d="M739.157,182.892C767.642,182.892 790.733,159.801 790.733,131.316C790.733,102.831 767.642,79.739 739.157,79.739C710.672,79.739 687.58,102.831 687.58,131.316C687.58,159.801 710.672,182.892 739.157,182.892Z" transform="rotate(-26.56 739.157 131.316)" fill="#F0F0F0"/>
<path d="M736.757,166.669L736.757,130.613L712.879,144.134Z" fill="#F0F0F0"/>
<path d="M736.757,169.236C736.076,169.236 735.423,168.965 734.941,168.484C734.46,168.002 734.19,167.35 734.19,166.669L734.19,135.03L714.132,146.372C713.838,146.539 713.514,146.646 713.179,146.687C712.844,146.729 712.503,146.704 712.178,146.614C711.852,146.524 711.547,146.37 711.281,146.162C711.015,145.955 710.792,145.696 710.625,145.402C710.459,145.108 710.351,144.784 710.31,144.449C710.269,144.114 710.294,143.774 710.384,143.448C710.474,143.122 710.627,142.817 710.835,142.551C711.043,142.285 711.301,142.062 711.595,141.895L735.473,128.374C735.864,128.156 736.305,128.043 736.752,128.047C737.2,128.052 737.638,128.173 738.024,128.4C738.411,128.626 738.731,128.949 738.953,129.337C739.176,129.726 739.293,130.165 739.294,130.613L739.294,166.669C739.294,167.344 739.027,167.993 738.552,168.473C738.077,168.954 737.432,169.228 736.757,169.236Z" fill="#E0E0E0"/>
<path d="M1292.354,208.888L1096.017,208.888L1096.017,461.548L1292.354,461.548L1292.354,208.888Z" transform="rotate(180 1194.186 335.218)" fill="#E0E0E0"/>
<path d="M1312.874,245.167L1075.526,245.167L1075.526,425.267L1312.874,425.267L1312.874,245.167Z" fill="#EBEBEB"/>
<path d="M1120.745,264.599L1092.121,264.599L1092.121,305.072L1120.745,305.072L1120.745,264.599Z" fill="#F5F5F5"/>
<path d="M1158.054,276.538L1127.908,276.538L1127.908,319.846L1158.054,319.846L1158.054,276.538Z" fill="#F5F5F5"/>
<path d="M1120.12,365.219L1090.02,365.219L1090.02,408.463L1120.12,408.463L1120.12,365.219Z" transform="rotate(14.962 1105.07 386.841)" fill="#F5F5F5"/>
<path d="M1197.692,364.708L1167.546,364.708L1167.546,408.016L1197.692,408.016L1197.692,364.708Z" fill="#F5F5F5"/>
<path d="M1161.666,360.14L1131.52,360.14L1131.52,403.449L1161.666,403.449L1161.666,360.14Z" fill="#F5F5F5"/>
<path d="M1249.477,267.524L1230.763,267.524L1230.763,286.238L1249.477,286.238L1249.477,267.524Z" fill="#F5F5F5"/>
<path d="M1273.957,269.225L1255.242,269.225L1255.242,287.939L1273.957,287.939L1273.957,269.225Z" transform="rotate(41.88 1264.599 278.582)" fill="#F5F5F5"/>
<path d="M1240.136,269.911C1240.128,270.199 1240.008,270.472 1239.802,270.673C1239.596,270.874 1239.319,270.986 1239.032,270.986C1238.874,271.012 1238.712,271.004 1238.557,270.961C1238.402,270.918 1238.259,270.842 1238.137,270.739C1238.014,270.635 1237.916,270.506 1237.849,270.361C1237.781,270.215 1237.746,270.057 1237.746,269.896C1237.746,269.736 1237.781,269.578 1237.849,269.432C1237.916,269.287 1238.014,269.158 1238.137,269.054C1238.259,268.95 1238.402,268.874 1238.557,268.832C1238.712,268.789 1238.874,268.781 1239.032,268.807C1239.325,268.807 1239.605,268.923 1239.813,269.13C1240.02,269.337 1240.136,269.618 1240.136,269.911Z" fill="#E0E0E0"/>
<path d="M1261.655,269.911C1261.655,270.13 1261.59,270.343 1261.469,270.525C1261.348,270.707 1261.175,270.848 1260.973,270.932C1260.772,271.015 1260.55,271.037 1260.335,270.995C1260.121,270.952 1259.924,270.847 1259.77,270.692C1259.615,270.538 1259.51,270.341 1259.468,270.127C1259.425,269.913 1259.447,269.691 1259.53,269.489C1259.614,269.287 1259.756,269.115 1259.937,268.993C1260.119,268.872 1260.332,268.807 1260.551,268.807C1260.844,268.807 1261.125,268.923 1261.332,269.131C1261.539,269.338 1261.655,269.619 1261.655,269.911Z" fill="#E0E0E0"/>
<path d="M1144.056,279.731C1144.014,279.989 1143.881,280.224 1143.681,280.393C1143.482,280.562 1143.229,280.654 1142.967,280.654C1142.705,280.654 1142.452,280.562 1142.253,280.393C1142.053,280.224 1141.92,279.989 1141.878,279.731C1141.851,279.573 1141.86,279.411 1141.902,279.256C1141.945,279.102 1142.021,278.958 1142.125,278.836C1142.228,278.714 1142.357,278.615 1142.503,278.548C1142.648,278.481 1142.807,278.446 1142.967,278.446C1143.127,278.446 1143.286,278.481 1143.431,278.548C1143.577,278.615 1143.706,278.714 1143.809,278.836C1143.913,278.958 1143.989,279.102 1144.032,279.256C1144.074,279.411 1144.083,279.573 1144.056,279.731Z" fill="#E0E0E0"/>
<path d="M1107.524,267.524C1107.55,267.682 1107.541,267.844 1107.499,267.998C1107.456,268.153 1107.38,268.296 1107.277,268.419C1107.173,268.541 1107.044,268.639 1106.898,268.706C1106.753,268.774 1106.594,268.809 1106.434,268.809C1106.274,268.809 1106.115,268.774 1105.97,268.706C1105.824,268.639 1105.695,268.541 1105.592,268.419C1105.488,268.296 1105.412,268.153 1105.37,267.998C1105.327,267.844 1105.318,267.682 1105.345,267.524C1105.387,267.266 1105.521,267.031 1105.72,266.862C1105.92,266.693 1106.173,266.6 1106.434,266.6C1106.696,266.6 1106.949,266.693 1107.148,266.862C1107.348,267.031 1107.481,267.266 1107.524,267.524Z" fill="#E0E0E0"/>
<path d="M1097.256,367.811C1097.256,367.955 1097.227,368.097 1097.172,368.229C1097.116,368.362 1097.034,368.482 1096.931,368.582C1096.828,368.682 1096.706,368.76 1096.572,368.813C1096.438,368.865 1096.295,368.89 1096.152,368.886C1095.994,368.912 1095.832,368.903 1095.677,368.861C1095.522,368.818 1095.379,368.742 1095.257,368.639C1095.134,368.535 1095.036,368.406 1094.969,368.26C1094.901,368.115 1094.866,367.957 1094.866,367.796C1094.866,367.636 1094.901,367.478 1094.969,367.332C1095.036,367.187 1095.134,367.057 1095.257,366.954C1095.379,366.85 1095.522,366.774 1095.677,366.732C1095.832,366.689 1095.994,366.681 1096.152,366.707C1096.298,366.703 1096.443,366.728 1096.579,366.782C1096.715,366.837 1096.839,366.918 1096.942,367.021C1097.045,367.124 1097.126,367.248 1097.18,367.384C1097.234,367.52 1097.26,367.665 1097.256,367.811Z" fill="#E0E0E0"/>
<path d="M1147.698,362.618C1147.698,362.836 1147.633,363.049 1147.512,363.231C1147.391,363.413 1147.218,363.554 1147.016,363.638C1146.815,363.721 1146.593,363.743 1146.378,363.701C1146.164,363.658 1145.967,363.553 1145.813,363.398C1145.659,363.244 1145.553,363.047 1145.511,362.833C1145.468,362.619 1145.49,362.397 1145.574,362.195C1145.657,361.993 1145.799,361.821 1145.98,361.699C1146.162,361.578 1146.375,361.513 1146.594,361.513C1146.887,361.513 1147.168,361.63 1147.375,361.837C1147.582,362.044 1147.698,362.325 1147.698,362.618Z" fill="#E0E0E0"/>
<path d="M1183.693,366.707C1183.693,366.925 1183.628,367.139 1183.507,367.32C1183.386,367.502 1183.213,367.644 1183.011,367.727C1182.81,367.811 1182.588,367.833 1182.373,367.79C1182.159,367.747 1181.962,367.642 1181.808,367.488C1181.653,367.333 1181.548,367.137 1181.506,366.922C1181.463,366.708 1181.485,366.486 1181.568,366.284C1181.652,366.082 1181.794,365.91 1181.975,365.789C1182.157,365.667 1182.37,365.603 1182.589,365.603C1182.882,365.603 1183.163,365.719 1183.37,365.926C1183.577,366.133 1183.693,366.414 1183.693,366.707Z" fill="#E0E0E0"/>
<path d="M1297.95,326.055L1237.927,326.055L1237.927,363.692L1297.95,363.692L1297.95,326.055Z" fill="#E0E0E0"/>
<path d="M1277.414,368.885L1225.002,368.885L1225.002,410.254L1277.414,410.254L1277.414,368.885Z" fill="#E0E0E0"/>
<path d="M218.871,259.913L200.157,259.913L200.157,278.627L218.871,278.627L218.871,259.913Z" fill="#F5F5F5"/>
<path d="M209.53,262.27C209.536,262.49 209.476,262.706 209.358,262.892C209.241,263.077 209.07,263.223 208.869,263.312C208.668,263.4 208.445,263.426 208.229,263.387C208.013,263.348 207.813,263.245 207.656,263.092C207.498,262.939 207.39,262.742 207.345,262.527C207.3,262.312 207.32,262.088 207.403,261.885C207.485,261.681 207.627,261.507 207.809,261.384C207.991,261.261 208.206,261.196 208.425,261.196C208.713,261.196 208.99,261.308 209.196,261.509C209.402,261.709 209.522,261.983 209.53,262.27Z" fill="#E0E0E0"/>
</svg>
