<svg width="360" height="786" viewBox="0 0 360 786" fill="none" xmlns="http://www.w3.org/2000/svg" xmlns:xlink="http://www.w3.org/1999/xlink">
<path d="M296.023,358.197C296.023,358.197 235.044,329.962 153.113,341.215C153.113,341.215 169.23,176.576 174.663,154.518C180.095,132.461 297.038,159.801 297.038,159.801C297.038,159.801 288.65,225.466 289.367,265.939C290.083,306.412 301.306,351.363 296.023,358.197Z" fill="#263238"/>
<g opacity="0.4">
<path d="M296.023,358.197C296.023,358.197 235.044,329.962 153.113,341.215C153.113,341.215 169.23,176.576 174.663,154.518C180.095,132.461 297.038,159.801 297.038,159.801C297.038,159.801 288.65,225.466 289.367,265.939C290.083,306.412 301.306,351.363 296.023,358.197Z" fill="#FFFFFF"/>
</g>
<path d="M121.116,764.095L142.308,770.094L147.352,737.113L150.098,719.473L128.877,713.474L125.295,737.113L121.116,764.095Z" fill="#FBC6BF"/>
<path d="M242.985,765.826L264.833,768.722L265.042,737.113L265.191,717.473L243.283,714.608L243.164,737.113L242.985,765.826Z" fill="#FBC6BF"/>
<g opacity="0.2">
<path d="M243.282,714.608L243.162,737.113L265.041,737.113L265.19,717.473L243.282,714.608Z" fill="#000000"/>
</g>
<g opacity="0.2">
<path d="M125.296,737.113L147.353,737.113L150.099,719.473L128.877,713.474L125.296,737.113Z" fill="#000000"/>
</g>
<path d="M40.379,140.819L22.232,128.492L18.591,152.549C18.591,152.549 35.425,162.577 40.23,153.653L40.379,140.819Z" fill="#FBC6BF"/>
<path d="M0.532,127.417L4.413,149.146L18.59,152.549L22.232,128.492L0.532,127.417Z" fill="#FBC6BF"/>
<path d="M66.167,155.504L35.633,137.625L27.515,152.638L55.064,169.502L66.167,155.504Z" fill="#FBC6BF"/>
<path d="M178.394,116.971C169.439,119.597 120.221,180.427 116.908,179.83C112.52,179.054 48.766,141.953 48.766,141.953L37.663,168.338C37.663,168.338 100.342,216.96 117.714,215.617C133.473,214.393 185.945,166.458 185.945,166.458L178.394,116.971Z" fill="#263238"/>
<g opacity="0.7">
<path d="M37.633,168.339C37.633,168.339 100.313,216.96 117.714,215.617C124.43,215.11 137.862,206.066 151.024,195.858C168.694,182.188 185.976,166.428 185.976,166.428L181.857,139.565L178.394,116.911C169.44,119.538 120.222,180.367 116.908,179.77C112.521,178.994 48.766,141.864 48.766,141.864L37.633,168.339Z" fill="#FFFFFF"/>
</g>
<g opacity="0.1">
<path d="M151.023,195.857C168.693,182.187 185.975,166.428 185.975,166.428L181.856,139.565C180.783,140.155 179.782,140.866 178.871,141.684C165.977,152.549 154.695,173.382 151.023,195.857Z" fill="#000000"/>
</g>
<path d="M121.385,760.782L145.472,760.125C145.91,760.113 146.339,760.252 146.686,760.518C147.034,760.784 147.28,761.162 147.382,761.588L152.457,780.959C152.578,781.423 152.593,781.908 152.501,782.378C152.409,782.849 152.213,783.292 151.926,783.677C151.64,784.061 151.27,784.376 150.845,784.597C150.42,784.819 149.951,784.943 149.472,784.959C140.786,784.959 128.22,784.959 117.326,785.167C104.551,785.496 96.433,784.869 81.509,785.167C72.555,785.406 69.57,776.362 73.39,775.437C90.493,771.229 101.656,772.064 116.222,762.513C117.753,761.476 119.538,760.878 121.385,760.782Z" fill="#263238"/>
<path d="M119.326,763.856C115.804,764.662 109.506,765.707 107.029,763.618C106.667,763.318 106.382,762.938 106.195,762.507C106.008,762.077 105.926,761.608 105.954,761.14C105.956,760.853 106.032,760.571 106.173,760.32C106.313,760.07 106.516,759.859 106.76,759.708C109.387,758.126 118.4,762.394 119.415,762.871C119.514,762.92 119.596,762.997 119.649,763.093C119.702,763.189 119.725,763.299 119.714,763.409C119.715,763.518 119.676,763.623 119.605,763.706C119.533,763.788 119.434,763.842 119.326,763.856ZM107.387,760.543L107.178,760.543C107.082,760.602 107.003,760.686 106.951,760.786C106.898,760.886 106.874,760.998 106.879,761.11C106.852,761.424 106.9,761.739 107.02,762.029C107.139,762.32 107.326,762.578 107.566,762.782C108.969,763.946 112.61,764.035 117.445,763.11C113.953,761.618 109.058,759.946 107.447,760.603L107.387,760.543Z" fill="#80BBFF"/>
<path d="M119.326,763.856C119.265,763.885 119.199,763.9 119.132,763.9C119.065,763.9 118.998,763.885 118.938,763.856C116.252,762.752 110.789,758.155 111.118,755.648C111.118,755.081 111.595,754.335 112.998,754.156C113.524,754.069 114.063,754.096 114.578,754.235C115.093,754.374 115.572,754.622 115.983,754.962C118.968,757.17 119.684,763.08 119.714,763.319C119.723,763.407 119.712,763.496 119.681,763.579C119.65,763.662 119.6,763.736 119.535,763.796L119.326,763.856ZM112.61,755.29C112.192,755.469 112.162,755.708 112.162,755.797C111.954,757.29 115.685,760.901 118.46,762.453C118.111,759.954 117.007,757.622 115.297,755.767C114.684,755.298 113.914,755.084 113.147,755.171L112.61,755.29Z" fill="#80BBFF"/>
<path d="M243.849,760.782L267.906,760.125C268.347,760.117 268.777,760.257 269.129,760.522C269.48,760.787 269.733,761.162 269.846,761.588L274.891,780.959C275.018,781.423 275.038,781.91 274.948,782.383C274.859,782.855 274.663,783.302 274.375,783.687C274.087,784.073 273.715,784.388 273.287,784.608C272.86,784.828 272.387,784.948 271.906,784.958C263.22,784.958 250.655,784.958 239.73,785.167C226.985,785.496 218.837,784.869 203.913,785.167C194.959,785.406 191.974,776.362 195.765,775.437C212.868,771.228 224.06,772.064 238.626,762.513C240.174,761.466 241.982,760.867 243.849,760.782Z" fill="#263238"/>
<path d="M241.79,763.856C238.268,764.662 232,765.707 229.493,763.618C229.132,763.318 228.846,762.938 228.66,762.507C228.473,762.077 228.39,761.608 228.418,761.14C228.427,760.85 228.508,760.568 228.654,760.317C228.8,760.067 229.006,759.857 229.254,759.708C231.881,758.126 240.895,762.394 241.91,762.871C242.008,762.92 242.09,762.997 242.143,763.093C242.197,763.189 242.219,763.299 242.208,763.409C242.202,763.52 242.157,763.626 242.08,763.708C242.004,763.79 241.901,763.842 241.79,763.856ZM229.851,760.543L229.672,760.543C229.576,760.605 229.496,760.688 229.439,760.787C229.382,760.886 229.349,760.997 229.344,761.11C229.323,761.426 229.376,761.742 229.501,762.032C229.625,762.323 229.817,762.58 230.06,762.782C231.433,763.946 235.075,764.035 239.91,763.11C236.328,761.618 231.523,759.946 229.881,760.603L229.851,760.543Z" fill="#80BBFF"/>
<path d="M241.791,763.856C241.73,763.885 241.664,763.9 241.597,763.9C241.53,763.9 241.463,763.885 241.403,763.856C238.687,762.752 233.254,758.155 233.583,755.648C233.583,755.081 234.031,754.335 235.463,754.156C235.989,754.069 236.528,754.096 237.043,754.235C237.558,754.374 238.037,754.622 238.448,754.962C241.433,757.17 242.149,763.08 242.179,763.319C242.191,763.41 242.177,763.502 242.14,763.587C242.104,763.671 242.045,763.743 241.97,763.796L241.791,763.856ZM235.075,755.29C234.958,755.324 234.851,755.389 234.767,755.479C234.683,755.568 234.625,755.678 234.598,755.797C234.419,757.29 238.12,760.901 240.895,762.453C240.601,759.974 239.56,757.642 237.911,755.767C237.298,755.298 236.528,755.084 235.762,755.171L235.075,755.29Z" fill="#80BBFF"/>
<path d="M288.053,285.43C299.604,335.634 279.755,730.368 279.755,730.368L241.372,730.368L224.955,401.388L164.484,730.368L123.474,727.382C150.337,472.544 174.006,320.411 174.006,320.411L174.006,301.189L288.053,285.43Z" fill="#263238"/>
<g opacity="0.5">
<path d="M123.474,727.382L164.514,730.368L212.091,471.41L224.955,401.418L241.372,730.368L279.755,730.368C279.755,730.368 299.634,335.634 288.053,285.46L173.946,301.19L173.946,320.411C173.946,320.411 150.307,472.544 123.474,727.382Z" fill="#FFFFFF"/>
</g>
<path d="M289.337,239.465C289.337,242.718 289.337,245.882 289.337,248.956C289.337,250.598 289.337,252.21 289.337,253.792C289.337,257.194 289.337,260.507 289.337,263.671C289.337,265.283 289.337,266.865 289.337,268.417C289.725,287.012 290.411,300.622 289.993,306.502L174.901,302.234C172.593,288.703 170.842,275.899 169.648,263.821C169.499,262.358 169.35,260.836 169.23,259.463C168.932,256.478 168.693,253.493 168.454,250.509C168.454,248.986 168.245,247.524 168.126,246.002C167.947,243.017 167.768,240.032 167.619,237.286C167.619,235.704 167.469,234.301 167.439,232.63C164.455,156.19 181.259,116.463 181.259,116.463C190.267,114.486 199.387,113.061 208.569,112.195C210.509,111.986 212.479,111.867 214.539,111.747C230.867,111.416 247.201,112.024 263.459,113.568C266.444,113.837 269.667,114.195 272.712,114.583C288.203,116.583 301.873,119.896 301.873,119.896C296.538,143.313 292.976,167.099 291.217,191.052C289.993,206.364 289.426,220.9 289.247,234.51C289.247,235.734 289.247,236.958 289.247,238.152L289.337,239.465Z" fill="#263238"/>
<g opacity="0.3">
<path d="M289.397,234.51C289.397,235.734 289.397,236.958 289.397,238.151L289.397,239.465L277.637,254.568L255.072,223.019L234.687,249.882L214.599,223.019L196.9,246.897L178.991,222.869L167.679,237.286C167.679,235.704 167.53,234.301 167.5,232.63L178.693,218.034L196.601,241.912L214.301,218.034L234.418,244.897L254.893,218.034L277.488,249.613L289.397,234.51Z" fill="#FFFFFF"/>
<path d="M289.307,253.792L277.159,269.432L254.594,237.913L234.179,264.776L214.121,237.913L196.392,261.791L178.483,237.734L168.753,250.389C168.753,248.867 168.544,247.404 168.424,245.882L178.483,232.809L196.392,256.687L214.121,232.809L234.238,259.672L254.684,232.809L277.278,264.388L289.217,248.897C289.277,250.598 289.277,252.21 289.307,253.792Z" fill="#FFFFFF"/>
<path d="M289.516,268.417L277.159,284.326L254.595,252.777L234.179,279.49L214.121,252.628L196.392,276.655L178.483,252.598L169.947,263.701C169.798,262.238 169.649,260.716 169.529,259.343L178.483,247.673L196.392,271.551L214.121,247.673L234.239,274.536L254.684,247.673L277.279,279.222L289.457,263.582C289.476,265.253 289.496,266.865 289.516,268.417Z" fill="#FFFFFF"/>
</g>
<path d="M256.505,57.156C253.162,73.184 249.551,102.405 260.027,112.314C260.027,112.314 230.18,128.163 222.778,126.671C217.614,125.626 212.42,115.239 212.42,115.239C229.613,109.956 229.434,96.883 226.747,84.735L256.505,57.156Z" fill="#FBC6BF"/>
<g opacity="0.2">
<path d="M244.386,68.408L226.747,84.735C227.422,87.578 227.851,90.474 228.03,93.391C234.567,92.018 243.7,84.048 244.536,76.945C244.98,74.112 244.929,71.224 244.386,68.408Z" fill="#000000"/>
</g>
<path d="M222.628,126.7C222.628,126.7 227.911,133.506 234.119,140.311C243.76,136.073 266.414,124.581 265.996,112.821C264.862,109.329 256.057,106.673 256.057,106.673C256.057,106.673 245.64,118.88 222.628,126.7Z" fill="#80BBFF"/>
<path d="M222.628,126.701C217.802,130.155 213.499,134.286 209.853,138.968C203.168,134.103 207.854,112.494 210.54,110.225C214.25,108.418 218.357,107.576 222.479,107.778C220.955,110.704 220.171,113.959 220.197,117.258C220.223,120.557 221.058,123.799 222.628,126.701Z" fill="#80BBFF"/>
<g opacity="0.5">
<path d="M222.629,126.701C222.629,126.701 227.912,133.506 234.12,140.312C243.761,136.073 266.415,124.582 265.997,112.822C264.863,109.33 256.058,106.673 256.058,106.673C256.058,106.673 245.641,118.881 222.629,126.701Z" fill="#FFFFFF"/>
<path d="M222.629,126.701C217.803,130.155 213.5,134.286 209.854,138.968C203.169,134.103 207.855,112.494 210.541,110.225C214.251,108.418 218.358,107.576 222.48,107.778C220.956,110.704 220.172,113.959 220.198,117.258C220.224,120.557 221.059,123.799 222.629,126.701Z" fill="#FFFFFF"/>
</g>
<path d="M265.996,112.911C262.302,141.076 261.084,169.51 262.355,197.887C264.116,236.39 271.309,280.416 291.814,312.711C291.814,312.711 298.858,341.931 290.8,365.033C290.8,365.033 299.097,363.213 301.425,359.063C303.753,354.915 290.74,297.1 292.471,255.254C294.202,213.408 307.395,120.045 307.395,120.045C298.344,117.095 289.011,115.094 279.547,114.075C275.547,113.598 270.951,113.12 265.996,112.911Z" fill="#263238"/>
<g opacity="0.7">
<path d="M265.996,112.911C262.302,141.076 261.084,169.51 262.355,197.887C264.116,236.39 271.309,280.416 291.814,312.711C291.814,312.711 298.858,341.931 290.8,365.033C290.8,365.033 299.097,363.213 301.425,359.063C303.753,354.915 290.74,297.1 292.471,255.254C293.128,239.644 295.456,216.84 297.993,194.365C298.948,186.127 299.933,177.919 300.978,170.129C304.47,142.43 307.604,120.075 307.604,120.075C298.553,117.125 289.22,115.124 279.756,114.105C275.547,113.598 270.951,113.12 265.996,112.911Z" fill="#FFFFFF"/>
</g>
<g opacity="0.2">
<path d="M265.996,112.911C262.302,141.076 261.084,169.51 262.355,197.887L287.606,141.177L272.145,136.998L289.486,130.551L279.637,114.105C275.547,113.598 270.951,113.12 265.996,112.911Z" fill="#000000"/>
</g>
<path d="M151.412,346.827L154.904,350.439C159.598,301.509 166.972,252.874 176.991,204.752C177.797,200.752 178.633,196.932 179.409,193.291C194.75,123.686 207.883,112.702 208.719,112.195L197.944,113.866L178.394,116.851C162.426,175.86 151.412,346.827 151.412,346.827Z" fill="#263238"/>
<g opacity="0.7">
<path d="M151.412,346.827L154.904,350.439C159.598,301.509 166.972,252.874 176.991,204.752C177.797,200.752 178.633,196.932 179.409,193.291C194.75,123.686 207.883,112.702 208.719,112.195L197.944,113.866L178.394,116.851C162.426,175.86 151.412,346.827 151.412,346.827Z" fill="#FFFFFF"/>
</g>
<g opacity="0.2">
<path d="M193.466,134.849L180.542,140.072C180.542,140.072 177.557,174.934 179.408,193.291C194.75,123.686 207.883,112.702 208.718,112.195L197.943,113.866C191.449,118.07 185.699,123.325 180.93,129.417L193.466,134.849Z" fill="#000000"/>
</g>
<path d="M279.099,302.742L264.802,319.247L291.366,326.769C291.366,326.769 300.321,310.054 291.963,304.324L279.099,302.742Z" fill="#FBC6BF"/>
<path d="M263.907,337.096L286.143,342.289L291.366,326.769L264.832,319.247L263.907,337.096Z" fill="#FBC6BF"/>
<g opacity="0.1">
<path d="M295.336,170.219C294.61,178.386 295.524,186.616 298.023,194.425C298.978,186.187 299.963,177.979 301.007,170.189C299.138,169.783 297.202,169.793 295.336,170.219Z" fill="#000000"/>
</g>
<path d="M294.679,280.983L273.816,309.577L287.963,319.158L307.454,293.429L294.679,280.983Z" fill="#FBC6BF"/>
<path d="M307.544,120.134C319.721,123.686 359.717,205.319 358.284,227.585C356.852,249.852 305.693,309.905 305.693,309.905L285.755,292.922C285.755,292.922 325.512,233.794 328.318,224.72C331.123,215.646 295.336,170.218 295.336,170.218C293.659,160.923 293.508,151.416 294.888,142.072C297.127,125.925 307.544,120.134 307.544,120.134Z" fill="#263238"/>
<g opacity="0.7">
<path d="M307.544,120.134C319.721,123.686 359.717,205.319 358.284,227.585C356.852,249.852 305.693,309.905 305.693,309.905L285.755,292.922C285.755,292.922 325.512,233.794 328.318,224.72C331.123,215.646 295.336,170.218 295.336,170.218C293.659,160.923 293.508,151.416 294.888,142.072C297.127,125.925 307.544,120.134 307.544,120.134Z" fill="#FFFFFF"/>
</g>
<g opacity="0.2">
<path d="M212.092,471.41L224.956,401.417L222.479,364.376C222.479,364.376 204.839,428.608 212.092,471.41Z" fill="#000000"/>
</g>
<path d="M210.121,16.444C204.809,22.712 205.197,32.353 204.958,38.501C204.719,44.65 203.645,52.679 211.524,44.202C219.404,35.725 227.552,0.893 210.121,16.444Z" fill="#80BBFF"/>
<path d="M259.43,44.918C256.774,65.453 259.43,68.946 248.357,78.736C231.583,93.48 205.735,94.883 203.406,73.721C201.317,54.708 201.645,20.473 222.419,13.817C227.018,12.336 231.918,12.046 236.659,12.975C241.4,13.905 245.828,16.023 249.527,19.131C253.226,22.24 256.075,26.236 257.807,30.747C259.539,35.257 260.098,40.133 259.43,44.918Z" fill="#FBC6BF"/>
<path d="M256.385,58.738C245.551,58.38 247.073,54.052 247.7,53.037C250.505,48.62 247.401,42.083 244.058,33.636C240.715,25.189 257.639,15.459 269.936,19.101C281.278,22.443 274.473,59.335 256.385,58.738Z" fill="#80BBFF"/>
<path d="M210.629,64.887C210.629,64.887 218.091,67.006 232.925,62.499C231.134,67.125 227.612,71.035 219.195,71.453C210.778,71.871 210.629,64.887 210.629,64.887Z" fill="#FFFFFF"/>
<path d="M267.937,59.186C265.87,63.518 262.231,66.901 257.759,68.648C252.088,70.677 249.402,65.066 251.073,58.947C252.595,53.455 257.401,45.784 263.012,46.411C268.624,47.038 270.623,53.813 267.937,59.186Z" fill="#FBC6BF"/>
<path d="M216.091,44.68C214.306,48.742 211.955,52.53 209.107,55.932C210.005,56.642 211.047,57.149 212.16,57.416C213.273,57.684 214.431,57.708 215.554,57.484L216.091,44.68Z" fill="#E39489"/>
<path d="M270.265,10.206C265.967,3.282 229.523,-2.509 215.047,2.446C213.692,2.755 212.422,3.362 211.331,4.223C210.239,5.084 209.352,6.177 208.735,7.422C208.118,8.668 207.786,10.036 207.762,11.426C207.739,12.816 208.025,14.194 208.6,15.459C215.495,29.04 226.956,21.608 226.956,21.608C228.793,20.417 230.845,19.6 232.997,19.204C235.149,18.807 237.358,18.838 239.498,19.296C241.638,19.753 243.667,20.628 245.469,21.869C247.27,23.111 248.81,24.696 249.999,26.533L271.25,21.429C272.041,19.626 272.365,17.653 272.193,15.692C272.021,13.73 271.358,11.844 270.265,10.206Z" fill="#80BBFF"/>
<path d="M233.851,43.873C233.851,45.605 232.747,46.858 231.613,46.858C230.478,46.858 229.643,45.336 229.732,43.605C229.822,41.874 230.807,40.62 231.941,40.62C233.075,40.62 233.941,42.142 233.851,43.873Z" fill="#263238"/>
<path d="M214.24,42.621C214.24,44.352 213.166,45.605 212.031,45.605C210.897,45.605 210.061,44.083 210.151,42.352C210.241,40.621 211.225,39.367 212.36,39.367C213.494,39.367 214.33,40.889 214.24,42.621Z" fill="#263238"/>
<path d="M240.207,37.935C240.025,37.94 239.845,37.899 239.683,37.815C239.521,37.732 239.383,37.608 239.282,37.457C238.6,36.372 237.671,35.463 236.572,34.805C235.472,34.146 234.233,33.756 232.954,33.666C232.682,33.666 232.421,33.56 232.226,33.371C232.031,33.181 231.917,32.923 231.91,32.652C231.91,32.382 232.017,32.124 232.207,31.934C232.397,31.744 232.655,31.637 232.925,31.637C234.548,31.715 236.129,32.185 237.532,33.006C238.936,33.827 240.12,34.975 240.983,36.353C241.125,36.577 241.176,36.847 241.126,37.107C241.076,37.368 240.929,37.599 240.715,37.755C240.558,37.846 240.386,37.907 240.207,37.935Z" fill="#263238"/>
<path d="M206.152,35.308C205.952,35.315 205.755,35.263 205.585,35.159C205.467,35.096 205.363,35.011 205.279,34.907C205.195,34.803 205.133,34.684 205.097,34.555C205.06,34.427 205.05,34.293 205.068,34.16C205.085,34.028 205.129,33.901 205.197,33.786C205.943,32.357 207.026,31.132 208.352,30.217C209.678,29.301 211.208,28.723 212.808,28.533C213.077,28.513 213.343,28.601 213.547,28.777C213.752,28.953 213.878,29.204 213.897,29.473C213.917,29.742 213.829,30.008 213.653,30.212C213.477,30.416 213.226,30.542 212.957,30.562C211.691,30.725 210.484,31.197 209.443,31.936C208.403,32.675 207.559,33.659 206.988,34.801C206.905,34.951 206.784,35.076 206.637,35.165C206.491,35.254 206.323,35.303 206.152,35.308Z" fill="#263238"/>
</svg>
