<svg width="578" height="550" viewBox="0 0 578 550" fill="none" xmlns="http://www.w3.org/2000/svg" xmlns:xlink="http://www.w3.org/1999/xlink">
<path d="M576.904,61.617L-0.796,61.617L-0.796,487.661L576.904,487.661L576.904,61.617Z" fill="#263238"/>
<g opacity="0.4">
<path d="M576.904,61.617L-0.796,61.617L-0.796,487.661L576.904,487.661L576.904,61.617Z" fill="#FFFFFF"/>
</g>
<path d="M486.122,0.742L89.926,0.742L89.926,548.594L486.122,548.594L486.122,0.742Z" transform="rotate(180 288.024 274.668)" fill="#80BBFF"/>
<g opacity="0.2">
<path d="M486.122,0.742L89.926,0.742L89.926,548.594L486.122,548.594L486.122,0.742Z" transform="rotate(180 288.024 274.668)" fill="#000000"/>
</g>
<g opacity="0.1">
<path d="M518.612,276.698C513.986,270.908 510.136,264.461 505.002,258.79C504.022,257.727 503.306,256.449 502.912,255.059C498.84,254.523 494.7,255.155 490.974,256.879C476.526,263.356 463.364,274.31 451.932,285.115C449.486,287.413 446.978,289.593 444.47,291.801C455.754,279.205 467.036,266.58 478.466,254.103C480.15,252.353 481.47,250.285 482.346,248.02C483.222,245.755 483.638,243.339 483.57,240.911C478.298,234.896 472.472,229.389 466.17,224.465C464.996,223.665 463.984,222.653 463.186,221.48C458.706,221.867 454.562,224.013 451.664,227.45C427.218,254.014 403.012,280.131 376,303.949C378.18,300.965 380.358,297.979 382.448,294.787C396.626,273.743 411.818,253.536 427.666,233.718C438.83,219.749 458.112,202.587 461.662,184.081C460.946,183.186 460.2,182.26 459.424,181.365C458.648,180.47 457.424,179.067 456.44,177.962C455.444,177.773 454.492,177.398 453.634,176.858C448.888,173.873 445.874,167.426 449.664,162.233C450.478,161.072 451.488,160.062 452.648,159.248C458.41,151.995 464.05,144.682 469.424,137.131C469.702,136.737 469.962,136.328 470.2,135.907C466.348,124.834 457.156,116.805 448.202,109.253C444.95,110.027 442.014,111.777 439.784,114.268C429.01,125.938 416.652,136.236 406.684,148.622C395.968,161.904 387.134,176.589 376.986,190.26C376.8,190.465 376.63,190.685 376.478,190.916C364.18,204.586 351.854,218.227 339.914,232.195C329.528,242.702 319.022,253.089 308.754,263.296C292.546,279.713 276.1,296.129 259.028,311.919C263.266,305.651 267.504,299.413 271.862,293.205C291.084,265.834 312.426,240.015 332.99,213.66C343.138,200.676 352.42,187.096 362.24,173.903C370.002,163.516 381.612,154.025 387.7,142.593C388.958,140.31 389.77,137.808 390.088,135.221C389.396,134.631 388.766,133.971 388.208,133.251C383.116,127.22 376.77,122.371 369.612,119.043C368.02,118.266 366.706,117.015 365.852,115.462C362.98,116.31 360.322,117.765 358.062,119.73C348.418,128.044 339.316,136.967 330.812,146.443C333.596,141.822 335.81,136.881 337.408,131.729C342.242,115.223 323.826,103.075 309.68,110.417L308.456,111.074C306.804,106.344 303.51,102.365 299.17,99.861C294.832,97.357 289.738,96.496 284.816,97.434C279.354,90.151 269.892,86.331 261.206,92.867C225.807,119.909 192.079,149.846 158.68,179.425C155.695,182.111 152.711,184.827 149.726,187.543C155.505,178.449 161.741,169.652 168.41,161.188C176.081,151.458 186.767,141.31 190.856,129.221C190.436,128.966 190.046,128.666 189.692,128.326C180.919,120.353 173.527,110.984 167.813,100.598C167.825,100.508 167.825,100.418 167.813,100.329C152.89,103.672 137.309,113.313 124.714,120.566C108.47,130.203 93.126,141.281 78.868,153.666C78.886,155.226 78.613,156.774 78.062,158.233C77.724,159.077 77.325,159.895 76.868,160.681L76.868,163.337C78.098,165.765 79.098,168.303 79.853,170.918C82.171,172.004 84.137,173.721 85.524,175.873C86.854,178.28 87.504,181.004 87.404,183.753C87.404,184.499 87.225,185.245 87.106,185.991C88.527,187.075 89.572,188.579 90.09,190.289C93.517,189.654 96.706,188.096 99.313,185.782C103.253,182.35 107.253,179.037 111.252,175.784C106.089,184.409 101.164,193.185 96.149,201.572C87.374,216.346 78.241,230.673 68.123,244.642C60.452,255.267 50.214,264.52 48.931,276.28C56.064,282.25 61.019,289.921 67.197,296.935C67.512,297.313 67.801,297.713 68.063,298.129C74.519,297.591 80.708,295.311 85.971,291.533C84.33,293.473 82.718,295.443 81.226,297.503C67.705,316.007 48.602,330.961 36.454,350.243C34.998,352.421 33.983,354.865 33.47,357.437L37.708,362.809C38.912,364.159 39.736,365.803 40.098,367.575C40.46,369.347 40.346,371.183 39.767,372.897L40.066,373.165C39.558,373.763 39.051,374.329 38.573,374.957C36.541,377.529 35.094,380.513 34.335,383.701C39.988,392.573 47.044,400.465 55.228,407.073C66.332,406.267 76.122,399.043 85.942,393.403C92.627,389.553 99.283,385.613 105.88,381.463C102.528,385.671 99.72,390.283 97.522,395.193C96.715,397.099 96.182,399.109 95.94,401.163C96.492,401.473 97.021,401.821 97.522,402.207C105.743,408.187 113.369,414.945 120.296,422.385C121.32,422.003 122.317,421.555 123.281,421.041C129.755,417.511 136.005,413.583 141.995,409.281C141.035,412.045 140.541,414.951 140.533,417.877C142.02,417.667 143.534,417.781 144.972,418.215C146.41,418.647 147.737,419.387 148.86,420.385C154.233,425.011 158.561,430.921 163.784,435.607C165.498,435.189 167.125,434.473 168.589,433.487C182.648,423.967 194.557,411.431 207.988,401.043C211.361,398.417 214.764,395.849 218.166,393.283C217.272,395.951 216.946,398.779 217.211,401.581C218.554,401.939 219.806,402.581 220.882,403.461C227.329,408.655 233.628,413.997 240.014,419.281C241.644,418.683 243.182,417.859 244.582,416.833C250.912,412.309 256.898,407.321 262.49,401.909C262.652,403.029 262.89,404.135 263.206,405.221C264.446,404.649 265.814,404.409 267.174,404.525C268.534,404.639 269.842,405.107 270.966,405.879C276.182,409.613 281.166,413.659 285.89,417.997C293.322,416.027 298.486,410.595 304.486,406.057L307.47,403.729C307.858,404.475 308.296,405.193 308.784,405.879C310.668,405.613 312.584,406.059 314.156,407.133C316.718,409.027 319.152,411.091 321.44,413.311L322.424,414.235C324.966,414.721 327.584,414.651 330.094,414.027C343.884,410.325 356.212,400.835 368.032,392.507C365.702,395.193 363.374,397.909 361.106,400.685C352.48,411.281 339.826,422.803 335.438,436.203C336.022,436.765 336.532,437.397 336.96,438.085C338.602,440.801 340.452,443.517 342.422,446.173C348.932,449.989 354.788,454.825 359.764,460.499C360.722,460.253 361.66,459.933 362.568,459.545C376.448,453.575 386.806,442.411 397.192,431.817C404.624,424.295 411.758,416.505 418.712,408.565C419.12,409.613 419.64,410.613 420.264,411.549C421.96,411.009 423.768,410.917 425.51,411.283C427.252,411.649 428.868,412.461 430.204,413.639C433.188,416.117 436.442,418.385 439.636,420.683C442.478,420.507 445.248,419.713 447.754,418.357C450.258,417.001 452.438,415.117 454.142,412.833C469.632,392.687 513.09,337.737 498.614,306.695C505.852,299.703 511.902,291.577 516.522,282.638C517.496,280.766 518.198,278.766 518.612,276.698Z" fill="#FFFFFF"/>
</g>
<g opacity="0.1">
<path d="M52.692,274.877C57.318,280.668 61.168,287.115 66.302,292.786C67.279,293.854 68.003,295.13 68.421,296.516C72.493,297.056 76.634,296.424 80.36,294.696C94.807,288.219 107.969,277.265 119.431,266.46C121.849,264.162 124.356,261.953 126.893,259.774C115.581,272.37 104.328,284.996 92.896,297.472C91.209,299.22 89.886,301.288 89.004,303.552C88.123,305.818 87.701,308.234 87.763,310.664C93.042,316.672 98.867,322.178 105.164,327.11C106.337,327.91 107.349,328.922 108.149,330.096C112.628,329.708 116.771,327.562 119.67,324.126C144.115,297.562 168.321,271.445 195.333,247.626C193.184,250.611 190.975,253.596 188.886,256.79C174.709,277.683 159.516,298.038 143.697,317.858C132.504,331.826 113.223,348.988 109.671,367.494C110.417,368.39 111.133,369.314 111.909,370.21C112.685,371.106 113.939,372.508 114.894,373.612C115.89,373.802 116.842,374.178 117.7,374.718C122.446,377.702 125.46,384.15 121.669,389.342C120.864,390.51 119.852,391.522 118.685,392.328C112.924,399.58 107.313,406.892 101.91,414.444C101.631,414.838 101.372,415.246 101.134,415.668C105.015,426.742 114.178,434.74 123.132,442.322C126.386,441.554 129.324,439.802 131.549,437.308C142.354,425.638 154.681,415.34 164.65,402.952C175.365,389.67 184.2,374.986 194.348,361.166L194.886,360.51C207.153,346.84 219.48,333.2 231.419,319.23C241.836,308.724 252.312,298.338 262.58,288.129C278.788,271.713 295.234,255.297 312.306,239.508C308.068,245.776 303.83,252.014 299.472,258.222C280.25,285.592 258.908,311.41 238.344,337.766C228.195,350.75 218.913,364.33 209.093,377.522C201.333,387.91 189.722,397.402 183.633,408.832C182.375,411.116 181.565,413.618 181.245,416.206C181.945,416.788 182.576,417.448 183.126,418.176C188.222,424.214 194.579,429.064 201.75,432.382C203.336,433.16 204.64,434.412 205.481,435.964C208.358,435.126 211.017,433.67 213.272,431.696C222.923,423.326 232.034,414.354 240.552,404.834C237.759,409.454 235.534,414.394 233.926,419.548C229.091,436.054 247.507,448.202 261.654,440.86L262.878,440.202C264.528,444.932 267.824,448.912 272.164,451.416C276.502,453.92 281.596,454.782 286.518,453.844C291.98,461.126 301.442,464.946 310.128,458.41C345.526,431.368 379.254,401.43 412.684,371.852L421.638,363.734C415.858,372.828 409.622,381.624 402.952,390.088C395.282,399.818 384.596,409.968 380.538,422.056C380.946,422.326 381.336,422.624 381.702,422.95C390.328,430.924 397.596,440.248 403.222,450.56C403.222,450.56 403.222,450.738 403.222,450.828C418.146,447.486 433.726,437.844 446.352,430.592C462.58,420.948 477.914,409.87 492.168,397.49C492.148,395.932 492.422,394.382 492.974,392.924C493.322,392.086 493.722,391.268 494.166,390.476C494.166,389.612 494.166,388.716 494.166,387.82C492.926,385.398 491.926,382.858 491.182,380.238C488.864,379.154 486.898,377.436 485.512,375.284C484.182,372.876 483.532,370.154 483.63,367.404C483.63,366.658 483.81,365.912 483.93,365.166C482.56,364.064 481.568,362.56 481.094,360.868C477.658,361.502 474.46,363.06 471.84,365.374C467.902,368.808 463.902,372.12 459.902,375.374C465.036,366.748 469.99,357.972 474.976,349.586C483.75,334.662 492.884,320.484 503.032,306.516C510.672,295.89 520.94,286.637 522.194,274.877C515.06,268.908 510.106,261.237 503.928,254.223C503.612,253.845 503.324,253.446 503.062,253.029C496.606,253.567 490.416,255.847 485.154,259.625C486.794,257.685 488.406,255.715 489.898,253.656C503.42,235.15 522.522,220.196 534.67,200.915C536.126,198.736 537.14,196.292 537.654,193.722L533.416,188.349C532.22,186.995 531.402,185.35 531.04,183.58C530.678,181.81 530.788,179.976 531.358,178.261L531.058,177.992C531.566,177.395 532.074,176.828 532.55,176.201C534.582,173.624 536.036,170.642 536.82,167.456C531.156,158.593 524.102,150.702 515.926,144.085C504.822,144.891 495.032,152.114 485.212,157.755C478.526,161.616 471.88,165.595 465.274,169.694C468.632,165.502 471.44,160.898 473.632,155.994C474.44,154.09 474.972,152.08 475.214,150.025C474.668,149.722 474.148,149.372 473.662,148.98C465.426,143.008 457.788,136.251 450.858,128.803C449.834,129.185 448.838,129.633 447.874,130.146C441.4,133.677 435.15,137.605 429.16,141.906C430.134,139.146 430.628,136.238 430.622,133.31C429.134,133.517 427.62,133.4 426.184,132.967C424.746,132.535 423.42,131.796 422.294,130.803C416.922,126.177 412.594,120.267 407.37,115.581C405.656,115.998 404.028,116.715 402.564,117.7C388.506,127.221 376.598,139.757 363.166,150.144C359.794,152.771 356.39,155.338 352.988,157.905C353.896,155.239 354.222,152.409 353.944,149.607C352.6,149.248 351.348,148.607 350.272,147.727C343.824,142.533 337.528,137.191 331.17,131.907C329.528,132.498 327.98,133.322 326.574,134.355C320.242,138.879 314.256,143.867 308.664,149.279C308.518,148.156 308.278,147.048 307.948,145.966C306.708,146.538 305.342,146.778 303.982,146.663C302.62,146.548 301.314,146.081 300.188,145.309C294.966,141.583 289.982,137.536 285.264,133.191C277.802,135.161 272.638,140.593 266.64,145.13L263.654,147.458C263.268,146.712 262.828,145.994 262.342,145.309C260.456,145.572 258.542,145.125 256.968,144.055C254.414,142.151 251.981,140.087 249.686,137.877L248.701,136.952C246.159,136.466 243.542,136.538 241.03,137.161C227.27,140.862 214.943,150.353 203.123,158.681C205.422,155.994 207.75,153.278 210.018,150.502C218.644,139.907 231.3,128.385 235.687,114.984C235.112,114.415 234.601,113.784 234.165,113.104C232.523,110.387 230.673,107.671 228.733,105.015C222.207,101.208 216.341,96.369 211.361,90.688C210.413,90.935 209.485,91.254 208.586,91.643C194.706,97.613 184.319,108.776 173.933,119.371C166.53,126.893 159.367,134.683 152.442,142.623C152.025,141.574 151.494,140.573 150.86,139.638C149.164,140.179 147.357,140.27 145.615,139.904C143.873,139.538 142.256,138.726 140.921,137.549C137.936,135.071 134.713,132.803 131.489,130.505C128.646,130.681 125.876,131.475 123.371,132.83C120.866,134.186 118.686,136.071 116.983,138.355C101.493,158.502 58.035,213.451 72.511,244.492C65.3,251.441 59.254,259.503 54.602,268.37C53.662,270.439 53.019,272.629 52.692,274.877Z" fill="#FFFFFF"/>
</g>
<path d="M463.693,244.074L429.308,263.057C428.995,263.201 428.638,263.215 428.315,263.098C427.991,262.981 427.726,262.741 427.577,262.431C427.482,262.29 427.416,262.132 427.382,261.965C427.349,261.799 427.349,261.627 427.382,261.46C427.416,261.294 427.482,261.136 427.577,260.995C427.672,260.854 427.794,260.733 427.935,260.64L461.335,242.224L451.873,223.39C451.789,223.246 451.734,223.086 451.712,222.92C451.691,222.754 451.702,222.585 451.747,222.424C451.791,222.263 451.868,222.112 451.971,221.98C452.075,221.849 452.204,221.74 452.351,221.659C452.676,221.529 453.038,221.532 453.362,221.666C453.685,221.799 453.943,222.054 454.082,222.375L464.111,242.373C464.263,242.658 464.304,242.99 464.227,243.304C464.15,243.618 463.96,243.892 463.693,244.074Z" fill="#FFFFFF"/>
<path d="M474.795,268.58L474.586,268.58C474.25,268.668 473.893,268.629 473.584,268.469C473.275,268.309 473.037,268.04 472.915,267.714L466.289,252.343C460.319,255.805 435.844,270.729 433.456,272.46C433.162,272.627 432.814,272.673 432.486,272.59C432.158,272.506 431.875,272.299 431.695,272.012C431.481,271.74 431.38,271.396 431.413,271.051C431.446,270.706 431.612,270.387 431.875,270.162C434.621,268.192 464.707,250.014 465.901,249.268C466.063,249.187 466.242,249.145 466.423,249.145C466.604,249.145 466.783,249.187 466.945,249.268C467.31,249.431 467.606,249.716 467.781,250.074L475.153,267.087C475.273,267.34 475.303,267.625 475.237,267.897C475.172,268.168 475.016,268.409 474.795,268.58Z" fill="#FFFFFF"/>
<path d="M485.152,261.953L484.973,261.953C484.636,262.059 484.271,262.032 483.955,261.876C483.638,261.72 483.393,261.449 483.271,261.117L475.571,243.448C475.433,243.159 475.405,242.829 475.493,242.522C475.581,242.214 475.779,241.949 476.048,241.776L511.059,224.345C511.381,224.214 511.741,224.212 512.063,224.34C512.386,224.468 512.647,224.716 512.791,225.032C512.881,225.176 512.941,225.336 512.968,225.504C512.994,225.672 512.986,225.844 512.945,226.008C512.903,226.173 512.828,226.327 512.724,226.462C512.621,226.597 512.491,226.71 512.343,226.793L478.227,243.865L485.42,260.401C485.56,260.652 485.609,260.942 485.56,261.225C485.511,261.507 485.367,261.764 485.152,261.953Z" fill="#FFFFFF"/>
<path d="M505.091,217.629L474.318,237.329C474.016,237.49 473.663,237.528 473.334,237.433C473.005,237.338 472.726,237.119 472.557,236.821L460.319,218.137C460.214,218.002 460.136,217.848 460.09,217.683C460.045,217.518 460.033,217.346 460.056,217.176C460.078,217.006 460.134,216.843 460.22,216.695C460.306,216.547 460.421,216.419 460.558,216.316C460.858,216.159 461.206,216.121 461.532,216.21C461.859,216.298 462.14,216.507 462.319,216.793L473.811,234.344L503.658,215.301C503.96,215.139 504.313,215.102 504.642,215.197C504.971,215.292 505.25,215.511 505.419,215.809C505.52,215.948 505.592,216.107 505.631,216.276C505.669,216.444 505.673,216.619 505.642,216.789C505.612,216.959 505.547,217.121 505.452,217.265C505.358,217.41 505.235,217.533 505.091,217.629Z" fill="#FFFFFF"/>
<path d="M475.422,229.091C475.243,229.202 475.036,229.261 474.825,229.261C474.614,229.261 474.408,229.202 474.228,229.091C473.91,228.924 473.662,228.649 473.53,228.314C473.399,227.98 473.392,227.609 473.512,227.27L483.571,201.691C483.632,201.538 483.726,201.4 483.847,201.288C483.968,201.177 484.113,201.094 484.27,201.045C484.428,200.996 484.594,200.983 484.757,201.007C484.92,201.031 485.075,201.091 485.212,201.183C485.522,201.358 485.763,201.635 485.893,201.967C486.024,202.298 486.036,202.664 485.929,203.004L475.84,228.583C475.752,228.789 475.607,228.965 475.422,229.091Z" fill="#FFFFFF"/>
<path d="M482.766,228.524C482.572,228.656 482.344,228.727 482.109,228.727C481.875,228.727 481.646,228.656 481.453,228.524C481.149,228.338 480.924,228.047 480.819,227.706C480.715,227.365 480.738,226.998 480.886,226.674L492.257,203.631C492.332,203.486 492.438,203.359 492.568,203.259C492.698,203.16 492.848,203.091 493.008,203.056C493.168,203.022 493.334,203.024 493.493,203.061C493.652,203.099 493.801,203.171 493.929,203.273C494.233,203.46 494.458,203.75 494.562,204.091C494.667,204.432 494.643,204.799 494.496,205.124L483.154,228.166C483.05,228.311 482.918,228.432 482.766,228.524Z" fill="#FFFFFF"/>
<path d="M508.494,250.492C508.29,250.622 508.047,250.675 507.807,250.641L480.945,248.015C480.591,247.965 480.267,247.79 480.032,247.521C479.796,247.253 479.665,246.909 479.661,246.552C479.642,246.391 479.66,246.227 479.713,246.073C479.766,245.92 479.853,245.78 479.968,245.665C480.083,245.55 480.223,245.463 480.376,245.41C480.53,245.357 480.694,245.339 480.855,245.358L507.718,247.985C508.072,248.027 508.399,248.195 508.64,248.458C508.88,248.721 509.019,249.061 509.031,249.417C509.048,249.628 509.006,249.84 508.912,250.029C508.817,250.219 508.673,250.379 508.494,250.492Z" fill="#FFFFFF"/>
<path d="M518.462,240.642C518.276,240.764 518.058,240.826 517.835,240.821L486.794,239.448C486.436,239.414 486.102,239.255 485.851,238.998C485.6,238.741 485.448,238.404 485.421,238.046C485.394,237.884 485.404,237.718 485.449,237.56C485.495,237.403 485.574,237.257 485.683,237.134C485.792,237.011 485.926,236.914 486.077,236.85C486.228,236.785 486.391,236.756 486.555,236.762L517.597,238.135C517.956,238.163 518.294,238.321 518.546,238.579C518.799,238.837 518.949,239.178 518.97,239.538C519.002,239.752 518.972,239.97 518.881,240.166C518.791,240.362 518.646,240.528 518.462,240.642Z" fill="#FFFFFF"/>
<path d="M525.476,248.552L525.267,248.552C503.568,256.103 440.351,290.547 439.724,290.876C439.411,291.019 439.054,291.034 438.73,290.916C438.406,290.799 438.142,290.559 437.993,290.249C437.898,290.108 437.832,289.95 437.798,289.783C437.765,289.617 437.765,289.445 437.798,289.278C437.831,289.112 437.897,288.954 437.992,288.813C438.087,288.672 438.209,288.551 438.351,288.458C438.978,288.13 500.255,254.76 523.088,246.403C520.104,239.09 504.792,202.019 496.226,192.975C495.986,192.721 495.853,192.385 495.853,192.035C495.853,191.686 495.986,191.35 496.226,191.095C496.337,190.973 496.473,190.875 496.625,190.809C496.777,190.742 496.94,190.708 497.106,190.708C497.272,190.708 497.435,190.742 497.587,190.809C497.739,190.875 497.875,190.973 497.987,191.095C507.777,201.482 525.148,244.821 525.894,246.731C525.996,246.875 526.066,247.039 526.1,247.212C526.134,247.385 526.131,247.563 526.092,247.735C526.052,247.907 525.977,248.068 525.871,248.209C525.765,248.35 525.63,248.467 525.476,248.552Z" fill="#FFFFFF"/>
<path d="M434.71,292.338L434.322,292.338C433.973,292.376 433.622,292.285 433.336,292.081C433.05,291.878 432.848,291.576 432.77,291.234C425.398,264.162 407.489,237.986 407.31,237.747C407.194,237.59 407.11,237.412 407.064,237.222C407.018,237.032 407.01,236.835 407.041,236.643C407.065,236.473 407.128,236.311 407.227,236.171C407.326,236.031 407.457,235.916 407.608,235.837C432.352,222.763 491.599,188.916 492.196,188.558C492.51,188.411 492.869,188.391 493.197,188.503C493.525,188.614 493.798,188.848 493.957,189.155C494.151,189.444 494.222,189.798 494.155,190.14C494.088,190.481 493.888,190.782 493.599,190.976C493.032,191.304 435.516,224.136 410.026,237.628C413.727,243.299 428.472,266.669 435.038,290.816C435.181,291.065 435.227,291.359 435.166,291.64C435.106,291.921 434.943,292.17 434.71,292.338Z" fill="#FFFFFF"/>
<path d="M458.38,237.896C458.196,238.022 457.973,238.075 457.753,238.045L420.682,235.956C420.322,235.928 419.985,235.77 419.733,235.512C419.48,235.254 419.33,234.914 419.309,234.553C419.287,234.391 419.301,234.226 419.35,234.07C419.399,233.913 419.482,233.77 419.594,233.65C419.705,233.53 419.842,233.437 419.994,233.376C420.146,233.315 420.31,233.289 420.473,233.3L457.544,235.389C457.898,235.424 458.229,235.585 458.475,235.842C458.721,236.099 458.867,236.436 458.887,236.792C458.92,237.005 458.889,237.224 458.799,237.42C458.709,237.616 458.563,237.782 458.38,237.896Z" fill="#FFFFFF"/>
<path d="M449.276,246.851C449.079,246.973 448.851,247.035 448.619,247.03L416.831,244.94C416.474,244.906 416.14,244.746 415.888,244.49C415.637,244.233 415.485,243.896 415.458,243.537C415.435,243.373 415.449,243.205 415.5,243.046C415.551,242.888 415.637,242.743 415.752,242.622C415.867,242.501 416.008,242.408 416.163,242.35C416.319,242.291 416.486,242.269 416.652,242.284L448.44,244.343C448.795,244.391 449.122,244.559 449.367,244.82C449.612,245.081 449.759,245.419 449.783,245.776C449.803,245.984 449.766,246.194 449.677,246.383C449.587,246.572 449.449,246.734 449.276,246.851Z" fill="#FFFFFF"/>
<path d="M438.172,287.234C437.97,287.387 437.723,287.469 437.47,287.469C437.217,287.469 436.971,287.387 436.769,287.234C436.483,287.024 436.283,286.718 436.207,286.372C436.13,286.026 436.181,285.664 436.351,285.354L454.856,256.193C454.949,256.055 455.071,255.939 455.213,255.854C455.356,255.769 455.515,255.715 455.68,255.698C455.845,255.681 456.012,255.701 456.169,255.755C456.326,255.81 456.469,255.898 456.588,256.013C456.873,256.223 457.073,256.529 457.15,256.875C457.227,257.221 457.175,257.583 457.006,257.894L438.5,287.025C438.408,287.119 438.295,287.19 438.172,287.234Z" fill="#FFFFFF"/>
<path d="M453.543,277.415C453.323,277.537 453.069,277.589 452.818,277.562C452.567,277.536 452.33,277.432 452.14,277.265C451.855,277.056 451.655,276.749 451.578,276.404C451.501,276.058 451.553,275.696 451.722,275.385L464.079,255.894C464.173,255.759 464.294,255.645 464.436,255.559C464.577,255.474 464.734,255.42 464.898,255.4C465.062,255.38 465.228,255.395 465.385,255.445C465.542,255.494 465.687,255.576 465.811,255.685C466.096,255.895 466.296,256.201 466.373,256.547C466.45,256.893 466.398,257.255 466.228,257.566L453.871,277.086C453.786,277.217 453.674,277.329 453.543,277.415Z" fill="#FFFFFF"/>
<path d="M444.74,333.946C444.352,334.006 443.957,333.912 443.638,333.683C443.32,333.454 443.104,333.108 443.038,332.722C432.025,269.206 404.475,235.837 404.237,235.508C404.109,235.361 404.011,235.189 403.951,235.003C403.891,234.817 403.868,234.621 403.885,234.426C403.902,234.231 403.957,234.042 404.048,233.869C404.139,233.696 404.264,233.543 404.416,233.419C404.722,233.166 405.116,233.044 405.512,233.077C405.908,233.111 406.275,233.298 406.535,233.598C406.803,233.926 434.86,267.863 445.993,332.095C446.028,332.289 446.023,332.488 445.98,332.681C445.937,332.873 445.856,333.055 445.742,333.216C445.628,333.377 445.484,333.513 445.317,333.618C445.15,333.723 444.964,333.794 444.77,333.826L444.74,333.946Z" fill="#FFFFFF"/>
<path d="M87.046,229.091C87.231,229.201 87.442,229.259 87.658,229.259C87.873,229.259 88.084,229.201 88.269,229.091C88.584,228.92 88.828,228.644 88.959,228.311C89.09,227.978 89.099,227.609 88.986,227.27L78.927,201.691C78.866,201.538 78.772,201.4 78.651,201.288C78.529,201.177 78.385,201.094 78.228,201.045C78.07,200.996 77.904,200.983 77.741,201.007C77.578,201.031 77.422,201.091 77.286,201.183C76.971,201.354 76.727,201.63 76.596,201.963C76.465,202.296 76.456,202.665 76.569,203.004L86.628,228.583C86.715,228.789 86.861,228.965 87.046,229.091Z" fill="#FFFFFF"/>
<path d="M79.733,228.524C79.926,228.656 80.155,228.727 80.39,228.727C80.624,228.727 80.853,228.656 81.046,228.524C81.345,228.334 81.566,228.043 81.67,227.703C81.774,227.364 81.754,226.999 81.613,226.674L70.241,203.631C70.167,203.486 70.06,203.359 69.931,203.259C69.801,203.16 69.65,203.091 69.491,203.056C69.331,203.022 69.165,203.024 69.006,203.061C68.847,203.099 68.698,203.171 68.57,203.273C68.266,203.459 68.038,203.748 67.929,204.088C67.819,204.427 67.835,204.795 67.973,205.124L79.345,228.166C79.441,228.317 79.575,228.44 79.733,228.524Z" fill="#FFFFFF"/>
<path d="M54.005,250.492C54.209,250.622 54.453,250.675 54.692,250.641L81.555,248.015C81.911,247.965 82.239,247.791 82.479,247.524C82.719,247.256 82.857,246.912 82.868,246.552C82.887,246.391 82.869,246.227 82.816,246.073C82.763,245.92 82.676,245.78 82.561,245.665C82.446,245.55 82.306,245.463 82.153,245.41C81.999,245.357 81.835,245.339 81.674,245.358L54.811,247.985C54.46,248.028 54.137,248.197 53.901,248.46C53.665,248.724 53.532,249.064 53.528,249.417C53.505,249.623 53.537,249.831 53.621,250.019C53.705,250.208 53.838,250.371 54.005,250.492Z" fill="#FFFFFF"/>
<path d="M44.006,240.642C44.202,240.764 44.431,240.826 44.662,240.821L75.704,239.448C76.059,239.408 76.39,239.247 76.64,238.991C76.89,238.736 77.044,238.402 77.077,238.045C77.098,237.882 77.084,237.716 77.035,237.558C76.986,237.401 76.903,237.256 76.793,237.133C76.682,237.011 76.546,236.915 76.394,236.851C76.242,236.786 76.077,236.756 75.913,236.762L44.871,238.135C44.516,238.175 44.185,238.336 43.935,238.592C43.684,238.847 43.53,239.182 43.498,239.538C43.476,239.75 43.512,239.965 43.601,240.159C43.69,240.354 43.83,240.52 44.006,240.642Z" fill="#FFFFFF"/>
<path d="M37.022,248.552L37.231,248.552C58.93,256.103 122.117,290.547 122.774,290.876C123.087,291.019 123.444,291.034 123.768,290.916C124.092,290.799 124.356,290.559 124.505,290.249C124.6,290.108 124.666,289.95 124.7,289.783C124.733,289.617 124.734,289.445 124.7,289.278C124.667,289.112 124.601,288.954 124.506,288.813C124.411,288.672 124.289,288.551 124.147,288.458C123.52,288.13 62.243,254.76 39.41,246.403C42.395,239.09 57.676,202.019 66.273,192.976C66.505,192.718 66.634,192.383 66.634,192.035C66.634,191.688 66.505,191.353 66.273,191.095C66.158,190.972 66.019,190.874 65.865,190.807C65.711,190.74 65.545,190.706 65.377,190.706C65.209,190.706 65.043,190.74 64.889,190.807C64.735,190.874 64.596,190.972 64.482,191.095C54.722,201.482 37.35,244.821 36.604,246.731C36.502,246.875 36.432,247.039 36.398,247.212C36.364,247.385 36.367,247.563 36.406,247.735C36.446,247.907 36.521,248.068 36.627,248.209C36.733,248.35 36.868,248.467 37.022,248.552Z" fill="#FFFFFF"/>
<path d="M127.788,292.338L128.176,292.338C128.524,292.37 128.872,292.276 129.157,292.073C129.442,291.871 129.644,291.573 129.729,291.234C137.101,264.162 155.009,237.986 155.189,237.747C155.399,237.42 155.484,237.027 155.427,236.643C155.415,236.469 155.356,236.303 155.256,236.161C155.156,236.019 155.019,235.907 154.86,235.837C130.146,222.763 70.899,188.916 70.302,188.558C69.988,188.411 69.63,188.391 69.302,188.503C68.973,188.614 68.701,188.848 68.541,189.155C68.344,189.441 68.269,189.792 68.33,190.133C68.392,190.474 68.585,190.777 68.869,190.976C69.466,191.304 126.953,224.136 152.443,237.628C148.741,243.299 133.997,266.669 127.4,290.816C127.276,291.075 127.247,291.369 127.318,291.647C127.389,291.926 127.555,292.17 127.788,292.338Z" fill="#FFFFFF"/>
<path d="M104.089,237.896C104.283,238.021 104.516,238.074 104.746,238.045L141.816,235.956C142.171,235.921 142.501,235.76 142.747,235.503C142.994,235.246 143.14,234.909 143.159,234.553C143.187,234.393 143.178,234.228 143.132,234.072C143.087,233.915 143.006,233.771 142.897,233.65C142.788,233.53 142.653,233.435 142.502,233.375C142.351,233.314 142.188,233.288 142.025,233.3L104.955,235.389C104.597,235.423 104.263,235.583 104.012,235.839C103.76,236.096 103.608,236.433 103.582,236.792C103.559,237.004 103.595,237.219 103.684,237.413C103.773,237.608 103.913,237.774 104.089,237.896Z" fill="#FFFFFF"/>
<path d="M113.222,246.85C113.418,246.976 113.647,247.038 113.879,247.029L145.666,244.94C146.021,244.905 146.351,244.744 146.597,244.487C146.844,244.23 146.99,243.893 147.01,243.537C147.038,243.374 147.028,243.206 146.981,243.048C146.934,242.889 146.851,242.743 146.738,242.622C146.626,242.5 146.486,242.407 146.332,242.348C146.177,242.289 146.01,242.267 145.846,242.284L114.058,244.343C113.699,244.379 113.365,244.544 113.118,244.807C112.871,245.071 112.728,245.415 112.715,245.776C112.68,245.985 112.71,246.2 112.801,246.392C112.892,246.584 113.039,246.744 113.222,246.85Z" fill="#FFFFFF"/>
<path d="M124.326,287.234C124.529,287.382 124.775,287.462 125.027,287.462C125.279,287.462 125.524,287.382 125.728,287.234C126.014,287.024 126.214,286.718 126.291,286.372C126.367,286.026 126.316,285.664 126.146,285.354L107.641,256.193C107.548,256.055 107.426,255.939 107.284,255.854C107.142,255.769 106.982,255.715 106.817,255.698C106.652,255.681 106.485,255.701 106.328,255.755C106.172,255.81 106.029,255.898 105.91,256.013C105.624,256.223 105.424,256.529 105.347,256.875C105.271,257.221 105.322,257.583 105.492,257.894L123.997,287.025C124.089,287.119 124.202,287.19 124.326,287.234Z" fill="#FFFFFF"/>
<path d="M108.954,277.415C109.175,277.538 109.428,277.589 109.679,277.562C109.93,277.536 110.167,277.432 110.357,277.265C110.643,277.056 110.842,276.75 110.919,276.404C110.996,276.058 110.945,275.696 110.775,275.385L98.418,255.805C98.324,255.669 98.203,255.555 98.062,255.47C97.921,255.385 97.763,255.33 97.599,255.311C97.436,255.291 97.27,255.306 97.112,255.355C96.955,255.405 96.81,255.487 96.687,255.596C96.396,255.802 96.192,256.108 96.115,256.456C96.037,256.803 96.092,257.167 96.269,257.477L108.626,276.997C108.701,277.16 108.813,277.303 108.954,277.415Z" fill="#FFFFFF"/>
<path d="M117.759,333.946C118.146,334.006 118.542,333.912 118.861,333.683C119.179,333.454 119.394,333.108 119.46,332.722C130.444,269.206 157.993,235.837 158.262,235.508C158.515,235.204 158.637,234.811 158.601,234.416C158.565,234.022 158.373,233.658 158.068,233.404C157.763,233.151 157.37,233.029 156.976,233.065C156.581,233.102 156.217,233.293 155.964,233.598C155.695,233.927 127.638,267.863 116.505,332.095C116.436,332.483 116.522,332.882 116.746,333.207C116.969,333.531 117.312,333.754 117.699,333.826L117.759,333.946Z" fill="#FFFFFF"/>
</svg>
