<svg width="1016" height="684" viewBox="0 0 1016 684" fill="none" xmlns="http://www.w3.org/2000/svg" xmlns:xlink="http://www.w3.org/1999/xlink">
<path d="M164.539,232.757C165.292,232.293 166.16,232.047 167.044,232.047C167.929,232.047 168.796,232.293 169.549,232.757C169.979,233.012 170.408,233.266 170.838,233.489L172.174,234.173C172.977,234.536 173.664,235.115 174.158,235.845C174.652,236.575 174.934,237.427 174.973,238.308L175.164,244.479L195.252,243.859L195.061,237.688C195.04,236.803 195.266,235.93 195.712,235.166C196.159,234.402 196.809,233.777 197.59,233.361C198.466,232.877 199.316,232.346 200.135,231.771C200.855,231.264 201.701,230.966 202.579,230.91C203.458,230.853 204.335,231.041 205.114,231.453L210.537,234.364L220.08,216.629L214.625,213.671C213.847,213.25 213.202,212.621 212.761,211.854C212.32,211.087 212.101,210.213 212.128,209.329C212.128,208.327 212.128,207.325 212.032,206.339C211.947,205.457 212.108,204.569 212.499,203.774C212.889,202.979 213.493,202.308 214.243,201.837L219.492,198.656L208.883,181.574L203.618,184.835C202.867,185.296 202.003,185.54 201.121,185.54C200.24,185.54 199.375,185.296 198.624,184.835C198.211,184.58 197.781,184.326 197.336,184.087L196.016,183.435C195.208,183.069 194.518,182.485 194.024,181.749C193.529,181.013 193.25,180.154 193.216,179.268L193.041,173.097L172.937,173.717L173.144,179.872C173.168,180.76 172.944,181.636 172.497,182.403C172.051,183.17 171.399,183.798 170.615,184.214C169.739,184.699 168.89,185.23 168.07,185.805C167.349,186.315 166.5,186.615 165.618,186.671C164.736,186.727 163.856,186.538 163.076,186.123L157.652,183.228L148.109,200.947L153.533,203.841C154.311,204.263 154.956,204.892 155.397,205.658C155.838,206.425 156.057,207.299 156.03,208.184C156.03,209.18 156.062,210.182 156.125,211.19C156.211,212.071 156.049,212.959 155.659,213.754C155.268,214.549 154.664,215.22 153.915,215.691L148.682,218.872L159.306,235.938L164.539,232.757ZM169.581,200.947C171.119,198.075 173.474,195.724 176.348,194.192C179.222,192.659 182.486,192.014 185.728,192.337C188.969,192.66 192.041,193.938 194.556,196.008C197.071,198.078 198.915,200.848 199.855,203.967C200.795,207.085 200.789,210.413 199.837,213.528C198.885,216.643 197.031,219.406 194.508,221.466C191.985,223.527 188.908,224.793 185.666,225.104C182.423,225.415 179.162,224.757 176.293,223.214C172.46,221.142 169.602,217.637 168.345,213.465C167.087,209.292 167.532,204.792 169.581,200.947Z" fill="#DBDBDB"/>
<path d="M821.107,267.86C821.643,268.189 822.075,268.661 822.356,269.224C822.637,269.786 822.755,270.415 822.698,271.041C822.698,271.375 822.698,271.725 822.698,272.075C822.698,272.425 822.698,272.775 822.698,273.124C822.743,273.735 822.618,274.347 822.337,274.891C822.057,275.436 821.631,275.892 821.107,276.21L817.37,278.373L824.4,290.572L828.153,288.409C828.691,288.105 829.303,287.955 829.921,287.978C830.539,288 831.138,288.194 831.652,288.537C832.239,288.917 832.844,289.267 833.466,289.586C834.02,289.862 834.487,290.286 834.816,290.811C835.144,291.336 835.321,291.941 835.327,292.561L835.327,296.871L849.403,296.871L849.403,292.561C849.408,291.941 849.585,291.336 849.913,290.811C850.242,290.286 850.709,289.862 851.264,289.586C851.885,289.267 852.49,288.917 853.077,288.537C853.591,288.194 854.191,288 854.808,287.978C855.426,287.955 856.038,288.105 856.576,288.409L860.33,290.572L867.36,278.373L863.606,276.21C863.082,275.888 862.657,275.429 862.377,274.882C862.096,274.335 861.971,273.722 862.015,273.109C862.015,272.774 862.015,272.425 862.015,272.075C862.015,271.725 862.015,271.375 862.015,271.041C861.956,270.415 862.073,269.785 862.355,269.222C862.636,268.66 863.07,268.188 863.606,267.86L867.344,265.713L860.314,253.513L856.576,255.661C856.038,255.971 855.423,256.125 854.803,256.105C854.182,256.085 853.578,255.893 853.061,255.549C852.477,255.165 851.871,254.815 851.248,254.499C850.693,254.224 850.226,253.8 849.898,253.275C849.569,252.75 849.392,252.144 849.387,251.525L849.387,247.215L835.311,247.215L835.311,251.525C835.305,252.144 835.128,252.75 834.8,253.275C834.471,253.8 834.004,254.224 833.45,254.499C832.828,254.818 832.223,255.169 831.637,255.549C831.119,255.893 830.516,256.085 829.895,256.105C829.274,256.125 828.66,255.971 828.122,255.661L824.384,253.513L817.354,265.713L821.107,267.86ZM842.357,260.464C844.641,260.461 846.875,261.135 848.776,262.402C850.677,263.669 852.16,265.471 853.036,267.581C853.913,269.691 854.144,272.013 853.7,274.254C853.256,276.495 852.157,278.554 850.543,280.17C848.929,281.787 846.871,282.888 844.631,283.335C842.391,283.782 840.068,283.554 837.957,282.681C835.846,281.807 834.042,280.327 832.773,278.428C831.503,276.529 830.825,274.296 830.825,272.011C830.825,268.951 832.04,266.017 834.202,263.852C836.364,261.687 839.297,260.468 842.357,260.464Z" fill="#DBDBDB"/>
<path d="M891.503,388.151C891.503,398.997 894.72,409.6 900.746,418.619C906.772,427.638 915.337,434.667 925.358,438.817C935.379,442.968 946.405,444.054 957.044,441.938C967.682,439.822 977.454,434.599 985.123,426.929C992.793,419.26 998.016,409.488 1000.132,398.85C1002.248,388.212 1001.162,377.185 997.011,367.164C992.861,357.143 985.831,348.578 976.813,342.552C967.794,336.526 957.191,333.31 946.345,333.31C939.143,333.31 932.011,334.728 925.358,337.484C918.704,340.24 912.659,344.28 907.566,349.372C902.474,354.465 898.434,360.51 895.678,367.164C892.922,373.818 891.503,380.949 891.503,388.151ZM920.737,388.151C920.734,383.082 922.235,378.125 925.049,373.909C927.863,369.693 931.865,366.406 936.548,364.465C941.23,362.524 946.384,362.015 951.356,363.003C956.327,363.991 960.895,366.432 964.479,370.017C968.063,373.601 970.504,378.168 971.492,383.14C972.48,388.112 971.972,393.265 970.03,397.948C968.089,402.631 964.802,406.632 960.586,409.447C956.37,412.261 951.414,413.761 946.345,413.758C939.553,413.758 933.04,411.06 928.237,406.258C923.435,401.456 920.737,394.942 920.737,388.151Z" fill="#EBEBEB"/>
<path d="M935.8,335.584L956.89,335.584L955.729,320.649L936.977,320.649L935.8,335.584Z" fill="#EBEBEB"/>
<path d="M975.945,342.694L990.864,357.613L1000.598,346.225L987.333,332.96L975.945,342.694Z" fill="#EBEBEB"/>
<path d="M999.31,376.095L999.31,397.185L1014.245,396.024L1014.245,377.272L999.31,376.095Z" fill="#EBEBEB"/>
<path d="M992.2,416.24L977.297,431.159L988.669,440.893L1001.934,427.628L992.2,416.24Z" fill="#EBEBEB"/>
<path d="M958.799,439.604L937.708,439.604L938.869,454.54L957.622,454.54L958.799,439.604Z" fill="#EBEBEB"/>
<path d="M918.654,432.495L903.735,417.592L894.001,428.964L907.266,442.229L918.654,432.495Z" fill="#EBEBEB"/>
<path d="M895.289,399.094L895.289,378.003L880.354,379.164L880.354,397.917L895.289,399.094Z" fill="#EBEBEB"/>
<path d="M902.399,358.95L917.302,344.031L905.93,334.297L892.665,347.562L902.399,358.95Z" fill="#EBEBEB"/>
<path d="M11.149,123.902C11.149,134.748 14.366,145.351 20.392,154.37C26.418,163.389 34.983,170.418 45.004,174.568C55.025,178.719 66.051,179.805 76.69,177.689C87.328,175.573 97.1,170.35 104.769,162.68C112.439,155.011 117.662,145.239 119.778,134.601C121.894,123.963 120.808,112.936 116.657,102.915C112.506,92.894 105.477,84.329 96.459,78.303C87.44,72.277 76.837,69.061 65.991,69.061C51.446,69.061 37.497,74.838 27.212,85.123C16.927,95.408 11.149,109.357 11.149,123.902ZM40.383,123.902C40.38,118.833 41.881,113.876 44.695,109.66C47.509,105.444 51.511,102.157 56.194,100.216C60.876,98.275 66.03,97.766 71.001,98.754C75.973,99.742 80.54,102.183 84.125,105.767C87.709,109.352 90.15,113.919 91.138,118.891C92.126,123.863 91.618,129.016 89.676,133.699C87.735,138.382 84.448,142.383 80.232,145.198C76.016,148.012 71.06,149.512 65.991,149.509C59.199,149.509 52.686,146.811 47.883,142.009C43.081,137.207 40.383,130.693 40.383,123.902Z" fill="#EBEBEB"/>
<path d="M55.446,71.335L76.536,71.335L75.375,56.416L56.623,56.416L55.446,71.335Z" fill="#EBEBEB"/>
<path d="M95.59,78.445L110.51,93.364L120.243,81.976L106.979,68.711L95.59,78.445Z" fill="#EBEBEB"/>
<path d="M118.955,111.846L118.955,132.936L133.89,131.775L133.89,113.023L118.955,111.846Z" fill="#EBEBEB"/>
<path d="M111.845,151.99L96.942,166.909L108.314,176.643L121.579,163.378L111.845,151.99Z" fill="#EBEBEB"/>
<path d="M78.445,175.355L57.354,175.355L58.515,190.29L77.268,190.29L78.445,175.355Z" fill="#EBEBEB"/>
<path d="M38.3,168.246L23.381,153.343L13.647,164.715L26.912,177.98L38.3,168.246Z" fill="#EBEBEB"/>
<path d="M14.935,134.845L14.935,113.755L0,114.916L0,133.668L14.935,134.845Z" fill="#EBEBEB"/>
<path d="M22.045,94.7L36.948,79.781L25.576,70.047L12.311,83.312L22.045,94.7Z" fill="#EBEBEB"/>
<path d="M588.763,188.016C579.22,188.175 554.965,188.573 545.676,188.668L531.155,188.748L530.439,188.748L530.439,188.016L530.439,170.218L530.439,169.423L531.234,169.423L560.039,169.534C567.212,169.534 581.67,169.741 588.843,169.852L589.225,169.852L589.225,170.218L588.859,188.016L588.763,188.016ZM588.763,188.016L588.398,170.218L588.763,170.584C581.574,170.695 567.148,170.838 559.959,170.902L531.155,171.013L531.95,170.218L531.95,188.016L531.218,187.284L545.533,187.284C554.663,187.396 579.411,187.793 588.859,187.952L588.763,188.016Z" fill="#EBEBEB"/>
<path d="M556.635,210.49C547.092,210.649 522.821,211.046 513.548,211.142L499.027,211.221L498.295,211.221L498.295,210.49L498.295,192.692L498.295,191.896L499.09,191.896L527.895,192.008C535.052,192.008 549.526,192.215 556.699,192.326L557.065,192.326L557.065,192.692L556.635,210.49ZM556.635,210.49L556.254,192.692L556.635,193.058C549.446,193.169 535.004,193.312 527.831,193.376L499.027,193.487L499.822,192.692L499.742,210.49L499.027,209.758L513.341,209.758C522.471,209.869 547.235,210.267 556.683,210.426L556.635,210.49Z" fill="#EBEBEB"/>
<path d="M620.892,192.66L563.284,192.66L563.284,210.458L620.892,210.458L620.892,192.66Z" fill="#EBEBEB"/>
<path d="M378.29,339.322C368.746,339.481 344.475,339.878 335.202,339.974L320.681,340.053L319.949,340.053L319.949,339.322L319.949,321.524L319.949,320.729L320.745,320.729L349.549,320.84C356.722,320.84 371.18,321.047 378.353,321.158L378.719,321.158L378.719,321.524L378.29,339.322ZM378.29,339.322L377.908,321.524L378.29,321.89C371.1,322.001 356.658,322.144 349.485,322.208L320.681,322.319L321.476,321.524L321.317,339.322L320.601,338.59L334.916,338.67C344.046,338.765 368.81,339.163 378.258,339.322L378.29,339.322Z" fill="#EBEBEB"/>
<path d="M976.963,42.865C967.42,43.024 943.164,43.422 933.876,43.533L919.354,43.533L918.638,43.533L918.638,42.801L918.638,25.003L918.638,24.208L919.434,24.208L948.238,24.319C955.411,24.319 969.869,24.542 977.042,24.637L977.424,24.637L977.424,25.003L977.058,42.801L976.963,42.865ZM976.963,42.865L976.597,25.067L976.963,25.449C969.774,25.544 955.348,25.703 948.158,25.751L919.354,25.862L920.149,25.067L920.149,42.865L919.418,42.149L933.732,42.149C942.862,42.245 967.611,42.642 977.058,42.801L976.963,42.865Z" fill="#EBEBEB"/>
<path d="M1009.091,47.509L951.482,47.509L951.482,65.307L1009.091,65.307L1009.091,47.509Z" fill="#EBEBEB"/>
<path d="M62.762,42.88C53.219,43.055 28.947,43.453 19.675,43.548L5.153,43.548L4.422,43.548L4.422,42.817L4.422,25.035L4.422,24.224L5.217,24.224L33.958,24.399C41.115,24.399 55.589,24.621 62.762,24.717L63.128,24.717L63.128,25.083L62.762,42.865L62.762,42.88ZM62.762,42.88L62.38,25.098L62.762,25.464C55.573,25.56 41.131,25.719 33.958,25.782L5.153,25.878L5.949,25.098L5.949,42.88L5.233,42.165L19.547,42.165C28.677,42.26 53.441,42.674 62.889,42.817L62.762,42.88Z" fill="#EBEBEB"/>
<path d="M37.281,576.517C46.825,576.358 71.382,575.96 80.607,575.849L94.922,575.849L94.19,576.58L94.19,558.782L94.986,559.578L66.181,559.466C59.008,559.466 44.55,559.244 37.377,559.148L37.743,558.782L37.377,576.58L37.281,576.517ZM37.281,576.517L36.916,558.719L36.916,558.353L37.297,558.353C44.487,558.273 58.913,558.098 66.102,558.051L94.906,557.939L95.701,557.939L95.701,558.735L95.701,576.533L95.701,577.264L94.986,577.264L80.464,577.264C71.287,577.169 46.856,576.771 37.377,576.612L37.281,576.517Z" fill="#EBEBEB"/>
<path d="M62.746,581.145L5.137,581.145L5.137,598.943L62.746,598.943L62.746,581.145Z" transform="rotate(360 33.942 590.044)" fill="#EBEBEB"/>
<path d="M951.482,576.533C961.025,576.374 985.583,575.976 994.824,575.865L1009.138,575.865L1008.423,576.596L1008.423,558.798L1009.218,559.594L980.414,559.482C973.24,559.482 958.783,559.26 951.609,559.164L951.991,558.798L951.609,576.596L951.482,576.533ZM951.482,576.533L951.116,558.814L951.116,558.448L951.482,558.448C958.671,558.353 973.113,558.178 980.286,558.13L1009.091,558.019L1009.886,558.019L1009.886,558.814L1009.886,576.612L1009.886,577.344L1009.154,577.344L994.633,577.264C985.456,577.169 961.025,576.771 951.546,576.612L951.482,576.533Z" fill="#EBEBEB"/>
<path d="M975.849,599.484L797.504,599.484L797.504,683.098L975.849,683.098L975.849,599.484Z" fill="#EBEBEB"/>
<g opacity="0.1">
<path d="M975.865,599.484L916.809,599.484L916.809,683.098L975.865,683.098L975.865,599.484Z" fill="#020100"/>
</g>
<g opacity="0.1">
<path d="M975.849,599.484L797.504,599.484L797.504,617.854L975.849,608.677L975.849,599.484Z" fill="#020100"/>
</g>
<path d="M983.579,583.626L789.758,583.626L789.758,604.589L983.579,604.589L983.579,583.626Z" fill="#EBEBEB"/>
<g opacity="0.1">
<path d="M983.595,583.626L919.417,583.626L919.417,604.589L983.595,604.589L983.595,583.626Z" fill="#020100"/>
</g>
<path d="M877.825,615.898L836.487,615.898L836.487,628.718L877.825,628.718L877.825,615.898Z" fill="#A6A6A6"/>
<path d="M896.387,488.163L781.694,488.163L781.694,571.3L896.387,571.3L896.387,488.163Z" fill="#EBEBEB"/>
<path d="M822.22,479.543L781.694,479.543L781.694,488.164L824.543,488.164L822.22,479.543Z" fill="#EBEBEB"/>
<g opacity="0.3">
<path d="M896.387,488.163L781.694,488.163L781.694,571.3L896.387,571.3L896.387,488.163Z" fill="#000000"/>
<path d="M822.22,479.543L781.694,479.543L781.694,488.164L824.543,488.164L822.22,479.543Z" fill="#000000"/>
</g>
<path d="M818.816,482.915L785.67,482.915L785.67,487.925L818.816,487.925L818.816,482.915Z" fill="#FFFFFF"/>
<path d="M896.387,571.3L781.694,571.3L780.867,493.317L895.56,493.317L896.387,571.3Z" fill="#EBEBEB"/>
<path d="M821.298,485.412L780.771,485.412L780.867,493.317L823.716,493.317L821.298,485.412Z" fill="#EBEBEB"/>
<g opacity="0.1">
<path d="M896.387,571.299L781.694,571.299L780.867,493.316L895.56,493.316L896.387,571.299Z" fill="#000000"/>
<path d="M821.298,485.412L780.771,485.412L780.867,493.317L823.716,493.317L821.298,485.412Z" fill="#000000"/>
</g>
<path d="M881.611,494.43L766.918,494.43L766.918,577.567L881.611,577.567L881.611,494.43Z" fill="#EBEBEB"/>
<path d="M807.444,485.81L766.918,485.81L766.918,494.43L809.767,494.43L807.444,485.81Z" fill="#EBEBEB"/>
<g opacity="0.2">
<path d="M881.61,494.43L766.918,494.43L766.918,577.567L881.61,577.567L881.61,494.43Z" fill="#FFFFFF"/>
<path d="M807.444,485.81L766.918,485.81L766.918,494.43L809.767,494.43L807.444,485.81Z" fill="#FFFFFF"/>
</g>
<path d="M804.041,489.182L770.895,489.182L770.895,494.192L804.041,494.192L804.041,489.182Z" fill="#FFFFFF"/>
<path d="M881.611,577.566L766.918,577.566L766.075,499.583L880.768,499.583L881.611,577.566Z" fill="#EBEBEB"/>
<path d="M806.522,491.678L765.995,491.678L766.075,499.583L808.924,499.583L806.522,491.678Z" fill="#EBEBEB"/>
<g opacity="0.4">
<path d="M881.611,577.566L766.919,577.566L766.076,499.583L880.768,499.583L881.611,577.566Z" fill="#FFFFFF"/>
<path d="M806.522,491.678L765.995,491.678L766.075,499.583L808.924,499.583L806.522,491.678Z" fill="#FFFFFF"/>
</g>
<path d="M940.444,500.028L762.099,500.028L762.099,583.642L940.444,583.642L940.444,500.028Z" fill="#DBDBDB"/>
<path d="M940.46,500.028L881.404,500.028L881.404,583.642L940.46,583.642L940.46,500.028Z" fill="#C7C7C7"/>
<g opacity="0.1">
<path d="M940.46,500.028L762.099,500.028L762.099,518.399L940.46,509.206L940.46,500.028Z" fill="#020100"/>
</g>
<path d="M842.42,516.427L801.082,516.427L801.082,529.246L842.42,529.246L842.42,516.427Z" fill="#A6A6A6"/>
<path d="M973.879,475.431L780.398,475.431L780.398,496.357L973.879,496.357L973.879,475.431Z" transform="rotate(21.944 877.139 485.894)" fill="#DBDBDB"/>
<path d="M977.183,485.449L913.005,485.449L913.005,506.412L977.183,506.412L977.183,485.449Z" transform="rotate(21.5 945.094 495.93)" fill="#C7C7C7"/>
<path d="M535.719,73.228L485.253,171.824L471.049,149.843L302.756,258.651L271.009,209.551L439.286,100.76L425.083,78.794L535.719,73.228Z" fill="#EBEBEB"/>
<path d="M207.531,250.604L239.262,299.703L235,302.455L203.237,253.355L207.531,250.604Z" fill="#EBEBEB"/>
<path d="M229.767,236.225L261.513,285.308L246.976,294.724L215.245,245.625L229.767,236.225Z" fill="#EBEBEB"/>
<path d="M261.084,215.978L292.831,265.061L270.389,279.583L238.642,230.467L261.084,215.978Z" fill="#EBEBEB"/>
<path d="M260.384,358.17L231.23,415.079L223.039,402.402L125.938,465.18L107.615,436.853L204.732,374.059L196.541,361.383L260.384,358.17Z" fill="#DBDBDB"/>
<path d="M101.889,440.559L120.195,468.886L107.249,477.268L88.926,448.925L101.889,440.559Z" fill="#DBDBDB"/>
<path d="M92.345,452.796L82.371,452.796L82.371,486.499L92.345,486.499L92.345,452.796Z" transform="rotate(-65.47 87.358 469.647)" fill="#DBDBDB"/>
<path d="M70.969,460.536L89.292,488.879L86.826,490.469L68.504,462.126L70.969,460.536Z" fill="#DBDBDB"/>
<path d="M210.919,553.597C199.547,536.642 183.88,513.341 173.017,496.339L179.284,492.251C190.051,509.047 205.718,533.461 216.025,550.257L216.104,550.385L215.977,550.385L210.919,553.47L210.919,553.597ZM210.919,553.597L215.818,550.257L215.818,550.464C204.971,534.559 189.081,510.192 178.425,493.826L179.538,494.064L174.544,497.245L174.782,496.18C185.375,512.562 200.485,536.738 210.967,553.582L210.919,553.597Z" fill="#EBEBEB"/>
<path d="M559.96,287.551C559.132,288.584 502.096,401.909 501.412,402.816L501.014,402.195L484.504,376.747C487.686,376.349 289.205,503.321 289.984,503.401L289.364,503.799L288.95,503.179L252.113,446.173L251.7,445.537L252.336,445.14C252.495,445.664 448.957,317.277 447.652,319.759L431.206,294.31L430.809,293.69C431.429,293.69 559.26,287.694 559.96,287.63L559.96,287.551ZM559.96,287.551C559.96,287.137 429.711,295.503 431.906,293.769L448.432,319.218C449.529,320.029 253.322,445.744 253.163,446.348L253.386,445.315L290.207,502.303L289.173,502.081C289.825,502.207 484.95,374.838 485.268,376.19L501.73,401.718C499.138,403.309 560.58,287.376 559.96,287.519L559.96,287.551Z" fill="#EBEBEB"/>
<path d="M204.923,476.711C211.189,486.111 227.031,509.858 233.043,518.987L242.379,533.302L242.777,533.907L242.157,534.32L225.313,545.263L224.661,545.692L224.216,545.024C218.14,535.481 202.6,511.369 196.795,502.16L187.745,487.845L187.538,487.543L187.84,487.352L204.923,476.711ZM204.923,476.711L188.238,487.925L188.349,487.416L197.702,501.571C203.666,510.526 219.492,534.829 225.552,544.165L224.454,543.927L241.361,533.095L241.155,534.097L231.961,519.91C226.188,510.828 210.712,486.143 204.811,476.711L204.923,476.711Z" fill="#EBEBEB"/>
<path d="M241.203,453.203C252.336,469.967 267.876,493.157 278.643,509.826L279.025,510.414L278.437,510.796L252.432,527.703L251.764,528.149L251.334,527.465L232.995,498.835C226.777,489.292 220.701,479.494 214.545,469.824L241.203,453.124L241.203,453.203ZM241.203,453.203C234.84,457.529 221.846,466.134 215.42,470.428L215.547,469.808C221.75,479.256 228.033,488.672 234.172,498.167L252.638,526.606L251.541,526.367L277.641,509.603L277.435,510.589C266.874,494.159 251.732,470.015 241.171,453.203L241.203,453.203Z" fill="#EBEBEB"/>
<path d="M4.978,683.098C326.678,682.128 687.566,682.112 1009.266,683.098C687.566,684.084 326.678,684.068 4.978,683.098Z" fill="#263238"/>
<path d="M84.203,346.415C84.203,346.415 41.402,340.435 51.406,288.774C51.406,288.774 99.217,299.558 84.203,346.415Z" fill="#80BBFF"/>
<g opacity="0.1">
<path d="M84.203,346.415C84.203,346.415 41.402,340.435 51.406,288.774C51.406,288.774 99.217,299.558 84.203,346.415Z" fill="#000000"/>
</g>
<path d="M82.039,335.632C81.196,333.023 80.21,330.462 79.129,327.934C79.129,327.6 79.129,327.281 79.017,326.963C79.017,326.248 78.89,325.532 78.842,324.832C78.715,323.242 78.62,321.746 78.524,320.204C78.349,317.118 78.143,314.016 78.095,310.931C78.095,310.772 77.84,310.772 77.84,310.931C77.84,314.016 77.84,317.102 77.84,320.204C77.84,321.794 77.984,323.289 78.095,324.832C78.095,325.166 78.095,325.516 78.095,325.85C75.699,320.706 72.829,315.797 69.522,311.185C68.101,309.137 66.578,307.162 64.957,305.269C63.239,303.312 61.442,301.451 59.724,299.527C59.613,299.4 59.422,299.527 59.534,299.718C62.611,303.119 65.373,306.793 67.788,310.692C69.093,312.665 70.323,314.679 71.478,316.736L71.081,316.577C70.572,316.37 70.079,316.148 69.49,315.957L66.007,314.637C63.701,313.778 61.41,312.951 59.12,312.076C58.977,312.076 58.881,312.267 59.025,312.315C61.299,313.221 63.558,314.176 65.8,315.146L69.108,316.577L70.699,317.261C71.063,317.443 71.448,317.582 71.844,317.675C72.703,319.265 73.562,320.856 74.341,322.446C76.34,326.443 78.087,330.559 79.574,334.773C79.686,335.059 79.781,335.361 79.876,335.648C78.753,335 77.584,334.436 76.377,333.962L71.94,331.942C68.949,330.574 65.959,329.174 63.08,327.536C62.937,327.456 62.81,327.695 62.969,327.775C65.896,329.365 68.79,331.083 71.733,332.689C73.196,333.484 74.675,334.28 76.186,334.995C77.437,335.732 78.794,336.269 80.21,336.586C81.64,340.5 82.58,344.577 83.01,348.722C83.487,354.559 83.439,360.46 83.566,366.313C83.566,366.408 83.725,366.408 83.725,366.313C84.155,361.001 84.393,355.64 84.425,350.296C84.42,345.312 83.615,340.361 82.039,335.632Z" fill="#263238"/>
<path d="M75.455,305.252C75.042,308.271 74.898,311.321 75.025,314.366L75.152,314.366C75.327,311.344 75.359,308.322 75.709,305.316C75.725,305.157 75.47,305.093 75.455,305.252Z" fill="#263238"/>
<path d="M63.208,307.845C61.295,307.112 59.454,306.207 57.705,305.141C57.577,305.046 57.434,305.284 57.577,305.364C59.291,306.521 61.167,307.416 63.144,308.02C63.166,308.023 63.187,308.018 63.206,308.007C63.224,307.996 63.238,307.978 63.246,307.958C63.253,307.938 63.253,307.916 63.247,307.895C63.24,307.874 63.226,307.857 63.208,307.845Z" fill="#263238"/>
<path d="M85.634,428.391C85.634,423.619 85.507,418.927 85.459,414.203C85.364,398.489 85.236,382.791 84.95,367.092C84.728,354.622 84.436,342.153 84.075,329.683C84.071,329.651 84.06,329.621 84.044,329.594C84.027,329.566 84.006,329.543 83.98,329.524C83.98,326.12 83.98,322.717 83.98,319.313C83.98,319.313 83.885,319.186 83.773,319.186C83.662,319.186 83.566,319.186 83.566,319.329C83.566,322.732 83.566,326.141 83.566,329.556C83.54,329.569 83.517,329.59 83.5,329.615C83.483,329.64 83.473,329.669 83.471,329.699C82.851,351.966 82.278,374.075 82.151,396.278C82.151,400.779 82.151,405.296 82.151,409.814C82.002,424.266 81.949,438.735 81.992,453.219C81.992,455.525 81.992,457.816 81.992,460.122C81.992,473.371 82.119,486.604 82.135,499.885C82.135,500.601 82.914,500.951 83.725,500.982C84.537,501.014 85.714,500.648 85.714,499.837C85.714,485.236 85.809,470.635 85.809,456.034C85.634,446.841 85.634,437.632 85.634,428.391Z" fill="#263238"/>
<path d="M67.693,414.077C67.693,414.077 47.112,398.824 27.58,409.13C8.048,419.437 4.979,459.168 4.979,459.168C4.979,459.168 33.608,463.256 51.724,446.062C69.14,429.489 67.693,414.077 67.693,414.077Z" fill="#80BBFF"/>
<path d="M73.308,414.999C69.524,413.493 65.425,412.946 61.379,413.408C60.549,413.26 59.709,413.175 58.866,413.154L55.955,412.931L49.959,412.518C45.903,412.215 41.831,411.961 37.776,411.547C37.747,411.557 37.723,411.575 37.706,411.6C37.689,411.624 37.679,411.653 37.679,411.683C37.679,411.712 37.689,411.741 37.706,411.765C37.723,411.79 37.747,411.808 37.776,411.818C41.784,412.327 45.728,412.899 49.8,413.297C51.867,413.504 53.935,413.726 56.019,413.87L57.514,414.013C56.909,414.156 56.289,414.299 55.701,414.474C52.466,415.411 49.338,416.679 46.364,418.259C44.774,418.546 43.183,419.007 41.593,419.389C39.048,419.977 36.503,420.645 33.974,421.297C28.98,422.617 24.033,424.081 19.071,425.528C18.912,425.528 19.071,425.814 19.151,425.783C24.113,424.558 29.091,423.444 34.054,422.267L41.291,420.534L43.183,420.088C37.655,423.518 32.714,427.814 28.551,432.813C24.537,437.734 21.126,443.116 18.387,448.845C18.387,449.004 18.53,449.147 18.61,448.988C21.99,443.096 26.123,437.669 30.904,432.844C30.825,433.115 30.73,433.385 30.65,433.656C30.252,434.88 29.887,436.089 29.505,437.298C28.741,439.716 27.914,442.149 27.246,444.583C27.246,444.742 27.437,444.789 27.501,444.583C28.36,442.229 29.187,439.811 30.014,437.505L31.239,434.021L31.859,432.224L32.05,431.668C34.348,429.441 36.787,427.364 39.35,425.449C42.741,422.949 46.407,420.846 50.277,419.182C50.277,419.548 50.15,419.898 50.07,420.232C49.863,421.17 49.657,422.108 49.466,423.047C49.068,425.003 48.686,426.96 48.305,428.916C47.525,432.892 47.048,436.869 46.301,440.908C46.301,441.067 46.523,441.131 46.555,440.908C47.478,436.9 48.671,432.956 49.561,428.948C50.007,426.944 50.452,424.924 50.881,422.92L51.454,420.088C51.549,419.564 51.677,419.039 51.74,418.498L52.854,418.037C58.261,416.049 64.226,414.585 69.984,415.699C72.706,416.206 75.261,417.377 77.423,419.108C79.584,420.839 81.285,423.077 82.374,425.624C82.549,426.069 83.264,425.798 83.153,425.337C81.96,420.582 77.825,416.907 73.308,414.999Z" fill="#263238"/>
<path d="M41.799,431.97C41.206,434.578 40.628,437.187 40.066,439.795C39.409,442.293 38.926,444.833 38.618,447.398C38.618,447.509 38.762,447.509 38.793,447.398C39.543,444.889 40.128,442.333 40.543,439.747C41.052,437.171 41.545,434.594 42.054,432.017C42.086,431.874 41.831,431.811 41.799,431.97Z" fill="#263238"/>
<path d="M21.886,438.602C19.278,439.922 16.733,441.433 13.933,442.531C13.911,442.533 13.889,442.54 13.87,442.553C13.852,442.566 13.837,442.584 13.827,442.604C13.818,442.625 13.814,442.648 13.816,442.67C13.818,442.693 13.827,442.714 13.84,442.733C13.853,442.751 13.871,442.765 13.892,442.774C13.913,442.783 13.936,442.787 13.958,442.784C13.981,442.781 14.002,442.773 14.02,442.759C14.038,442.745 14.052,442.727 14.061,442.706C16.781,441.512 19.436,440.174 22.013,438.698C22.013,438.698 22.013,438.57 21.886,438.602Z" fill="#263238"/>
<path d="M72.322,386.051C72.322,386.051 47.175,387.641 35.469,371.068C23.763,354.495 26.387,330.796 26.387,330.796C26.387,330.796 52.822,333.977 63.303,345.922C73.785,357.866 72.322,386.051 72.322,386.051Z" fill="#80BBFF"/>
<path d="M84.139,410.896C83.264,408.208 82.183,405.552 81.165,402.943C80.147,400.335 79.145,397.901 77.984,395.42C75.735,390.348 73.219,385.4 70.444,380.596C68.679,377.542 66.77,374.568 64.814,371.642C64.814,371.196 64.687,370.751 64.607,370.306C64.496,369.526 64.385,368.715 64.257,367.967C64.019,366.377 63.732,364.786 63.462,363.196C62.889,359.729 62.174,356.277 61.617,352.794C61.617,352.635 61.331,352.635 61.363,352.794C61.872,356.214 62.206,359.665 62.699,363.1C62.921,364.786 63.144,366.488 63.398,368.174L63.685,369.987C59.853,364.376 55.7,358.991 51.247,353.86C50.642,353.16 50.022,352.476 49.418,351.792C49.418,351.601 49.259,351.41 49.179,351.219C48.988,350.742 48.813,350.265 48.638,349.788C48.257,348.786 47.907,347.784 47.541,346.782C46.841,344.809 46.205,342.821 45.664,340.801C45.664,340.642 45.378,340.706 45.426,340.801C45.919,342.853 46.459,344.921 47.016,346.957C47.318,347.943 47.636,348.913 47.986,349.883C47.986,350.042 48.098,350.201 48.161,350.376C44.98,346.861 41.592,343.489 38.205,340.149C38.179,340.126 38.146,340.114 38.112,340.115C38.077,340.117 38.045,340.132 38.022,340.157C37.998,340.183 37.986,340.216 37.988,340.25C37.989,340.285 38.004,340.317 38.03,340.34C44.531,347.141 50.487,354.443 55.843,362.178C55.234,361.98 54.612,361.82 53.983,361.701C52.042,361.319 50.102,361.049 48.145,360.81C44.042,360.285 39.954,359.76 35.867,359.124C35.707,359.124 35.644,359.347 35.867,359.379C39.763,360.142 43.628,360.969 47.509,361.908C49.338,362.321 51.167,362.687 52.996,363.053C54.497,363.372 55.974,363.792 57.418,364.309C57.832,364.882 58.245,365.454 58.643,366.043C60.488,368.731 62.269,371.483 64.003,374.234L61.426,373.741C59.486,373.359 57.545,373.009 55.589,372.691C51.756,372.055 47.907,371.387 44.121,370.528C44.088,370.528 44.055,370.542 44.031,370.565C44.008,370.589 43.994,370.622 43.994,370.655C43.994,370.689 44.008,370.722 44.031,370.745C44.055,370.769 44.088,370.783 44.121,370.783C47.97,371.689 51.772,372.739 55.589,373.757C57.434,374.25 59.295,374.695 61.156,375.109L63.955,375.713C64.325,375.812 64.703,375.876 65.084,375.904C68.764,381.874 72.205,387.966 75.407,394.179C76.807,396.915 78.159,399.677 79.463,402.466C80.815,405.329 81.96,408.239 83.2,411.134C83.423,411.755 84.33,411.516 84.139,410.896Z" fill="#263238"/>
<path d="M58.389,353.064C57.911,350.662 57.402,348.292 56.798,345.875C56.798,345.715 56.512,345.795 56.559,345.875C57.037,348.229 57.482,350.646 57.911,352.968C58.269,355.34 58.747,357.691 59.343,360.014C59.188,357.678 58.869,355.355 58.389,353.064Z" fill="#263238"/>
<path d="M43.708,352.364C42.547,351.775 41.306,351.314 40.098,350.773L38.189,350.025L37.219,349.644C36.846,349.533 36.489,349.378 36.153,349.182C35.962,349.039 35.835,349.373 36.026,349.405C36.403,349.501 36.767,349.645 37.107,349.835L38.062,350.264L39.891,351.075C41.101,351.641 42.344,352.134 43.613,352.554C43.756,352.666 43.851,352.427 43.708,352.364Z" fill="#263238"/>
<path d="M98.072,366.361C98.072,366.361 113.309,337.843 136.531,333.437C159.753,329.031 173.861,352.857 173.861,352.857C173.861,352.857 156.969,374.441 135.688,378.21C114.407,381.98 98.072,366.361 98.072,366.361Z" fill="#80BBFF"/>
<path d="M151.991,346.177C145.957,345.376 139.84,345.451 133.827,346.4L134.845,345.843L139.998,343.203C143.52,341.245 147.14,339.472 150.846,337.89C150.862,337.911 150.885,337.926 150.91,337.933C150.935,337.94 150.962,337.94 150.987,337.931C151.012,337.922 151.034,337.906 151.049,337.884C151.064,337.863 151.072,337.837 151.072,337.811C151.072,337.784 151.064,337.759 151.049,337.737C151.034,337.716 151.012,337.7 150.987,337.691C150.962,337.682 150.935,337.681 150.91,337.689C150.885,337.696 150.862,337.711 150.846,337.731C147.219,339.417 143.466,340.912 139.824,342.503C138.01,343.33 136.213,344.205 134.448,345.143C133.302,345.748 132.046,346.32 130.917,347.052C125.831,348.072 120.89,349.712 116.204,351.935L119.099,348.754C121.262,346.384 123.377,343.903 125.747,341.755C125.875,341.644 125.747,341.469 125.557,341.58C123.139,343.775 120.578,345.811 118.224,348.102C117.079,349.215 115.997,350.36 114.932,351.553C114.407,352.141 113.866,352.746 113.341,353.382C105.387,357.641 98.476,363.609 93.104,370.859C87.733,378.108 84.036,386.459 82.278,395.308C82.278,395.467 82.485,395.563 82.533,395.404C85.791,384.562 91.631,374.672 99.551,366.583C108.07,357.887 118.798,351.679 130.583,348.626C137.576,346.846 144.808,346.191 152.007,346.686C152.074,346.684 152.138,346.655 152.185,346.606C152.231,346.557 152.256,346.491 152.253,346.423C152.251,346.356 152.222,346.292 152.173,346.246C152.124,346.2 152.058,346.175 151.991,346.177Z" fill="#263238"/>
<g opacity="0.1">
<path d="M173.797,352.873C173.797,352.873 156.905,374.44 135.624,378.21C119.417,381.073 106.072,372.627 100.633,368.46L99.456,366.535C99.456,366.535 110.43,357.294 131.171,351.966C151.911,346.638 173.797,352.873 173.797,352.873Z" fill="#000000"/>
</g>
<path d="M138.535,336.045C136.755,337.078 135.035,338.209 133.381,339.433C131.775,340.656 130.284,342.024 128.928,343.521C128.903,343.546 128.888,343.581 128.888,343.616C128.888,343.652 128.903,343.686 128.928,343.712C128.953,343.737 128.988,343.751 129.023,343.751C129.059,343.751 129.094,343.737 129.119,343.712C130.709,342.376 132.204,341.04 133.795,339.783C135.348,338.511 136.978,337.337 138.678,336.268C138.707,336.249 138.728,336.219 138.736,336.185C138.743,336.151 138.737,336.115 138.718,336.085C138.699,336.056 138.669,336.035 138.634,336.027C138.6,336.02 138.564,336.026 138.535,336.045Z" fill="#263238"/>
<path d="M151.243,340.912C150.385,341.277 149.51,341.58 148.651,341.945L146.074,343.011C145.883,343.091 145.979,343.393 146.17,343.313L148.746,342.264C149.605,341.914 150.448,341.516 151.323,341.166C151.466,341.039 151.402,340.784 151.243,340.912Z" fill="#263238"/>
<path d="M95.034,402.068C95.034,402.068 99.106,430.284 120.323,440.145C141.541,450.007 167.387,440.145 167.387,440.145C167.387,440.145 157.208,379.085 95.034,402.068Z" fill="#80BBFF"/>
<path d="M152.77,421.79C150.814,421.567 148.873,421.233 146.933,420.883L144.086,420.343C143.609,420.247 143.1,420.136 142.591,420.056C142.034,419.516 141.461,418.975 140.873,418.466C136.856,414.929 132.516,411.776 127.91,409.05C125.398,407.569 122.801,406.236 120.132,405.058L120.53,405.058L127.512,405.36C132.173,405.583 136.817,405.678 141.477,405.98C141.652,405.98 141.636,405.726 141.477,405.726C136.801,405.408 132.157,404.899 127.497,404.485L120.705,403.881L117.206,403.579L116.315,403.483C115.106,403.038 113.882,402.608 112.657,402.227C106.872,400.243 100.651,399.902 94.684,401.24C89.356,402.608 84.028,406.092 82.644,411.722C82.644,411.913 82.898,412.056 82.978,411.865C84.966,407.094 90.183,404.787 94.891,403.817C98.038,403.213 101.265,403.148 104.434,403.626C104.661,405.078 105.023,406.505 105.516,407.889C106.104,409.877 106.677,411.865 107.281,413.837C108.49,417.798 109.81,421.79 110.987,425.703C111.001,425.73 111.024,425.751 111.052,425.762C111.08,425.774 111.111,425.775 111.14,425.765C111.169,425.756 111.194,425.736 111.209,425.71C111.225,425.684 111.231,425.653 111.225,425.623C110.239,421.663 109.412,417.671 108.458,413.71C107.997,411.754 107.504,409.813 107.011,407.873C106.747,406.509 106.39,405.165 105.945,403.849C107.802,404.184 109.639,404.619 111.448,405.153C114.701,406.125 117.889,407.304 120.991,408.684C121.293,410.688 121.755,412.676 122.216,414.664C122.789,417.162 123.441,419.627 124.22,422.06C124.229,422.085 124.245,422.106 124.267,422.121C124.288,422.135 124.313,422.143 124.339,422.143C124.365,422.143 124.391,422.135 124.412,422.121C124.433,422.106 124.45,422.085 124.459,422.06L124.363,421.599C123.886,419.293 123.377,416.987 122.9,414.68C122.502,412.819 122.136,410.959 121.739,409.098C124.379,410.291 126.956,411.579 129.469,413.026C129.469,413.599 129.66,414.187 129.739,414.712C129.898,415.682 130.073,416.637 130.248,417.607C130.646,419.786 131.075,421.949 131.6,424.096C132.56,428.26 133.776,432.361 135.242,436.375C135.227,436.399 135.218,436.426 135.218,436.455C135.218,436.483 135.227,436.511 135.242,436.534L135.354,436.677C135.449,436.773 135.592,436.677 135.576,436.534C134.59,432.351 133.477,428.216 132.554,424.017C132.093,421.917 131.632,419.834 131.218,417.655C130.996,416.605 130.805,415.555 130.614,414.474C130.614,414.171 130.503,413.853 130.455,413.535C133.316,415.208 136.077,417.046 138.726,419.038C143.327,422.471 147.588,426.338 151.45,430.586C151.593,430.745 151.895,430.586 151.752,430.331C150.177,428.186 148.488,426.126 146.694,424.16C145.628,423.015 144.531,421.917 143.402,420.836L143.752,420.836C144.738,421.011 145.74,421.154 146.742,421.297C148.698,421.551 150.67,421.742 152.627,421.965C152.881,422.029 152.945,421.822 152.77,421.79Z" fill="#263238"/>
<path d="M137.867,431.365C137.867,431.111 137.788,430.872 137.756,430.634C137.724,430.395 137.533,430.013 137.485,429.711C137.04,427.834 136.674,425.926 136.34,424.017C136.34,423.89 136.102,423.922 136.102,424.017C136.225,426.542 136.762,429.03 137.692,431.381C137.692,431.381 137.851,431.381 137.835,431.381L137.867,431.365Z" fill="#263238"/>
<path d="M120.117,430.904C120.113,430.873 120.098,430.844 120.074,430.824C120.051,430.803 120.021,430.792 119.99,430.792C119.385,428.295 118.813,425.798 118.304,423.269C118.033,421.949 117.763,420.629 117.508,419.309C117.365,418.593 117.238,417.877 117.111,417.162C117.055,416.531 116.9,415.914 116.649,415.332C116.64,415.308 116.624,415.287 116.603,415.272C116.581,415.257 116.556,415.25 116.53,415.25C116.504,415.25 116.479,415.257 116.458,415.272C116.436,415.287 116.42,415.308 116.411,415.332C116.393,416.615 116.575,417.892 116.952,419.118C117.206,420.502 117.477,421.87 117.779,423.237C118.399,426.021 119.083,428.804 119.878,431.54C119.878,431.683 120.165,431.651 120.149,431.54C120.133,431.429 120.133,431.11 120.117,430.904Z" fill="#263238"/>
<path d="M150.845,413.678C146.965,413.138 143.1,412.581 139.219,412.088C139.044,412.088 138.98,412.326 139.219,412.342C143.084,412.915 146.965,413.392 150.845,413.933C150.941,413.949 151.004,413.694 150.845,413.678Z" fill="#263238"/>
<path d="M84.171,335.902C84.171,335.902 71.192,278.962 132.379,255.915C132.379,255.915 149.334,330.876 84.171,335.902Z" fill="#80BBFF"/>
<path d="M97.372,303.615L98.04,303.202L101.492,301.277L108.586,297.301C113.262,294.692 117.874,291.973 122.566,289.348C122.725,289.348 122.566,289.046 122.439,289.126C117.667,291.686 112.896,294.072 108.124,296.585L101.11,300.291L98.247,301.882C100.283,298.017 102.478,294.215 104.864,290.557C108.045,285.69 111.56,281.014 115.218,276.497C115.377,276.29 115.107,276.02 114.916,276.21C109.549,281.428 104.799,287.245 100.76,293.547C100.76,293.356 100.76,293.15 100.76,292.959C100.76,291.543 100.856,290.128 100.887,288.712C100.887,285.929 100.792,283.145 100.887,280.362C100.887,280.203 100.633,280.203 100.633,280.362C100.506,283.097 100.188,285.817 100.029,288.553C100.029,289.921 99.885,291.289 99.854,292.641C99.854,293.388 99.758,294.231 99.854,295.042C98.581,297.046 97.372,299.077 96.227,301.134C94.183,304.845 92.361,308.674 90.772,312.602C90.772,311.186 90.613,309.771 90.533,308.355C90.358,305.174 89.976,302.136 89.833,299.003C89.833,298.844 89.579,298.844 89.579,299.003C89.579,302.184 89.579,305.238 89.579,308.355C89.579,309.946 89.674,311.536 89.786,313.031L89.881,314.781C87.937,319.864 86.394,325.091 85.268,330.416C84.211,336.109 83.447,341.853 82.978,347.625C82.978,347.625 82.978,347.625 83.058,347.625C83.674,342.427 84.738,337.292 86.239,332.276C86.986,329.589 87.829,326.916 88.656,324.324C91.201,323.115 93.635,321.62 96.1,320.252C98.565,318.884 101.221,317.469 103.766,316.053C108.872,313.254 113.977,310.407 119.242,307.941C119.385,307.941 119.242,307.639 119.099,307.719C113.771,310.136 108.395,312.49 103.194,315.051C100.585,316.371 98.009,317.771 95.464,319.202C93.348,320.395 91.169,321.588 89.102,322.972C89.69,321.206 90.31,319.441 90.994,317.691C92.881,312.894 95.009,308.196 97.372,303.615Z" fill="#263238"/>
<path d="M92.219,290.588C92.219,290.413 91.948,290.429 91.964,290.588C92.171,293.769 92.282,297.093 92.632,300.322C92.632,300.36 92.647,300.397 92.674,300.423C92.701,300.45 92.737,300.465 92.775,300.465C92.813,300.465 92.85,300.45 92.877,300.423C92.903,300.397 92.918,300.36 92.918,300.322C92.807,297.062 92.457,293.833 92.219,290.588Z" fill="#263238"/>
<path d="M121.548,301.467C117.731,303.058 113.866,304.473 110.049,306.064C109.937,306.064 110.049,306.286 110.049,306.239C113.93,304.791 117.731,303.217 121.58,301.706C121.787,301.658 121.707,301.404 121.548,301.467Z" fill="#263238"/>
<path d="M127.369,275.192C123.63,276.92 119.997,278.869 116.49,281.029C116.465,281.057 116.449,281.093 116.446,281.13C116.442,281.168 116.451,281.205 116.471,281.238C116.49,281.27 116.52,281.295 116.555,281.309C116.59,281.323 116.629,281.325 116.665,281.316C120.212,279.232 123.822,277.244 127.512,275.415C127.656,275.351 127.513,275.128 127.369,275.192Z" fill="#263238"/>
<path d="M126.447,459.056L38.205,459.056L38.205,552.07L126.447,552.07L126.447,459.056Z" fill="#455A64"/>
<path d="M36.646,491.964L32.129,491.964L32.129,683.098L36.646,683.098L36.646,491.964Z" fill="#263238"/>
<path d="M132.046,491.964L127.529,491.964L127.529,683.098L132.046,683.098L132.046,491.964Z" fill="#263238"/>
<path d="M86.747,491.964L82.23,491.964L82.23,683.098L86.747,683.098L86.747,491.964Z" fill="#263238"/>
<path d="M129.787,546.106L34.387,546.106L34.387,558.989L129.787,558.989L129.787,546.106Z" fill="#263238"/>
<path d="M116.681,682.431C169.709,673.587 307.798,644.735 347.005,625.505C564.429,520.721 668.291,157.892 669.579,154.345L844.631,154.345C843.327,157.812 822.699,217.202 735.379,382.999C681.397,481.515 603.269,547.189 511.115,601.139C352.841,693.723 116.681,682.431 116.681,682.431Z" fill="#80BBFF"/>
<g opacity="0.1">
<path d="M116.681,682.431C169.709,673.587 307.798,644.735 347.005,625.505C564.429,520.721 668.291,157.892 669.579,154.345L844.631,154.345C843.327,157.812 822.699,217.202 735.379,382.999C681.397,481.515 603.269,547.189 511.115,601.139C352.841,693.723 116.681,682.431 116.681,682.431Z" fill="#000000"/>
</g>
<path d="M628.909,136.165L669.579,154.345C668.465,157.303 614.277,436.503 448.497,570.521C332.165,664.553 257.713,686.629 4.979,682.875L4.979,633.759C147.601,633.759 249.347,629.147 342.169,580.717C551.657,471.431 628.591,136.976 628.909,136.165Z" fill="#80BBFF"/>
<path d="M628.909,136.165L817.576,136.165L844.631,154.345L669.578,154.345L628.909,136.165Z" fill="#80BBFF"/>
<path d="M772.613,19.262L895.29,174.385L606.164,173.606L772.613,19.262Z" fill="#80BBFF"/>
<g opacity="0.1">
<path d="M772.613,19.262L895.29,174.385L606.164,173.606L772.613,19.262Z" fill="#000000"/>
</g>
<path d="M606.164,173.606L564.111,154.344L730.559,0L772.613,19.261L606.164,173.606Z" fill="#80BBFF"/>
<path d="M916.428,136.005C915.692,143.067 913.007,149.786 908.674,155.411C904.341,161.036 898.529,165.345 891.888,167.858C885.247,170.371 878.038,170.988 871.067,169.641C864.095,168.294 857.636,165.035 852.409,160.229L833.18,163.044L842.723,146.471C840.526,141.077 839.588,135.253 839.98,129.441C840.371,123.63 842.083,117.985 844.984,112.934C847.885,107.884 851.899,103.561 856.722,100.295C861.544,97.029 867.048,94.905 872.814,94.085C878.58,93.265 884.458,93.77 889.999,95.562C895.541,97.355 900.601,100.387 904.795,104.428C908.989,108.47 912.207,113.414 914.203,118.886C916.199,124.358 916.922,130.212 916.316,136.005L916.428,136.005Z" fill="#FFFFFF"/>
<path d="M916.427,136.005C915.685,143.066 913.01,149.786 908.697,155.425C907.614,156.822 906.451,158.155 905.214,159.418C903.942,160.643 902.592,161.785 901.174,162.837C895.482,167.132 888.709,169.764 881.611,170.44C879.845,170.604 878.069,170.641 876.298,170.551C874.516,170.501 872.74,170.314 870.986,169.995C863.926,168.694 857.368,165.456 852.043,160.642L852.488,160.785L833.402,163.712L832.018,163.935L832.718,162.71L842.261,146.105L842.261,146.757C839.464,139.901 838.688,132.387 840.027,125.105C841.366,117.822 844.763,111.075 849.816,105.662C854.869,100.249 861.366,96.397 868.54,94.562C875.714,92.726 883.263,92.983 890.295,95.304C895.834,97.18 900.883,100.272 905.071,104.354C909.232,108.429 912.415,113.394 914.382,118.876C916.348,124.358 917.048,130.214 916.427,136.005ZM916.427,136.005C917.041,130.231 916.321,124.394 914.321,118.943C912.321,113.492 909.096,108.573 904.894,104.566C900.692,100.559 895.625,97.571 890.085,95.833C884.545,94.095 878.68,93.652 872.942,94.54C867.258,95.385 861.844,97.523 857.117,100.791C852.435,104.079 848.522,108.345 845.649,113.292C842.826,118.258 841.167,123.8 840.798,129.5C840.434,135.198 841.352,140.905 843.486,146.2L843.629,146.534L843.454,146.852L833.8,163.394L833.116,162.376L852.266,159.688L852.536,159.688L852.727,159.863C857.843,164.655 864.193,167.927 871.066,169.311C872.78,169.658 874.519,169.87 876.267,169.947C878.014,170.066 879.768,170.066 881.515,169.947C885.012,169.68 888.455,168.925 891.742,167.704C895.05,166.499 898.163,164.817 900.983,162.71C902.398,161.67 903.747,160.544 905.023,159.338C906.268,158.094 907.431,156.771 908.506,155.378C912.884,149.775 915.625,143.07 916.427,136.005Z" fill="#263238"/>
<path d="M872.895,153.898L856.528,137.341L862.015,131.902L871.574,141.588L891.44,110.445L897.961,114.612L872.895,153.898Z" fill="#80BBFF"/>
<path d="M656.202,683.574C659.797,684.735 762.21,683.415 766.075,680.886C767.555,679.948 768.238,664.981 768.541,646.944L768.541,646.372C768.541,642.65 758.997,580.206 758.997,580.206L690.494,580.89L702.375,646.499L702.375,647.612C702.375,647.612 663.407,665.665 659.431,668.894C655.454,672.122 652.607,682.429 656.202,683.574Z" fill="#FBC6BF"/>
<path d="M768.541,646.372L768.541,646.944C768.239,664.997 767.555,679.932 766.076,680.886C762.211,683.399 659.797,684.735 656.218,683.574C652.639,682.413 655.646,672.106 659.558,668.893C663.471,665.68 702.502,647.628 702.502,647.628L702.502,646.483L700.705,636.59L767.427,636.59C768.111,641.839 768.557,645.56 768.541,646.372Z" fill="#EBEBEB"/>
<path d="M656.202,683.574C658.047,684.162 685.865,684.099 713.063,683.574C718.535,683.463 723.974,683.335 729.159,683.192C748.548,682.667 764.58,681.856 766.059,680.886C767.539,679.916 768.207,665.442 768.509,647.708C768.509,647.453 768.509,647.215 768.509,646.96C768.509,646.706 768.509,646.562 768.509,646.372L768.429,646.372L702.423,646.499L702.423,647.628C702.423,647.628 663.455,665.665 659.479,668.893C655.502,672.122 652.607,682.429 656.202,683.574Z" fill="#80BBFF"/>
<path d="M657.316,679.598C674.573,678.946 744.238,678.007 761.352,678.627C761.495,678.627 761.495,678.739 761.352,678.739C744.254,679.757 674.589,680.17 657.316,679.868C656.95,679.868 656.95,679.598 657.316,679.598Z" fill="#263238"/>
<path d="M695.106,646.785C701.882,645.418 710.2,646.356 715.465,651.128C715.672,651.318 715.465,651.605 715.179,651.541C708.659,649.52 701.94,648.214 695.138,647.644C695.082,647.646 695.026,647.637 694.973,647.618C694.92,647.598 694.871,647.568 694.83,647.53C694.789,647.491 694.755,647.445 694.732,647.394C694.708,647.343 694.695,647.287 694.693,647.231C694.691,647.174 694.7,647.118 694.719,647.065C694.739,647.012 694.769,646.964 694.807,646.922C694.846,646.881 694.892,646.848 694.943,646.824C694.995,646.801 695.05,646.788 695.106,646.785Z" fill="#263238"/>
<path d="M690.239,649.791C697.015,648.439 705.349,649.378 710.598,654.149C710.805,654.34 710.598,654.627 710.312,654.547C703.794,652.543 697.081,651.237 690.287,650.65C690.173,650.657 690.061,650.617 689.976,650.541C689.891,650.465 689.84,650.359 689.834,650.245C689.827,650.131 689.867,650.019 689.943,649.934C690.019,649.849 690.125,649.798 690.239,649.791Z" fill="#263238"/>
<path d="M685.372,652.813C692.148,651.461 700.482,652.4 705.731,657.171C705.938,657.346 705.731,657.633 705.445,657.569C698.927,655.565 692.214,654.259 685.42,653.672C685.306,653.679 685.194,653.639 685.109,653.563C685.024,653.487 684.973,653.381 684.967,653.267C684.96,653.153 685,653.041 685.076,652.956C685.152,652.871 685.258,652.82 685.372,652.813Z" fill="#263238"/>
<path d="M695.107,646.292L770.704,646.292C770.704,646.292 747.403,493.602 747.992,490.612C748.278,489.021 853.873,330.398 853.873,330.398L775.189,330.398C775.189,330.398 686.438,443.882 676.45,472.464C669.197,493.3 695.107,646.292 695.107,646.292Z" fill="#263238"/>
<path d="M738.528,484.774C739.625,480.353 742.154,476.44 744.476,472.575C749.741,463.875 840.464,338.144 841.737,336.076C841.832,335.917 842.087,335.997 842.007,336.076C838.412,343.631 748.771,466.165 743.204,477.824C741.088,482.277 739.259,486.396 739.355,491.391C739.623,496.404 740.154,501.4 740.945,506.358C741.603,511.373 742.265,516.378 742.933,521.372C744.291,531.392 745.696,541.396 747.148,551.384C750.085,571.458 753.134,591.524 756.294,611.586C756.691,614.084 757.105,616.58 757.518,619.062C757.518,619.3 757.2,619.396 757.153,619.158C753.558,599.1 750.059,579.044 747.021,558.892C743.983,538.74 741.232,518.557 738.559,498.341C737.7,493.861 737.69,489.259 738.528,484.774Z" fill="#455A64"/>
<path d="M761.781,628.383C750.647,628.383 753.828,628.176 742.869,628.303C737.462,628.303 701.977,628.78 696.951,629.894C696.84,629.894 696.84,630.132 696.951,630.148C702.025,631.007 737.493,629.878 742.901,629.687C753.924,629.321 750.758,629.289 761.781,628.78C761.988,628.796 761.988,628.383 761.781,628.383Z" fill="#37474F"/>
<path d="M1007.867,682.588C1004.288,683.813 901.875,684.354 897.962,681.904C896.467,680.982 895.513,665.999 894.892,648.01C894.892,647.819 894.892,647.628 894.892,647.437C894.749,643.732 869.205,581.94 869.205,581.94L936.15,581.399L960.947,646.292L960.947,647.422C960.947,647.422 1000.249,664.742 1004.273,667.892C1008.297,671.041 1011.43,681.379 1007.867,682.588Z" fill="#FBC6BF"/>
<path d="M1007.866,682.588C1004.288,683.813 901.874,684.353 897.961,681.904C896.466,680.981 895.512,665.999 894.892,648.01C894.892,647.819 894.892,647.628 894.892,647.437C894.892,647.246 889.945,635.047 889.929,634.506L956.015,633.791L960.962,646.356L960.962,647.485C960.962,647.485 1000.264,664.806 1004.288,667.955C1008.312,671.104 1011.429,681.379 1007.866,682.588Z" fill="#EBEBEB"/>
<path d="M1007.867,682.588C1004.288,683.812 901.874,684.353 897.962,681.904C896.467,680.981 895.512,665.998 894.892,648.01C894.892,647.819 894.892,647.628 894.892,647.437L960.962,646.355L960.962,647.485C960.962,647.485 1000.264,664.806 1004.288,667.955C1008.312,671.104 1011.43,681.379 1007.867,682.588Z" fill="#80BBFF"/>
<path d="M1006.69,678.628C989.417,678.294 919.736,678.628 902.654,679.566C902.51,679.566 902.51,679.662 902.654,679.677C919.752,680.377 989.433,679.518 1006.69,678.898C1007.056,678.898 1007.056,678.628 1006.69,678.628Z" fill="#263238"/>
<path d="M968.374,646.499C961.582,645.274 953.28,646.356 948.111,651.271C947.904,651.461 948.111,651.748 948.397,651.684C954.878,649.545 961.57,648.111 968.358,647.406C968.478,647.408 968.594,647.362 968.681,647.278C968.767,647.195 968.817,647.081 968.819,646.96C968.822,646.84 968.776,646.724 968.692,646.637C968.609,646.551 968.494,646.501 968.374,646.499Z" fill="#263238"/>
<path d="M973.225,649.473C966.418,648.233 958.115,649.314 952.946,654.245C952.739,654.42 953.025,654.706 953.232,654.642C959.695,652.485 966.371,651.029 973.145,650.3C973.239,650.285 973.325,650.239 973.39,650.17C973.455,650.101 973.495,650.012 973.504,649.917C973.514,649.823 973.491,649.728 973.44,649.648C973.39,649.567 973.314,649.506 973.225,649.473Z" fill="#263238"/>
<path d="M978.14,652.368C971.333,651.127 963.03,652.225 957.861,657.14C957.67,657.33 957.94,657.601 958.163,657.537C964.638,655.402 971.326,653.973 978.108,653.275C978.228,653.279 978.345,653.235 978.433,653.153C978.521,653.071 978.573,652.957 978.577,652.837C978.581,652.717 978.538,652.6 978.456,652.512C978.374,652.424 978.26,652.372 978.14,652.368Z" fill="#263238"/>
<path d="M783.46,330.462C783.46,330.462 792.891,387.944 793.528,389.789C793.528,389.789 797.043,391.379 803.357,394.369L879.702,646.102L964.254,646.404L863.94,330.462L783.46,330.462Z" fill="#263238"/>
<path d="M790.458,388.007C797.795,391.068 804.852,394.762 811.548,399.045C811.594,399.082 811.626,399.133 811.638,399.19C811.651,399.247 811.644,399.306 811.617,399.358C811.591,399.411 811.548,399.452 811.495,399.476C811.442,399.5 811.382,399.505 811.326,399.491C804.216,396.023 797.011,392.699 790.029,388.85C789.933,388.785 789.865,388.687 789.837,388.574C789.808,388.462 789.822,388.344 789.874,388.241C789.927,388.137 790.015,388.057 790.122,388.014C790.23,387.971 790.349,387.969 790.458,388.007Z" fill="#455A64"/>
<path d="M793.178,355.084C794.339,361.955 794.975,368.937 795.755,375.872L796.327,380.866C796.368,382.399 796.777,383.899 797.52,385.24C799.015,387.562 801.687,388.644 804.121,389.71C804.391,389.821 804.28,390.266 803.978,390.171C801.366,389.544 798.953,388.269 796.964,386.465C794.753,384.127 794.816,380.58 794.482,377.574C793.516,370.125 792.985,362.626 792.892,355.116C792.86,354.941 793.146,354.893 793.178,355.084Z" fill="#455A64"/>
<path d="M801.544,357.183C801.783,362.145 802.34,367.108 802.753,372.039C802.96,374.488 803.135,376.921 803.278,379.371C803.421,381.82 803.723,384.397 803.644,386.894C803.644,387.053 803.373,387.101 803.342,386.894C802.928,384.54 802.88,382.123 802.674,379.705C802.467,377.287 802.308,374.695 802.165,372.182C801.878,367.187 801.751,362.145 801.29,357.151C801.369,357.024 801.528,357.04 801.544,357.183Z" fill="#455A64"/>
<path d="M812.344,404.931C818.197,419.246 880.736,623.787 881.42,625.567C881.42,625.711 881.245,625.791 881.181,625.663C872.815,609.297 819.437,424.733 814.093,410.355L812.089,405.01C812.057,404.883 812.28,404.788 812.344,404.931Z" fill="#455A64"/>
<path d="M879.098,631.978C881.547,631.644 884.076,631.644 886.542,631.469C889.007,631.294 891.488,631.262 893.969,631.198C898.932,631.087 903.894,631.023 908.857,630.96C918.697,630.854 928.547,630.801 938.408,630.801C944.023,630.801 949.653,631.103 955.268,631.23C955.29,631.223 955.313,631.22 955.335,631.224C955.358,631.227 955.379,631.236 955.398,631.249C955.417,631.262 955.432,631.279 955.442,631.3C955.453,631.32 955.458,631.343 955.458,631.365C955.458,631.388 955.453,631.411 955.442,631.431C955.432,631.451 955.417,631.469 955.398,631.482C955.379,631.495 955.358,631.504 955.335,631.507C955.313,631.51 955.29,631.508 955.268,631.501C950.321,631.707 945.359,632.01 940.397,632.2C935.434,632.391 930.488,632.407 925.525,632.487C915.521,632.63 905.532,632.789 895.544,632.757C892.761,632.757 889.993,632.757 887.21,632.662C884.426,632.566 881.738,632.662 879.066,632.264C878.891,632.2 878.955,631.978 879.098,631.978Z" fill="#455A64"/>
<path d="M811.612,245.687C795.85,232.422 772.978,201.407 768.938,189.589C763.721,174.368 756.612,122.787 762.179,117.3C765.264,114.278 801.401,122.072 803.166,126.398C804.932,130.724 802.212,175.322 802.514,178.758C802.816,182.193 816.829,215.578 824.957,231.611C834.436,250.363 821.887,254.339 811.612,245.687Z" fill="#FBC6BF"/>
<path d="M760.763,132.554C759.489,129.601 759.188,126.32 759.904,123.186C761.288,118.191 765.2,113.086 764.485,109.936C763.355,104.926 759.3,96.719 761.304,95.113C765.391,91.773 769.924,94.667 774.648,104.083C775.873,106.533 777.495,112.593 779.229,113.038C782.251,113.833 784,108.569 784.748,103.67C786.227,94.127 786.45,80.162 792.907,78.874C795.357,78.396 796.2,81.943 796.359,86.254C797.106,80.082 798.554,74.007 801.242,73.355C801.937,73.192 802.668,73.303 803.283,73.664C803.899,74.025 804.353,74.609 804.55,75.295C804.728,74.583 805.113,73.94 805.657,73.448C806.2,72.955 806.878,72.635 807.604,72.527C810.085,72.321 811.612,74.643 812.534,77.808C812.765,77.58 813.048,77.41 813.358,77.313C813.667,77.217 813.996,77.195 814.316,77.251C820.901,77.919 821.791,102.047 818.992,107.853C813.171,119.272 805.806,129.837 797.106,139.25C788.009,141.238 760.763,132.554 760.763,132.554Z" fill="#FBC6BF"/>
<path d="M793.019,113.881C795.29,110.045 796.68,105.754 797.09,101.315C797.52,96.099 796.534,90.882 796.438,85.681C796.438,85.537 796.215,85.553 796.215,85.681C796.39,88.225 796.215,90.802 796.359,93.347C796.502,95.892 796.549,98.357 796.359,100.854C796.195,105.39 794.998,109.829 792.859,113.833L793.019,113.881Z" fill="#263238"/>
<path d="M801.274,116.156C803.485,111.573 805.223,106.777 806.459,101.841C807.62,96.433 806.857,90.851 806.189,85.411C805.797,82.156 805.325,78.901 804.773,75.645C804.773,75.518 804.535,75.518 804.551,75.645C805.282,81.196 805.855,86.779 806.252,92.378C806.662,97.571 806.035,102.793 804.407,107.742C803.485,110.573 802.34,113.325 801.226,116.06C801.179,116.172 801.258,116.204 801.274,116.156Z" fill="#263238"/>
<path d="M809.879,116.441C812.089,112.163 814.046,108.488 814.65,103.606C815.187,97.998 815.021,92.345 814.157,86.778C813.744,83.772 813.235,80.797 812.678,77.807C812.678,77.696 812.439,77.807 812.455,77.807C813.56,84.479 814.23,91.216 814.459,97.975C814.619,101.189 814.281,104.408 813.457,107.518C812.479,110.562 811.25,113.52 809.783,116.362C809.783,116.362 809.863,116.457 809.879,116.441Z" fill="#263238"/>
<path d="M805.282,141.444L758.17,147.425C758.17,147.425 764.978,184.5 768.286,193.248C771.594,201.996 800.59,241.266 812.55,248.916C824.511,256.566 833.227,250.507 826.865,233.011C820.503,215.515 805.997,182.273 805.234,178.679C804.47,175.084 805.282,141.444 805.282,141.444Z" fill="#455A64"/>
<path d="M819.676,214.672L788.645,223.404C784.732,218.426 780.979,213.352 777.782,208.771L813.139,198.814C815.238,203.841 817.497,209.328 819.676,214.672Z" fill="#37474F"/>
<path d="M802.228,153.771C795.866,154.852 769.225,158.367 763.419,158.749C763.022,158.749 762.91,158.527 763.324,158.447C776.177,156.098 789.148,154.452 802.18,153.516C802.339,153.5 802.403,153.739 802.228,153.771Z" fill="#263238"/>
<g opacity="0.1">
<path d="M812.503,248.868C803.946,243.429 786.657,221.83 776.302,206.672L820.837,217.519C823.159,223.229 825.29,228.653 826.913,233.027C833.291,250.411 824.495,256.471 812.503,248.868Z" fill="#000000"/>
</g>
<path d="M870.334,352.443C870.334,352.443 758.377,350.36 758.17,350.137C757.964,349.914 773.089,253.115 788.04,226.076C793.655,215.897 813.202,216.645 820.535,222.355C838.873,236.622 870.636,345.938 870.334,352.443Z" fill="#455A64"/>
<path d="M866.58,336.14L760.699,334.55C761.304,331.035 762.004,327.058 762.783,322.748L863.193,324.195C864.481,328.617 865.626,332.625 866.58,336.14Z" fill="#37474F"/>
<path d="M868.569,343.711L759.459,342.12C759.65,340.975 759.856,339.703 760.095,338.351L867.599,339.941C867.949,341.277 868.283,342.502 868.569,343.711Z" fill="#37474F"/>
<path d="M792.239,234.522C797.138,236.112 811.596,228.16 815.095,220.509C815.334,219.984 814.173,214.704 813.059,208.214C812.407,204.286 811.755,199.88 811.469,195.824L786.482,203.856C788.302,208.823 789.509,213.993 790.076,219.253C790.133,219.808 790.133,220.367 790.076,220.923C790.076,221.002 790.076,221.098 790.076,221.209C789.71,224.406 786.593,232.756 792.239,234.522Z" fill="#FBC6BF"/>
<path d="M810.181,196.174C809.704,201.725 807,219.714 792.685,221.097C791.807,221.175 790.923,221.175 790.045,221.097C790.045,220.986 790.045,220.891 790.045,220.811C790.094,220.255 790.094,219.697 790.045,219.141C789.488,213.887 788.286,208.721 786.466,203.761L810.181,196.174Z" fill="#263238"/>
<path d="M821.33,174.75C821.633,184.213 810.197,208.151 802.419,212.079C791.285,217.789 776.271,214.544 772.295,201.852C768.43,189.541 783.937,158.606 792.256,155.377C804.55,150.637 820.917,160.801 821.33,174.75Z" fill="#FBC6BF"/>
<g opacity="0.3">
<path d="M813.744,197.765C810.165,204.509 805.918,210.378 802.435,212.079C791.206,217.789 776.271,214.545 772.294,201.852C770.911,197.431 772.008,190.607 774.394,183.514C775.746,188.492 782.601,186.822 782.601,186.822L785.496,187.951C786.864,193.852 795.898,195.904 801.401,194.456C805.393,193.454 810.372,186.583 810.372,186.583L813.744,197.765Z" fill="#263238"/>
</g>
<path d="M814.793,195.491C810.801,195.268 810.021,191.467 809.656,188.89C808.956,183.514 815.127,174.957 814.427,168.738C814.249,166.902 813.453,165.181 812.171,163.855C810.888,162.529 809.194,161.677 807.365,161.438C804.073,161.31 798.872,163.935 796.725,163.028C794.577,162.122 795.675,157.111 794.132,156.666C790.76,155.505 784.35,162.901 782.474,166.416C782.474,166.416 788.565,149.572 805.282,153.692C821.585,157.62 822.777,169.852 822.491,175.084C822.046,184.946 814.793,195.491 814.793,195.491Z" fill="#263238"/>
<path d="M792.001,183.101C792.001,183.101 792.001,183.244 792.001,183.307C791.158,184.898 790.41,186.822 791.635,188.079C791.635,188.079 791.635,188.19 791.635,188.158C789.981,187.029 790.935,184.453 792.001,183.101Z" fill="#263238"/>
<path d="M794.259,182.13C796.932,183.212 794.562,188.493 792.096,187.475C789.631,186.457 792.017,181.224 794.259,182.13Z" fill="#263238"/>
<path d="M782.999,178.679C782.999,178.679 782.824,178.679 782.808,178.774C782.124,180.365 781.058,182.21 779.34,182.082C779.34,182.082 779.34,182.082 779.34,182.178C781.233,182.75 782.617,180.381 782.999,178.679Z" fill="#263238"/>
<path d="M782.283,176.341C779.738,174.973 777.177,180.142 779.531,181.414C781.885,182.687 784.43,177.486 782.283,176.341Z" fill="#263238"/>
<path d="M798.935,178.678C798.153,178.555 797.378,178.391 796.613,178.185C795.772,178.135 794.971,177.804 794.339,177.247C794.176,177.032 794.088,176.769 794.088,176.499C794.088,176.23 794.176,175.967 794.339,175.752C794.729,175.377 795.211,175.114 795.737,174.988C796.262,174.862 796.812,174.879 797.329,175.036C798.424,175.196 799.418,175.765 800.112,176.627C800.256,176.83 800.338,177.069 800.35,177.318C800.362,177.566 800.302,177.812 800.178,178.028C800.055,178.244 799.872,178.419 799.652,178.535C799.432,178.65 799.183,178.7 798.935,178.678Z" fill="#263238"/>
<path d="M781.297,172.857C782.012,173.188 782.745,173.48 783.492,173.732C784.223,174.154 785.073,174.322 785.909,174.209C786.164,174.122 786.384,173.953 786.533,173.729C786.683,173.505 786.754,173.237 786.736,172.968C786.622,172.442 786.368,171.957 786.001,171.562C785.635,171.168 785.169,170.879 784.653,170.726C783.66,170.249 782.524,170.163 781.472,170.487C781.231,170.568 781.019,170.718 780.864,170.918C780.708,171.119 780.615,171.361 780.596,171.614C780.577,171.867 780.634,172.12 780.758,172.341C780.883,172.563 781.07,172.742 781.297,172.857Z" fill="#263238"/>
<path d="M788.645,191.991C787.946,192.444 787.163,192.749 786.343,192.888C785.522,193.028 784.682,192.999 783.873,192.802C783.158,192.634 782.472,192.36 781.837,191.991C781.71,191.932 781.588,191.863 781.472,191.785L781.138,191.562C781.06,191.506 781.002,191.426 780.973,191.334C780.945,191.242 780.947,191.144 780.978,191.053L781.074,190.894L781.074,190.751C781.615,189.478 782.664,187.57 782.664,187.57C782.108,187.57 779.293,187.57 779.627,186.949C782.303,181.331 785.549,176.001 789.313,171.044C789.341,171.019 789.376,171.003 789.414,171C789.451,170.996 789.489,171.005 789.521,171.025C789.554,171.044 789.578,171.074 789.592,171.109C789.606,171.144 789.609,171.183 789.599,171.219C787.134,176.404 783.794,181.128 781.249,186.297C782.253,186.283 783.255,186.412 784.223,186.679C784.382,186.806 782.283,190.226 782.092,190.83C783.076,191.394 784.163,191.754 785.289,191.888C786.415,192.022 787.556,191.927 788.645,191.61C788.756,191.737 788.836,191.896 788.645,191.991Z" fill="#263238"/>
<path d="M782.839,191.689C783.138,192.88 783.734,193.975 784.573,194.87C785.044,195.356 785.656,195.679 786.323,195.793C787.77,196.032 788.343,194.855 788.565,193.725C788.681,193.123 788.718,192.508 788.677,191.896C786.759,192.45 784.714,192.378 782.839,191.689Z" fill="#263238"/>
<path d="M784.573,194.918C785.044,195.403 785.657,195.726 786.323,195.84C787.77,196.079 788.343,194.902 788.566,193.772C787.869,193.485 787.095,193.441 786.37,193.649C785.645,193.857 785.012,194.304 784.573,194.918Z" fill="#FF9CBD"/>
<path d="M789.663,191.943C788.041,190.824 786.929,189.107 786.572,187.168C786.214,185.23 786.639,183.23 787.755,181.605C788.538,180.452 789.629,179.543 790.904,178.982C792.179,178.42 793.587,178.228 794.966,178.429C796.345,178.629 797.639,179.213 798.702,180.114C799.765,181.015 800.553,182.197 800.975,183.525C801.398,184.852 801.439,186.272 801.094,187.622C800.748,188.972 800.03,190.197 799.021,191.158C798.012,192.119 796.753,192.777 795.388,193.056C794.023,193.336 792.607,193.225 791.301,192.738C790.727,192.537 790.177,192.27 789.663,191.943ZM788.566,182.161C787.834,183.205 787.429,184.443 787.401,185.718C787.373,186.992 787.724,188.247 788.41,189.322C789.095,190.397 790.084,191.244 791.252,191.756C792.419,192.269 793.712,192.424 794.967,192.201C796.223,191.978 797.384,191.387 798.303,190.504C799.223,189.621 799.859,188.485 800.133,187.239C800.406,185.994 800.304,184.696 799.839,183.509C799.374,182.322 798.567,181.299 797.52,180.571C797.085,180.262 796.609,180.016 796.105,179.839C794.778,179.358 793.331,179.325 791.984,179.744C790.637,180.164 789.464,181.013 788.645,182.161L788.566,182.161Z" fill="#263238"/>
<path d="M775.698,184.786C772.978,183.402 772.278,179.314 774.107,175.656C774.92,173.992 776.232,172.624 777.861,171.743C778.536,171.318 779.309,171.075 780.106,171.037C780.903,171 781.695,171.17 782.407,171.53C783.118,171.891 783.724,172.43 784.165,173.094C784.606,173.759 784.867,174.526 784.923,175.322C785.172,177.159 784.838,179.029 783.969,180.666C782.219,184.134 778.799,185.963 776.127,184.992L775.698,184.786ZM778.322,172.618C776.887,173.411 775.731,174.627 775.014,176.101C773.423,179.283 773.917,182.766 776.143,183.911C778.37,185.056 781.503,183.386 783.11,180.221C783.886,178.759 784.186,177.091 783.969,175.449C783.905,174.819 783.691,174.213 783.345,173.681C782.999,173.15 782.531,172.709 781.98,172.396L781.631,172.236C781.083,172.066 780.506,172.012 779.936,172.078C779.366,172.144 778.817,172.328 778.322,172.618Z" fill="#263238"/>
<path d="M787.579,182.48L788.502,182.098C787.929,180.73 786.179,178.424 783.73,179.33L784.064,180.269C786.259,179.442 787.531,182.352 787.579,182.48Z" fill="#263238"/>
<path d="M816.24,199.181L817.274,199.181C817.274,198.719 817.179,194.616 815.366,193.296C813.552,191.976 801.226,187.14 800.701,186.934L800.335,187.856C803.914,189.272 813.473,193.137 814.793,194.091C816.113,195.045 816.24,198.051 816.24,199.181Z" fill="#263238"/>
<path d="M808.701,190.559C808.701,190.559 816.749,184.118 819.835,187.219C822.92,190.321 815.206,200.818 810.419,201.168C809.807,201.252 809.184,201.212 808.588,201.05C807.993,200.887 807.436,200.606 806.951,200.222C806.467,199.839 806.065,199.362 805.77,198.819C805.475,198.276 805.292,197.68 805.234,197.065L808.701,190.559Z" fill="#FBC6BF"/>
<path d="M817.545,190.178C817.545,190.178 817.545,190.289 817.545,190.305C814.157,190.639 811.739,192.977 809.767,195.554C810.033,195.304 810.35,195.115 810.695,194.999C811.041,194.883 811.408,194.844 811.771,194.883C812.133,194.922 812.483,195.04 812.796,195.227C813.109,195.414 813.378,195.667 813.584,195.968C813.584,195.968 813.584,196.143 813.457,196.095C812.981,195.786 812.422,195.628 811.854,195.642C811.287,195.656 810.736,195.842 810.276,196.174C809.495,196.757 808.78,197.423 808.145,198.162C807.922,198.385 807.477,198.162 807.668,197.813C808.701,193.868 813.282,189.351 817.545,190.178Z" fill="#263238"/>
<path d="M796.263,253.019C774.521,248.884 732.102,230.37 725.485,225.535C711.616,215.419 683.273,165.668 685.722,157.667C687.042,153.262 724.817,151.655 728.666,154.693C732.515,157.731 749.343,195.029 751.49,198.066C753.637,201.104 796.359,229.67 805.759,237.83C822.682,252.59 810.419,255.723 796.263,253.019Z" fill="#FBC6BF"/>
<path d="M726.058,168.452C726.058,168.452 734.011,154.137 738.782,144.594C741.422,139.25 745.144,129.659 745.271,124.84C745.494,117.635 741.772,87.351 734.408,88.099C727.744,88.767 734.233,114.374 734.233,114.374C734.233,114.374 729.971,87.955 722.082,90.246C714.193,92.536 725.406,120.466 725.406,120.466C725.406,120.466 720.412,93.427 712.682,97.053C706.829,99.805 715.545,125.683 715.545,125.683C715.545,125.683 711.091,102.461 704.936,105.006C698.144,107.837 704.697,132.252 704.697,132.252C690.176,141.413 684.354,147.823 685.611,159.29C685.722,161.183 726.058,168.452 726.058,168.452Z" fill="#FBC6BF"/>
<path d="M736.953,125.587C736.555,122.406 736.189,119.225 735.521,116.235C734.853,113.244 734.074,110.095 733.136,107.089C731.966,103.151 730.366,99.353 728.364,95.765C731.545,102.381 734.042,113.372 734.726,116.441C735.41,119.511 736.221,122.549 736.889,125.619C736.857,125.698 736.953,125.666 736.953,125.587Z" fill="#263238"/>
<path d="M725.883,128.196C725.215,124.235 724.69,120.243 723.847,116.33C723.004,112.418 721.636,106.962 720.539,103.113C720.443,102.827 719.982,102.827 720.062,103.113C721.016,106.994 722.145,112.656 723.052,116.521C723.959,120.386 725.024,124.283 725.788,128.212C725.803,128.291 725.899,128.259 725.883,128.196Z" fill="#263238"/>
<path d="M716.785,132.14C715.913,126.036 714.41,120.04 712.3,114.246C712.204,113.96 712.061,114.151 712.141,114.453C713.731,120.386 715.051,125.014 716.594,132.172C716.594,132.283 716.801,132.267 716.785,132.14Z" fill="#263238"/>
<path d="M688.919,176.738L736.762,162.296C736.762,162.296 749.789,193.915 751.856,196.731C753.924,199.546 800.304,229.829 809.561,237.432C818.817,245.035 817.29,259.27 797.409,255.469C780.263,252.192 733.788,233.201 725.104,227.396C716.42,221.59 688.919,176.738 688.919,176.738Z" fill="#455A64"/>
<path d="M787.468,221.75L769.67,246.833C764.23,244.813 758.648,242.634 753.319,240.471L773.424,212.159C777.988,215.261 782.84,218.569 787.468,221.75Z" fill="#37474F"/>
<path d="M699.385,186.122C705.938,184.357 732.483,176.134 738.098,173.955C738.496,173.811 738.496,173.525 738.098,173.636C718.328,178.408 705.699,183.8 699.353,185.868C699.162,185.915 699.226,186.17 699.385,186.122Z" fill="#263238"/>
<path d="M772.088,247.691C779.917,249.443 787.548,251.985 794.864,255.278C787.034,253.526 779.403,250.984 772.088,247.691Z" fill="#263238"/>
<path d="M786.72,252.653C788.454,253.608 790.84,254.785 792.478,255.834C791.344,255.757 790.241,255.432 789.247,254.883C788.252,254.333 787.389,253.572 786.72,252.653Z" fill="#263238"/>
<path d="M809.56,237.432C805.098,235.199 801.035,232.243 797.536,228.685C801.999,230.917 806.063,233.873 809.56,237.432Z" fill="#263238"/>
</svg>
