<svg width="766" height="1262" viewBox="0 0 766 1262" fill="none" xmlns="http://www.w3.org/2000/svg" xmlns:xlink="http://www.w3.org/1999/xlink">
<g opacity="0.24" filter="url(#filter1_933)">
<path d="M757.624,512.287C776.29,674.957 755.444,843.221 699.586,980.727C643.728,1118.235 557.342,1213.945 459.094,1247.185C360.844,1280.425 258.618,1248.523 174.498,1158.373C90.378,1068.223 31.117,927.063 9.519,765.385C-12.08,603.705 5.718,434.491 59.066,294.295C112.414,154.098 197.03,54.174 294.634,16.111C392.24,-21.952 494.998,4.9 580.708,90.867C666.42,176.834 728.206,315.013 752.716,475.557L617.596,531.775C602.03,429.817 562.79,342.059 508.356,287.461C453.92,232.863 388.658,215.811 326.67,239.985C264.682,264.157 210.942,327.619 177.062,416.657C143.181,505.695 131.878,613.163 145.595,715.845C159.312,818.525 196.948,908.177 250.372,965.431C303.796,1022.685 368.72,1042.945 431.118,1021.835C493.516,1000.725 548.378,939.939 583.852,852.609C619.328,765.279 632.568,658.415 620.712,555.103L757.624,512.287Z" transform="rotate(-252.059 382.428 629.623)" fill="#FF725E"/>
</g>
<defs>
<filter id="filter1_933" x="-679.000413" y="-377.000564" width="1388.427941" height="1333.623472" filterUnits="userSpaceOnUse" color-interpolation-filters="sRGB">
<feFlood flood-opacity="0" result="BackgroundImageFix"/>
<feBlend mode="normal" in="SourceGraphic" in2="BackgroundImageFix" result="shape"/>
<feGaussianBlur stdDeviation="163.5" result="0foregroundblur"/>
</filter>
</defs>
</svg>
