<svg width="1154" height="1154" viewBox="0 0 1154 1154" fill="none" xmlns="http://www.w3.org/2000/svg" xmlns:xlink="http://www.w3.org/1999/xlink">
<g opacity="0.24" filter="url(#filter1_932)">
<path d="M1152.8,576.799C1152.8,454.911 1114.134,336.165 1042.366,237.645C970.596,139.127 869.426,65.915 753.408,28.542C637.392,-8.83 512.508,-8.435 396.73,29.669C280.952,67.774 180.245,141.625 109.1,240.595C37.955,339.565 0.041,458.553 0.811,580.439C1.581,702.325 40.997,820.825 113.387,918.887C185.777,1016.951 287.408,1089.523 403.66,1126.161C519.912,1162.799 644.788,1161.615 760.324,1122.779L576.8,576.799L1152.8,576.799Z" transform="rotate(281.054 576.8 576.799)" fill="#409AFF"/>
</g>
<defs>
<filter id="filter1_932" x="-561.000343" y="-561.000885" width="1464.799976" height="1464.799976" filterUnits="userSpaceOnUse" color-interpolation-filters="sRGB">
<feFlood flood-opacity="0" result="BackgroundImageFix"/>
<feBlend mode="normal" in="SourceGraphic" in2="BackgroundImageFix" result="shape"/>
<feGaussianBlur stdDeviation="163.5" result="0foregroundblur"/>
</filter>
</defs>
</svg>
