<svg width="1592" height="1076" viewBox="0 0 1592 1076" fill="none" xmlns="http://www.w3.org/2000/svg" xmlns:xlink="http://www.w3.org/1999/xlink">
<g style="mix-blend-mode:luminosity">
<path d="M1577.094,340.844C1562.432,334.358 1555.732,339.774 1550.412,334.358C1545.09,328.942 1565.072,315.191 1525.068,301.343C1525.068,301.343 1522.386,271.539 1467.72,270.469C1413.052,269.399 1427.714,300.273 1413.052,307.732C1398.39,315.191 1394.37,303.484 1379.708,310.975C1365.046,318.467 1371.584,333.32 1359.724,335.461C1348.758,337.407 1334.504,327.872 1320.938,331.829C1316.412,319.775 1310.142,308.184 1302.254,297.29C1252.746,229.412 1144.792,198.116 1060.272,179.014C791.28,118.271 726.216,267.421 559.492,349.568C392.768,431.717 196.803,356.054 101.602,415.047C6.401,474.039 -25.36,620.593 21.103,688.179C67.566,755.765 170.322,777.787 186.202,810.185C202.082,842.583 197.127,853.189 197.127,853.189L1444,853.189C1453.748,853.189 1479.498,811.515 1484.616,803.407C1513.37,757.323 1516.864,711.595 1466.38,676.181C1417.642,641.999 1333.366,620.497 1327.436,556.965C1321.506,493.433 1341.894,421.209 1328.126,356.768L1587.654,356.768C1587.654,356.768 1591.756,347.233 1577.094,340.844ZM550.964,710.265L213.576,710.265C213.576,710.265 222.918,704.947 230.918,700.537C238.92,696.125 252.242,700.537 258.902,700.537C265.564,700.537 265.564,694.049 280.266,686.721C294.968,679.391 310.93,690.969 322.912,688.829C334.892,686.689 328.272,671.803 342.934,664.343C357.596,656.885 361.618,668.591 376.28,661.101C390.942,653.609 376.28,622.735 430.946,623.805C485.614,624.875 488.294,654.711 488.294,654.711C528.3,668.527 508.278,682.375 513.638,687.693C519,693.013 525.62,687.693 540.322,694.179C555.024,700.665 550.964,710.265 550.964,710.265ZM1098.166,236.028L881.648,236.028C881.648,236.028 887.618,232.784 892.776,229.898C897.934,227.012 906.464,229.898 910.728,229.898C914.994,229.898 915.034,225.779 924.416,221.012C933.798,216.245 944.114,223.736 951.83,222.374C959.548,221.012 955.242,211.445 964.666,206.645C974.088,201.845 976.646,209.369 986.07,204.602C995.492,199.835 986.07,179.987 1021.16,180.668C1056.252,181.349 1057.958,200.483 1057.958,200.483C1083.626,209.369 1070.792,218.255 1074.204,221.693C1077.614,225.131 1081.92,221.693 1091.342,225.779C1100.766,229.866 1098.166,236.028 1098.166,236.028Z" fill="#98A1AB"/>
<path d="M699.817,70.402C685.115,63.916 678.453,69.332 673.133,63.916C667.813,58.5 687.795,44.749 647.789,30.901C647.789,30.901 645.109,1.097 590.441,0.027C535.773,-1.043 550.435,29.831 535.774,37.29C521.112,44.749 517.091,33.042 502.429,40.533C487.767,48.025 494.306,62.878 482.406,65.019C470.506,67.159 454.422,55.289 439.76,62.878C425.098,70.467 425.058,76.726 418.397,76.726C411.736,76.726 398.414,72.478 390.413,76.726C382.412,80.975 373.071,86.456 373.071,86.456L710.457,86.456C710.457,86.456 714.479,76.889 699.817,70.402Z" fill="#98A1AB"/>
<g opacity="0.7">
<path d="M1577.094,340.844C1562.432,334.358 1555.732,339.774 1550.412,334.358C1545.09,328.942 1565.072,315.191 1525.068,301.343C1525.068,301.343 1522.386,271.539 1467.72,270.469C1413.052,269.399 1427.714,300.273 1413.052,307.732C1398.39,315.191 1394.37,303.484 1379.708,310.975C1365.046,318.467 1371.584,333.32 1359.724,335.461C1348.758,337.407 1334.504,327.872 1320.938,331.829C1316.412,319.775 1310.142,308.184 1302.254,297.29C1252.746,229.412 1144.792,198.116 1060.272,179.014C791.28,118.271 726.216,267.421 559.492,349.568C392.768,431.717 196.803,356.054 101.602,415.047C6.401,474.039 -25.36,620.593 21.103,688.179C67.566,755.765 170.322,777.787 186.202,810.185C202.082,842.583 197.127,853.189 197.127,853.189L1444,853.189C1453.748,853.189 1479.498,811.515 1484.616,803.407C1513.37,757.323 1516.864,711.595 1466.38,676.181C1417.642,641.999 1333.366,620.497 1327.436,556.965C1321.506,493.433 1341.894,421.209 1328.126,356.768L1587.654,356.768C1587.654,356.768 1591.756,347.233 1577.094,340.844ZM550.964,710.265L213.576,710.265C213.576,710.265 222.918,704.947 230.918,700.537C238.92,696.125 252.242,700.537 258.902,700.537C265.564,700.537 265.564,694.049 280.266,686.721C294.968,679.391 310.93,690.969 322.912,688.829C334.892,686.689 328.272,671.803 342.934,664.343C357.596,656.885 361.618,668.591 376.28,661.101C390.942,653.609 376.28,622.735 430.946,623.805C485.614,624.875 488.294,654.711 488.294,654.711C528.3,668.527 508.278,682.375 513.638,687.693C519,693.013 525.62,687.693 540.322,694.179C555.024,700.665 550.964,710.265 550.964,710.265ZM1098.166,236.028L881.648,236.028C881.648,236.028 887.618,232.784 892.776,229.898C897.934,227.012 906.464,229.898 910.728,229.898C914.994,229.898 915.034,225.779 924.416,221.012C933.798,216.245 944.114,223.736 951.83,222.374C959.548,221.012 955.242,211.445 964.666,206.645C974.088,201.845 976.646,209.369 986.07,204.602C995.492,199.835 986.07,179.987 1021.16,180.668C1056.252,181.349 1057.958,200.483 1057.958,200.483C1083.626,209.369 1070.792,218.255 1074.204,221.693C1077.614,225.131 1081.92,221.693 1091.342,225.779C1100.766,229.866 1098.166,236.028 1098.166,236.028Z" fill="#FFFFFF"/>
<path d="M699.817,70.402C685.115,63.916 678.453,69.332 673.133,63.916C667.813,58.5 687.795,44.749 647.789,30.901C647.789,30.901 645.109,1.097 590.441,0.027C535.773,-1.043 550.435,29.831 535.774,37.29C521.112,44.749 517.091,33.042 502.429,40.533C487.767,48.025 494.306,62.878 482.406,65.019C470.506,67.159 454.422,55.289 439.76,62.878C425.098,70.467 425.058,76.726 418.397,76.726C411.736,76.726 398.414,72.478 390.413,76.726C382.412,80.975 373.071,86.456 373.071,86.456L710.457,86.456C710.457,86.456 714.479,76.888 699.817,70.402Z" fill="#FFFFFF"/>
</g>
<path d="M1552.36,643.846L1592.001,728.653L1564.992,728.653L1537.983,662.526L1552.36,643.846Z" fill="#FFFFFF" stroke="#2E353A" stroke-width="0.888" stroke-miterlimit="3.999327" stroke-linecap="round" stroke-linejoin="round"/>
<path d="M1573.967,853.253L1216.923,853.253L1216.923,707.573L1548.421,667.132L1573.967,723.367L1573.967,853.253Z" fill="#2E353A"/>
<path d="M1266.107,412.388L800.419,412.388L800.419,853.254L1266.107,853.254L1266.107,412.388Z" fill="#2E353A"/>
<path d="M771.745,448.028L751.925,427.532L1035.863,252.502L1314.601,424.354L1294.823,444.85L1035.863,285.192L771.745,448.028Z" fill="#2E353A"/>
<path d="M1180.898,412.388L715.21,412.388L715.21,853.254L1180.898,853.254L1180.898,412.388Z" fill="#FFFFFF" stroke="#2E353A" stroke-width="0.888" stroke-miterlimit="3.999327" stroke-linecap="round" stroke-linejoin="round"/>
<path d="M948.054,268.847L715.21,412.386L1180.898,412.386L948.054,268.847Z" fill="#FFFFFF" stroke="#2E353A" stroke-width="0.888" stroke-miterlimit="3.999327" stroke-linejoin="round"/>
<g style="mix-blend-mode:multiply">
<path d="M948.054,268.847L715.21,412.386L715.21,445.076L768.252,412.386L948.054,301.537L1127.896,412.386L1180.898,445.076L1180.898,412.386L948.054,268.847Z" fill="#80BBFF"/>
</g>
<path d="M1537.982,707.574L1180.898,707.574L1180.898,853.254L1537.982,853.254L1537.982,707.574Z" fill="#FFFFFF" stroke="#2E353A" stroke-width="0.888" stroke-miterlimit="3.999327" stroke-linecap="round" stroke-linejoin="round"/>
<path d="M1501.997,707.574L1216.923,707.574L1216.923,853.254L1501.997,853.254L1501.997,707.574Z" fill="#80BBFF" stroke="#2E353A" stroke-width="0.888" stroke-miterlimit="3.999327" stroke-linecap="round" stroke-linejoin="round"/>
<g style="mix-blend-mode:multiply">
<path d="M1537.982,707.574L1180.898,707.574L1180.898,738.805L1537.982,738.805L1537.982,707.574Z" fill="#80BBFF"/>
</g>
<line x1="1216.923" y1="749.332" x2="1501.958" y2="749.332" stroke="#2E353A" stroke-width="0.888" stroke-miterlimit="3.999327" stroke-linecap="round" stroke-linejoin="round"/>
<line x1="1216.923" y1="770.898" x2="1501.958" y2="770.898" stroke="#2E353A" stroke-width="0.888" stroke-miterlimit="3.999327" stroke-linecap="round" stroke-linejoin="round"/>
<line x1="1216.923" y1="792.466" x2="1501.958" y2="792.466" stroke="#2E353A" stroke-width="0.888" stroke-miterlimit="3.999327" stroke-linecap="round" stroke-linejoin="round"/>
<line x1="1216.923" y1="814.032" x2="1501.958" y2="814.032" stroke="#2E353A" stroke-width="0.888" stroke-miterlimit="3.999327" stroke-linecap="round" stroke-linejoin="round"/>
<line x1="1216.923" y1="835.599" x2="1501.958" y2="835.599" stroke="#2E353A" stroke-width="0.888" stroke-miterlimit="3.999327" stroke-linecap="round" stroke-linejoin="round"/>
<path d="M847.248,690.32L753.631,690.32L753.631,853.254L847.248,853.254L847.248,690.32Z" fill="#2E353A"/>
<path d="M990.05,690.32L896.433,690.32L896.433,803.407L990.05,803.407L990.05,690.32Z" fill="#FFFFFF" stroke="#2E353A" stroke-width="0.888" stroke-miterlimit="3.999327" stroke-linecap="round" stroke-linejoin="round"/>
<path d="M990.05,742.08L896.433,742.08L896.433,751.68L990.05,751.68L990.05,742.08Z" fill="#2E353A"/>
<path d="M949.273,690.32L937.251,690.32L937.251,803.407L949.273,803.407L949.273,690.32Z" fill="#2E353A"/>
<path d="M1161.687,690.32L1068.07,690.32L1068.07,803.407L1161.687,803.407L1161.687,690.32Z" fill="#FFFFFF" stroke="#2E353A" stroke-width="0.888" stroke-miterlimit="3.999327" stroke-linecap="round" stroke-linejoin="round"/>
<path d="M1161.687,742.08L1068.07,742.08L1068.07,751.68L1161.687,751.68L1161.687,742.08Z" fill="#2E353A"/>
<path d="M1120.91,690.32L1108.888,690.32L1108.888,803.407L1120.91,803.407L1120.91,690.32Z" fill="#2E353A"/>
<path d="M1041.062,690.32L1023.11,690.32L1023.11,853.254L1041.062,853.254L1041.062,690.32Z" fill="#FFFFFF" stroke="#2E353A" stroke-width="0.888" stroke-miterlimit="3.999327" stroke-linecap="round" stroke-linejoin="round"/>
<path d="M884.126,690.32L866.174,690.32L866.174,853.254L884.126,853.254L884.126,690.32Z" fill="#FFFFFF" stroke="#2E353A" stroke-width="0.888" stroke-miterlimit="3.999327" stroke-linecap="round" stroke-linejoin="round"/>
<path d="M1161.686,697.034L736.816,697.034L736.816,718.114L1161.686,718.114L1161.686,697.034Z" fill="#2E353A"/>
<path d="M1161.686,686.493L736.816,686.493L736.816,707.573L1161.686,707.573L1161.686,686.493Z" fill="#80BBFF" stroke="#2E353A" stroke-width="0.888" stroke-miterlimit="3.999327" stroke-linecap="round" stroke-linejoin="round"/>
<path d="M683.935,448.028L664.115,427.532L948.053,252.502L1226.791,424.354L1207.013,444.85L948.053,285.192L683.935,448.028Z" fill="#FFFFFF" stroke="#2E353A" stroke-width="0.888" stroke-miterlimit="3.999327" stroke-linejoin="round"/>
<path d="M1537.983,728.653L1145.401,728.653L1181.426,643.846L1552.361,643.846L1537.983,728.653Z" fill="#2E353A"/>
<path d="M1226.792,424.354L1307.21,424.354L1035.863,252.502L948.054,252.502L1226.792,424.354Z" fill="#2E353A"/>
<path d="M1207.014,444.851L1294.823,444.851L1314.602,424.354L1226.793,424.354L1207.014,444.851Z" fill="#2E353A"/>
<path d="M804.034,477.573L753.631,477.573L753.631,542.759L804.034,542.759L804.034,477.573Z" fill="#FFFFFF" stroke="#2E353A" stroke-width="0.888" stroke-miterlimit="3.999327" stroke-linecap="round" stroke-linejoin="round"/>
<path d="M804.034,510.167L753.631,510.167L753.631,542.76L804.034,542.76L804.034,510.167Z" fill="#2E353A"/>
<path d="M804.034,506.534L753.631,506.534L753.631,513.799L804.034,513.799L804.034,506.534Z" fill="#FFFFFF" stroke="#2E353A" stroke-width="0.888" stroke-miterlimit="3.999327" stroke-linecap="round" stroke-linejoin="round"/>
<path d="M804.034,571.493L753.631,571.493L753.631,636.679L804.034,636.679L804.034,571.493Z" fill="#FFFFFF" stroke="#2E353A" stroke-width="0.888" stroke-miterlimit="3.999327" stroke-linecap="round" stroke-linejoin="round"/>
<path d="M804.034,603.762L753.631,603.762L753.631,636.647L804.034,636.647L804.034,603.762Z" fill="#2E353A"/>
<path d="M1144.873,477.573L1094.47,477.573L1094.47,542.759L1144.873,542.759L1144.873,477.573Z" fill="#FFFFFF" stroke="#2E353A" stroke-width="0.888" stroke-miterlimit="3.999327" stroke-linecap="round" stroke-linejoin="round"/>
<path d="M1144.873,510.167L1094.47,510.167L1094.47,542.76L1144.873,542.76L1144.873,510.167Z" fill="#2E353A"/>
<path d="M1144.873,571.493L1094.47,571.493L1094.47,636.679L1144.873,636.679L1144.873,571.493Z" fill="#FFFFFF" stroke="#2E353A" stroke-width="0.888" stroke-miterlimit="3.999327" stroke-linecap="round" stroke-linejoin="round"/>
<path d="M1144.873,600.13L1094.47,600.13L1094.47,636.647L1144.873,636.647L1144.873,600.13Z" fill="#2E353A"/>
<path d="M968.443,477.573L918.04,477.573L918.04,542.759L968.443,542.759L968.443,477.573Z" fill="#FFFFFF" stroke="#2E353A" stroke-width="0.888" stroke-miterlimit="3.999327" stroke-linecap="round" stroke-linejoin="round"/>
<path d="M968.443,510.167L918.04,510.167L918.04,542.76L968.443,542.76L968.443,510.167Z" fill="#2E353A"/>
<path d="M968.443,571.493L918.04,571.493L918.04,636.679L968.443,636.679L968.443,571.493Z" fill="#FFFFFF" stroke="#2E353A" stroke-width="0.888" stroke-miterlimit="3.999327" stroke-linecap="round" stroke-linejoin="round"/>
<path d="M968.443,600.13L918.04,600.13L918.04,636.647L968.443,636.647L968.443,600.13Z" fill="#2E353A"/>
<path d="M968.443,506.534L918.04,506.534L918.04,513.799L968.443,513.799L968.443,506.534Z" fill="#FFFFFF" stroke="#2E353A" stroke-width="0.888" stroke-miterlimit="3.999327" stroke-linecap="round" stroke-linejoin="round"/>
<path d="M1144.873,506.534L1094.47,506.534L1094.47,513.799L1144.873,513.799L1144.873,506.534Z" fill="#FFFFFF" stroke="#2E353A" stroke-width="0.888" stroke-miterlimit="3.999327" stroke-linecap="round" stroke-linejoin="round"/>
<path d="M804.034,596.497L753.631,596.497L753.631,603.762L804.034,603.762L804.034,596.497Z" fill="#FFFFFF" stroke="#2E353A" stroke-width="0.888" stroke-miterlimit="3.999327" stroke-linecap="round" stroke-linejoin="round"/>
<path d="M968.443,596.497L918.04,596.497L918.04,603.762L968.443,603.762L968.443,596.497Z" fill="#FFFFFF" stroke="#2E353A" stroke-width="0.888" stroke-miterlimit="3.999327" stroke-linecap="round" stroke-linejoin="round"/>
<path d="M1144.873,596.497L1094.47,596.497L1094.47,603.762L1144.873,603.762L1144.873,596.497Z" fill="#FFFFFF" stroke="#2E353A" stroke-width="0.888" stroke-miterlimit="3.999327" stroke-linecap="round" stroke-linejoin="round"/>
<line x1="755.383" y1="432.04" x2="755.383" y2="448.029" stroke="#2E353A" stroke-width="0.888" stroke-miterlimit="3.999327" stroke-linecap="round" stroke-linejoin="round"/>
<line x1="791.408" y1="432.04" x2="791.408" y2="448.029" stroke="#2E353A" stroke-width="0.888" stroke-miterlimit="3.999327" stroke-linecap="round" stroke-linejoin="round"/>
<line x1="770.858" y1="448.028" x2="770.858" y2="464.017" stroke="#2E353A" stroke-width="0.888" stroke-miterlimit="3.999327" stroke-linecap="round" stroke-linejoin="round"/>
<line x1="812" y1="448.028" x2="812" y2="464.017" stroke="#2E353A" stroke-width="0.888" stroke-miterlimit="3.999327" stroke-linecap="round" stroke-linejoin="round"/>
<line x1="740.309" y1="447.141" x2="822.595" y2="447.141" stroke="#2E353A" stroke-width="0.888" stroke-miterlimit="3.999327" stroke-linecap="round" stroke-linejoin="round"/>
<line x1="755.383" y1="645.598" x2="755.383" y2="661.586" stroke="#2E353A" stroke-width="0.888" stroke-miterlimit="3.999327" stroke-linecap="round" stroke-linejoin="round"/>
<line x1="791.408" y1="645.598" x2="791.408" y2="661.586" stroke="#2E353A" stroke-width="0.888" stroke-miterlimit="3.999327" stroke-linecap="round" stroke-linejoin="round"/>
<line x1="770.858" y1="661.587" x2="770.858" y2="677.575" stroke="#2E353A" stroke-width="0.888" stroke-miterlimit="3.999327" stroke-linecap="round" stroke-linejoin="round"/>
<line x1="812" y1="661.587" x2="812" y2="677.575" stroke="#2E353A" stroke-width="0.888" stroke-miterlimit="3.999327" stroke-linecap="round" stroke-linejoin="round"/>
<line x1="740.309" y1="660.699" x2="822.595" y2="660.699" stroke="#2E353A" stroke-width="0.888" stroke-miterlimit="3.999327" stroke-linecap="round" stroke-linejoin="round"/>
<line x1="828.368" y1="494.146" x2="828.368" y2="510.166" stroke="#2E353A" stroke-width="0.888" stroke-miterlimit="3.999327" stroke-linecap="round" stroke-linejoin="round"/>
<line x1="864.394" y1="494.146" x2="864.394" y2="510.166" stroke="#2E353A" stroke-width="0.888" stroke-miterlimit="3.999327" stroke-linecap="round" stroke-linejoin="round"/>
<line x1="843.842" y1="510.167" x2="843.842" y2="526.155" stroke="#2E353A" stroke-width="0.888" stroke-miterlimit="3.999327" stroke-linecap="round" stroke-linejoin="round"/>
<line x1="884.985" y1="510.167" x2="884.985" y2="526.155" stroke="#2E353A" stroke-width="0.888" stroke-miterlimit="3.999327" stroke-linecap="round" stroke-linejoin="round"/>
<line x1="813.294" y1="509.279" x2="895.579" y2="509.279" stroke="#2E353A" stroke-width="0.888" stroke-miterlimit="3.999327" stroke-linecap="round" stroke-linejoin="round"/>
<line x1="829.255" y1="525.268" x2="895.579" y2="525.268" stroke="#2E353A" stroke-width="0.888" stroke-miterlimit="3.999327" stroke-linecap="round" stroke-linejoin="round"/>
<line x1="828.368" y1="526.739" x2="828.368" y2="542.728" stroke="#2E353A" stroke-width="0.888" stroke-miterlimit="3.999327" stroke-linecap="round" stroke-linejoin="round"/>
<line x1="864.394" y1="526.739" x2="864.394" y2="542.728" stroke="#2E353A" stroke-width="0.888" stroke-miterlimit="3.999327" stroke-linecap="round" stroke-linejoin="round"/>
<line x1="843.842" y1="542.728" x2="843.842" y2="558.716" stroke="#2E353A" stroke-width="0.888" stroke-miterlimit="3.999327" stroke-linecap="round" stroke-linejoin="round"/>
<line x1="884.985" y1="542.728" x2="884.985" y2="558.716" stroke="#2E353A" stroke-width="0.888" stroke-miterlimit="3.999327" stroke-linecap="round" stroke-linejoin="round"/>
<line x1="813.294" y1="541.84" x2="895.579" y2="541.84" stroke="#2E353A" stroke-width="0.888" stroke-miterlimit="3.999327" stroke-linecap="round" stroke-linejoin="round"/>
<line x1="1007.804" y1="600.842" x2="1007.804" y2="616.83" stroke="#2E353A" stroke-width="0.888" stroke-miterlimit="3.999327" stroke-linecap="round" stroke-linejoin="round"/>
<line x1="1043.83" y1="600.842" x2="1043.83" y2="616.83" stroke="#2E353A" stroke-width="0.888" stroke-miterlimit="3.999327" stroke-linecap="round" stroke-linejoin="round"/>
<line x1="1023.279" y1="616.831" x2="1023.279" y2="632.82" stroke="#2E353A" stroke-width="0.888" stroke-miterlimit="3.999327" stroke-linecap="round" stroke-linejoin="round"/>
<line x1="1064.421" y1="616.831" x2="1064.421" y2="632.82" stroke="#2E353A" stroke-width="0.888" stroke-miterlimit="3.999327" stroke-linecap="round" stroke-linejoin="round"/>
<line x1="992.73" y1="615.944" x2="1075.016" y2="615.944" stroke="#2E353A" stroke-width="0.888" stroke-miterlimit="3.999327" stroke-linecap="round" stroke-linejoin="round"/>
<line x1="1008.692" y1="631.933" x2="1075.016" y2="631.933" stroke="#2E353A" stroke-width="0.888" stroke-miterlimit="3.999327" stroke-linecap="round" stroke-linejoin="round"/>
<line x1="1007.804" y1="633.437" x2="1007.804" y2="649.425" stroke="#2E353A" stroke-width="0.888" stroke-miterlimit="3.999327" stroke-linecap="round" stroke-linejoin="round"/>
<line x1="1043.83" y1="633.437" x2="1043.83" y2="649.425" stroke="#2E353A" stroke-width="0.888" stroke-miterlimit="3.999327" stroke-linecap="round" stroke-linejoin="round"/>
<line x1="1023.279" y1="649.425" x2="1023.279" y2="665.413" stroke="#2E353A" stroke-width="0.888" stroke-miterlimit="3.999327" stroke-linecap="round" stroke-linejoin="round"/>
<line x1="1064.421" y1="649.425" x2="1064.421" y2="665.413" stroke="#2E353A" stroke-width="0.888" stroke-miterlimit="3.999327" stroke-linecap="round" stroke-linejoin="round"/>
<line x1="992.73" y1="648.537" x2="1075.016" y2="648.537" stroke="#2E353A" stroke-width="0.888" stroke-miterlimit="3.999327" stroke-linecap="round" stroke-linejoin="round"/>
<path d="M42.548,898.429C122.396,924.795 327.581,896.256 306.543,927C285.505,957.745 124.793,946.199 79.101,979.441C33.409,1012.683 241.275,1010.023 233.925,1020.109C226.573,1030.195 43.685,1037.103 55.707,1050.691L1288.039,1050.691C1290.029,1040.055 1275.855,1027.147 1252.705,1018.261C1069.207,1012.261 447.395,990.273 512.541,969.031C588.897,944.189 838.191,919.347 883.761,899.888C929.331,880.429 727.475,878.257 693.683,869.63C682.799,866.841 681.499,864.117 685.033,861.749L690.841,862.041L690.841,859.09C700.069,856.421 709.587,854.434 719.271,853.155L690.841,853.155L690.841,847.545L686.779,849.588L679.833,853.155L677.599,853.155C680.445,846.132 682.379,838.895 683.367,831.556C684.951,818.876 662.653,847.545 662.653,847.545C662.653,847.545 665.821,837.815 662.653,831.556C659.485,825.297 649.901,840.021 649.901,840.021C649.901,840.021 661.069,804.833 649.901,781.969C638.731,759.105 626.141,840.021 626.141,840.021C626.141,840.021 624.435,808.627 610.099,808.011C598.483,807.492 605.671,828.832 608.839,836.94C606.381,832.39 602.757,828.302 598.197,824.94C587.923,817.092 598.197,843.069 598.197,843.069C598.197,843.069 594.137,835.351 567.291,831.556C540.443,827.762 578.257,848.355 578.257,848.355C566.619,845.688 554.809,843.523 542.881,841.869C536.951,841.091 536.463,842.258 538.413,844.204L534.555,846.182L522.127,852.669C526.197,843.147 528.923,833.291 530.249,823.286C532.281,807.071 503.891,843.653 503.891,843.653C503.891,843.653 507.951,831.361 503.891,823.286C499.829,815.211 487.645,834.053 487.645,834.053C487.645,834.053 501.859,789.266 487.645,760.143C473.429,731.02 457.387,834.053 457.387,834.053C457.387,834.053 455.193,794.131 437.079,793.32C422.337,792.671 431.393,819.621 435.455,830.032C432.329,824.289 427.737,819.131 421.971,814.887C408.851,804.898 421.971,837.945 421.971,837.945C421.971,837.945 416.813,828.216 382.615,823.286C348.417,818.357 396.545,844.691 396.545,844.691C381.729,841.298 366.693,838.548 351.503,836.453C328.759,833.469 368.805,853.22 368.805,853.22L66.917,853.22C66.917,853.22 -37.22,872.095 42.548,898.429ZM539.753,845.501C543.829,848.383 548.189,850.996 552.791,853.317L539.753,853.317L539.753,845.501Z" fill="#2E353A"/>
<path d="M1027.74,902.352C981.602,919.411 867.027,937.313 867.027,937.313C848.791,939.291 873.485,957.939 1000.122,948.696L1216.842,853.252L801.556,853.252C815.447,858.96 914.384,872.127 970.676,872.127C1026.968,872.127 1073.878,885.261 1027.74,902.352Z" fill="#2E353A"/>
<path d="M1359.522,853.252L1441.401,853.252C1400.299,851.987 1359.522,853.252 1359.522,853.252Z" fill="#2E353A"/>
<path d="M1494.606,857.047L1300.102,957.129C1324.756,956.383 1350.546,955.896 1375.524,955.41C1483.275,953.334 1444.163,916.006 1451.474,902.839C1458.784,889.672 1519.95,891.845 1524.824,869.889C1526.204,863.663 1513.492,859.641 1494.606,857.047Z" fill="#2E353A"/>
<g opacity="0.3">
<path d="M42.548,898.429C122.396,924.795 327.581,896.256 306.543,927C285.505,957.745 124.793,946.199 79.101,979.441C33.409,1012.683 241.275,1010.023 233.925,1020.109C226.573,1030.195 43.685,1037.103 55.707,1050.691L1288.039,1050.691C1290.029,1040.055 1275.855,1027.147 1252.705,1018.261C1069.207,1012.261 447.395,990.273 512.541,969.031C588.897,944.189 838.191,919.347 883.761,899.888C929.331,880.429 727.475,878.257 693.683,869.63C682.799,866.841 681.499,864.117 685.033,861.749L690.841,862.041L690.841,859.09C700.069,856.421 709.587,854.434 719.271,853.155L690.841,853.155L690.841,847.545L686.779,849.588L679.833,853.155L677.599,853.155C680.445,846.132 682.379,838.895 683.367,831.556C684.951,818.876 662.653,847.545 662.653,847.545C662.653,847.545 665.821,837.815 662.653,831.556C659.485,825.297 649.901,840.021 649.901,840.021C649.901,840.021 661.069,804.833 649.901,781.969C638.731,759.105 626.141,840.021 626.141,840.021C626.141,840.021 624.435,808.627 610.099,808.011C598.483,807.492 605.671,828.832 608.839,836.94C606.381,832.39 602.757,828.302 598.197,824.94C587.923,817.092 598.197,843.069 598.197,843.069C598.197,843.069 594.137,835.351 567.291,831.556C540.443,827.762 578.257,848.355 578.257,848.355C566.619,845.688 554.809,843.523 542.881,841.869C536.951,841.091 536.463,842.258 538.413,844.204L534.555,846.182L522.127,852.669C526.197,843.147 528.923,833.291 530.249,823.286C532.281,807.071 503.891,843.653 503.891,843.653C503.891,843.653 507.951,831.361 503.891,823.286C499.829,815.211 487.645,834.053 487.645,834.053C487.645,834.053 501.859,789.266 487.645,760.143C473.429,731.02 457.387,834.053 457.387,834.053C457.387,834.053 455.193,794.131 437.079,793.32C422.337,792.671 431.393,819.621 435.455,830.032C432.329,824.289 427.737,819.131 421.971,814.887C408.851,804.898 421.971,837.945 421.971,837.945C421.971,837.945 416.813,828.216 382.615,823.286C348.417,818.357 396.545,844.691 396.545,844.691C381.729,841.298 366.693,838.548 351.503,836.453C328.759,833.469 368.805,853.22 368.805,853.22L66.917,853.22C66.917,853.22 -37.22,872.095 42.548,898.429ZM539.753,845.501C543.829,848.383 548.189,850.996 552.791,853.317L539.753,853.317L539.753,845.501Z" fill="#FFFFFF"/>
<path d="M1027.74,902.352C981.602,919.411 867.027,937.313 867.027,937.313C848.791,939.291 873.485,957.939 1000.122,948.696L1216.842,853.252L801.556,853.252C815.447,858.96 914.384,872.127 970.676,872.127C1026.968,872.127 1073.878,885.261 1027.74,902.352Z" fill="#FFFFFF"/>
<path d="M1359.522,853.252L1441.401,853.252C1400.299,851.987 1359.522,853.252 1359.522,853.252Z" fill="#FFFFFF"/>
<path d="M1494.606,857.047L1300.102,957.129C1324.756,956.383 1350.546,955.896 1375.524,955.41C1483.275,953.334 1444.163,916.006 1451.474,902.839C1458.784,889.672 1519.95,891.845 1524.824,869.889C1526.204,863.663 1513.492,859.641 1494.606,857.047Z" fill="#FFFFFF"/>
</g>
<path d="M303.741,307.797L303.741,569.385L780.273,569.385L780.273,307.797L303.741,307.797ZM348.012,339.936C345.409,339.936 342.865,339.32 340.701,338.165C338.537,337.01 336.85,335.369 335.854,333.449C334.858,331.529 334.597,329.417 335.105,327.378C335.613,325.34 336.866,323.468 338.707,321.998C340.547,320.529 342.892,319.528 345.444,319.123C347.997,318.717 350.643,318.925 353.047,319.721C355.452,320.516 357.507,321.863 358.953,323.591C360.399,325.319 361.171,327.35 361.171,329.428C361.171,332.215 359.784,334.888 357.316,336.858C354.849,338.829 351.502,339.936 348.012,339.936ZM735.557,339.936C732.955,339.936 730.411,339.32 728.247,338.165C726.083,337.01 724.395,335.369 723.399,333.449C722.403,331.529 722.143,329.417 722.651,327.378C723.159,325.34 724.411,323.468 726.253,321.998C728.093,320.529 730.437,319.528 732.989,319.123C735.543,318.717 738.189,318.925 740.593,319.721C742.997,320.516 745.053,321.863 746.499,323.591C747.945,325.319 748.717,327.35 748.717,329.428C748.705,332.212 747.315,334.88 744.851,336.849C742.385,338.818 739.043,339.927 735.557,339.936Z" fill="#80BBFF" stroke="#2E353A" stroke-width="1" stroke-miterlimit="10"/>
<path d="M748.717,329.428C748.717,331.507 747.945,333.538 746.499,335.266C745.053,336.994 742.997,338.341 740.593,339.136C738.189,339.932 735.543,340.14 732.991,339.734C730.437,339.329 728.093,338.328 726.253,336.859C724.413,335.389 723.159,333.517 722.651,331.478C722.143,329.44 722.403,327.327 723.399,325.407C724.395,323.487 726.083,321.846 728.247,320.692C730.411,319.537 732.955,318.921 735.557,318.921L348.011,318.921C350.614,318.921 353.158,319.537 355.322,320.692C357.486,321.846 359.173,323.487 360.169,325.407C361.165,327.327 361.425,329.44 360.918,331.478C360.41,333.517 359.157,335.389 357.316,336.859C355.476,338.328 353.131,339.329 350.578,339.734C348.026,340.14 345.38,339.932 342.975,339.136C340.571,338.341 338.516,336.994 337.07,335.266C335.624,333.538 334.852,331.507 334.852,329.428C334.852,326.642 336.238,323.969 338.706,321.999C341.174,320.028 344.521,318.921 348.011,318.921L317.469,318.921L317.469,554.953L762.039,554.953L762.039,318.921L735.557,318.921C739.047,318.921 742.395,320.028 744.863,321.999C747.331,323.969 748.717,326.642 748.717,329.428Z" fill="#2E353A"/>
<path d="M348.011,206.612C344.229,206.619 340.535,207.52 337.394,209.202C334.254,210.885 331.808,213.273 330.367,216.064C328.925,218.856 328.552,221.926 329.295,224.887C330.037,227.848 331.863,230.567 334.54,232.7C337.216,234.833 340.625,236.284 344.335,236.871C348.044,237.458 351.889,237.154 355.382,235.996C358.875,234.839 361.86,232.882 363.96,230.37C366.06,227.859 367.181,224.907 367.181,221.887C367.181,219.879 366.685,217.89 365.721,216.034C364.757,214.179 363.345,212.494 361.564,211.075C359.783,209.656 357.67,208.531 355.344,207.766C353.019,207 350.527,206.608 348.011,206.612ZM348.011,232.071C345.491,232.064 343.029,231.462 340.937,230.339C338.845,229.216 337.217,227.623 336.258,225.762C335.299,223.901 335.052,221.854 335.549,219.881C336.045,217.908 337.263,216.096 339.048,214.675C340.834,213.254 343.106,212.288 345.579,211.897C348.051,211.507 350.613,211.711 352.941,212.482C355.269,213.254 357.259,214.559 358.658,216.233C360.058,217.907 360.805,219.875 360.805,221.887C360.815,223.234 360.492,224.57 359.854,225.817C359.216,227.064 358.276,228.198 357.086,229.153C355.897,230.109 354.483,230.867 352.926,231.384C351.368,231.902 349.698,232.168 348.011,232.168L348.011,232.071Z" fill="#FFFFFF" stroke="#2E353A" stroke-width="0.917" stroke-miterlimit="3.999327" stroke-linecap="round" stroke-linejoin="round"/>
<path d="M348.011,243.291C344.217,243.291 340.509,244.19 337.356,245.873C334.203,247.557 331.746,249.949 330.296,252.748C328.846,255.547 328.469,258.627 329.212,261.597C329.955,264.567 331.785,267.294 334.47,269.434C337.155,271.573 340.574,273.029 344.296,273.616C348.017,274.203 351.873,273.895 355.375,272.731C358.877,271.568 361.868,269.601 363.97,267.079C366.071,264.558 367.189,261.595 367.181,258.566C367.181,256.557 366.685,254.568 365.721,252.713C364.757,250.858 363.344,249.172 361.563,247.754C359.783,246.335 357.669,245.21 355.344,244.444C353.018,243.679 350.526,243.287 348.011,243.291ZM348.011,268.782C345.48,268.782 343.007,268.183 340.903,267.06C338.799,265.938 337.159,264.342 336.191,262.475C335.222,260.609 334.969,258.555 335.463,256.573C335.956,254.591 337.175,252.771 338.964,251.342C340.753,249.914 343.033,248.941 345.515,248.547C347.996,248.152 350.569,248.355 352.906,249.128C355.244,249.901 357.242,251.211 358.648,252.89C360.054,254.57 360.804,256.546 360.804,258.566C360.804,261.275 359.456,263.874 357.057,265.79C354.658,267.705 351.404,268.782 348.011,268.782Z" fill="#FFFFFF" stroke="#2E353A" stroke-width="0.917" stroke-miterlimit="3.999327" stroke-linecap="round" stroke-linejoin="round"/>
<path d="M348.011,275.624C344.229,275.63 340.535,276.532 337.394,278.214C334.254,279.896 331.808,282.284 330.367,285.076C328.925,287.868 328.552,290.938 329.295,293.899C330.037,296.86 331.863,299.578 334.54,301.711C337.216,303.844 340.625,305.296 344.335,305.883C348.044,306.47 351.889,306.165 355.382,305.008C358.875,303.851 361.86,301.893 363.96,299.382C366.06,296.871 367.181,293.919 367.181,290.899C367.181,288.89 366.685,286.901 365.721,285.046C364.757,283.191 363.345,281.505 361.564,280.087C359.783,278.668 357.67,277.543 355.344,276.777C353.019,276.012 350.527,275.62 348.011,275.624ZM348.011,301.082C345.491,301.076 343.029,300.473 340.937,299.35C338.845,298.228 337.217,296.635 336.258,294.774C335.299,292.912 335.052,290.866 335.549,288.893C336.045,286.919 337.263,285.108 339.048,283.687C340.834,282.266 343.106,281.299 345.579,280.909C348.051,280.519 350.613,280.722 352.941,281.494C355.269,282.266 357.259,283.571 358.658,285.245C360.058,286.919 360.805,288.886 360.805,290.899C360.794,293.603 359.441,296.193 357.043,298.102C354.645,300.01 351.397,301.082 348.011,301.082Z" fill="#FFFFFF" stroke="#2E353A" stroke-width="0.917" stroke-miterlimit="3.999327" stroke-linecap="round" stroke-linejoin="round"/>
<path d="M348.01,256.912C347.116,256.912 346.259,256.629 345.627,256.124C344.995,255.619 344.639,254.934 344.639,254.221L344.639,229.022C344.639,228.308 344.995,227.623 345.627,227.118C346.259,226.614 347.116,226.33 348.01,226.33C348.908,226.33 349.77,226.613 350.409,227.116C351.047,227.62 351.411,228.305 351.422,229.022L351.422,254.221C351.411,254.937 351.047,255.622 350.409,256.126C349.77,256.63 348.908,256.912 348.01,256.912Z" fill="#FFFFFF" stroke="#2E353A" stroke-width="0.917" stroke-miterlimit="3.999327" stroke-linecap="round" stroke-linejoin="round"/>
<path d="M348.01,291.582C347.116,291.582 346.259,291.299 345.627,290.794C344.995,290.289 344.639,289.604 344.639,288.891L344.639,263.692C344.639,262.978 344.995,262.293 345.627,261.788C346.259,261.284 347.116,261 348.01,261C348.908,261 349.77,261.282 350.409,261.786C351.047,262.29 351.411,262.975 351.422,263.692L351.422,288.891C351.411,289.607 351.047,290.292 350.409,290.796C349.77,291.3 348.908,291.582 348.01,291.582Z" fill="#FFFFFF" stroke="#2E353A" stroke-width="0.917" stroke-miterlimit="3.999327" stroke-linecap="round" stroke-linejoin="round"/>
<path d="M348.01,326.315C347.116,326.315 346.259,326.031 345.627,325.526C344.995,325.022 344.639,324.337 344.639,323.623L344.639,298.424C344.639,298.071 344.727,297.721 344.896,297.394C345.065,297.068 345.314,296.771 345.627,296.521C345.94,296.271 346.311,296.073 346.72,295.937C347.129,295.802 347.568,295.732 348.01,295.732C348.908,295.732 349.77,296.015 350.409,296.519C351.047,297.023 351.411,297.707 351.422,298.424L351.422,323.623C351.411,324.34 351.047,325.024 350.409,325.528C349.77,326.032 348.908,326.315 348.01,326.315Z" fill="#FFFFFF" stroke="#2E353A" stroke-width="0.917" stroke-miterlimit="3.999327" stroke-linecap="round" stroke-linejoin="round"/>
<path d="M735.557,206.612C731.775,206.619 728.081,207.52 724.94,209.202C721.8,210.885 719.354,213.273 717.912,216.064C716.471,218.856 716.098,221.926 716.84,224.887C717.583,227.848 719.408,230.567 722.085,232.7C724.762,234.833 728.171,236.284 731.88,236.871C735.59,237.458 739.434,237.154 742.927,235.996C746.42,234.839 749.406,232.882 751.506,230.37C753.606,227.859 754.727,224.907 754.727,221.887C754.727,219.879 754.231,217.89 753.267,216.034C752.303,214.179 750.89,212.494 749.11,211.075C747.329,209.656 745.215,208.531 742.89,207.766C740.564,207 738.072,206.608 735.557,206.612ZM735.557,232.071C733.036,232.064 730.575,231.462 728.483,230.339C726.391,229.216 724.763,227.623 723.804,225.762C722.844,223.901 722.598,221.854 723.094,219.881C723.591,217.908 724.809,216.096 726.594,214.675C728.379,213.254 730.652,212.288 733.124,211.897C735.597,211.507 738.159,211.711 740.487,212.482C742.815,213.254 744.804,214.559 746.204,216.233C747.603,217.907 748.35,219.875 748.35,221.887C748.361,223.234 748.038,224.57 747.4,225.817C746.762,227.064 745.821,228.198 744.632,229.153C743.443,230.109 742.029,230.867 740.471,231.384C738.914,231.902 737.244,232.168 735.557,232.168L735.557,232.071Z" fill="#FFFFFF" stroke="#2E353A" stroke-width="0.917" stroke-miterlimit="3.999327" stroke-linecap="round" stroke-linejoin="round"/>
<path d="M735.557,243.291C731.764,243.291 728.056,244.19 724.902,245.873C721.749,247.557 719.292,249.949 717.842,252.748C716.392,255.547 716.015,258.627 716.758,261.597C717.501,264.567 719.331,267.294 722.016,269.434C724.701,271.573 728.121,273.029 731.842,273.616C735.563,274.203 739.419,273.895 742.921,272.731C746.423,271.568 749.415,269.601 751.516,267.079C753.618,264.558 754.735,261.595 754.727,258.566C754.727,256.557 754.231,254.568 753.267,252.713C752.303,250.858 750.89,249.172 749.11,247.754C747.329,246.335 745.216,245.21 742.89,244.444C740.564,243.679 738.073,243.287 735.557,243.291ZM735.557,268.782C733.027,268.782 730.553,268.183 728.449,267.06C726.345,265.938 724.705,264.342 723.737,262.475C722.769,260.609 722.516,258.555 723.009,256.573C723.503,254.591 724.721,252.771 726.511,251.342C728.3,249.914 730.579,248.941 733.061,248.547C735.543,248.152 738.115,248.355 740.453,249.128C742.791,249.901 744.789,251.211 746.194,252.89C747.6,254.57 748.351,256.546 748.351,258.566C748.351,259.908 748.02,261.236 747.377,262.475C746.734,263.715 745.791,264.841 744.603,265.79C743.415,266.738 742.005,267.491 740.453,268.004C738.901,268.518 737.237,268.782 735.557,268.782Z" fill="#FFFFFF" stroke="#2E353A" stroke-width="0.917" stroke-miterlimit="3.999327" stroke-linecap="round" stroke-linejoin="round"/>
<path d="M735.557,275.624C731.775,275.63 728.081,276.532 724.94,278.214C721.8,279.896 719.354,282.284 717.912,285.076C716.471,287.868 716.098,290.938 716.84,293.899C717.583,296.86 719.408,299.578 722.085,301.711C724.762,303.844 728.171,305.296 731.88,305.883C735.59,306.47 739.434,306.165 742.927,305.008C746.42,303.851 749.406,301.893 751.506,299.382C753.606,296.871 754.727,293.919 754.727,290.899C754.727,288.89 754.231,286.901 753.267,285.046C752.303,283.191 750.89,281.505 749.11,280.087C747.329,278.668 745.215,277.543 742.89,276.777C740.564,276.012 738.072,275.62 735.557,275.624ZM735.557,301.082C733.036,301.076 730.575,300.473 728.483,299.35C726.391,298.228 724.763,296.635 723.804,294.774C722.844,292.912 722.598,290.866 723.094,288.893C723.591,286.919 724.809,285.108 726.594,283.687C728.379,282.266 730.652,281.299 733.124,280.909C735.597,280.519 738.159,280.722 740.487,281.494C742.815,282.266 744.804,283.571 746.204,285.245C747.603,286.919 748.35,288.886 748.35,290.899C748.34,293.603 746.987,296.193 744.589,298.102C742.191,300.01 738.943,301.082 735.557,301.082Z" fill="#FFFFFF" stroke="#2E353A" stroke-width="0.917" stroke-miterlimit="3.999327" stroke-linecap="round" stroke-linejoin="round"/>
<path d="M735.557,256.912C734.663,256.912 733.806,256.629 733.174,256.124C732.542,255.619 732.186,254.934 732.186,254.221L732.186,229.022C732.186,228.308 732.542,227.623 733.174,227.118C733.806,226.614 734.663,226.33 735.557,226.33C736.455,226.33 737.317,226.613 737.956,227.116C738.594,227.62 738.958,228.305 738.969,229.022L738.969,254.221C738.958,254.937 738.594,255.622 737.956,256.126C737.317,256.63 736.455,256.912 735.557,256.912Z" fill="#FFFFFF" stroke="#2E353A" stroke-width="0.917" stroke-miterlimit="3.999327" stroke-linecap="round" stroke-linejoin="round"/>
<path d="M735.557,291.582C734.663,291.582 733.806,291.299 733.174,290.794C732.542,290.289 732.186,289.604 732.186,288.891L732.186,263.692C732.186,262.978 732.542,262.293 733.174,261.788C733.806,261.284 734.663,261 735.557,261C736.455,261 737.317,261.282 737.956,261.786C738.594,262.29 738.958,262.975 738.969,263.692L738.969,288.891C738.958,289.607 738.594,290.292 737.956,290.796C737.317,291.3 736.455,291.582 735.557,291.582Z" fill="#FFFFFF" stroke="#2E353A" stroke-width="0.917" stroke-miterlimit="3.999327" stroke-linecap="round" stroke-linejoin="round"/>
<path d="M735.557,326.315C734.663,326.315 733.806,326.031 733.174,325.526C732.542,325.022 732.186,324.337 732.186,323.623L732.186,298.424C732.186,298.071 732.274,297.721 732.443,297.394C732.612,297.068 732.861,296.771 733.174,296.521C733.487,296.271 733.858,296.073 734.267,295.937C734.676,295.802 735.115,295.732 735.557,295.732C736.455,295.732 737.317,296.015 737.956,296.519C738.594,297.023 738.958,297.707 738.969,298.424L738.969,323.623C738.958,324.34 738.594,325.024 737.956,325.528C737.317,326.032 736.455,326.315 735.557,326.315Z" fill="#FFFFFF" stroke="#2E353A" stroke-width="0.917" stroke-miterlimit="3.999327" stroke-linecap="round" stroke-linejoin="round"/>
<path d="M834.494,214.688L90.27,214.688L66.876,163.058L885.872,163.058L834.494,214.688Z" fill="#2E353A" stroke="#2E353A" stroke-width="0.888" stroke-miterlimit="3.999327" stroke-linecap="round" stroke-linejoin="round"/>
<path d="M815.527,214.688L71.303,214.688L47.909,163.058L866.947,163.058L815.527,214.688Z" fill="#FFFFFF" stroke="#2E353A" stroke-width="0.888" stroke-miterlimit="3.999327" stroke-linecap="round" stroke-linejoin="round"/>
<path d="M209.435,1034.8L148.553,1034.8L166.951,20.004L177.755,20.004L209.435,55.905L209.435,1034.8Z" fill="#2E353A" stroke="#2E353A" stroke-width="0.888" stroke-miterlimit="3.999327" stroke-linecap="round" stroke-linejoin="round"/>
<path d="M198.589,1034.8L137.708,1034.8L137.708,55.905L166.95,20.004L198.589,55.905L198.589,1034.8Z" fill="#FFFFFF" stroke="#2E353A" stroke-width="0.888" stroke-miterlimit="3.999327" stroke-linecap="round" stroke-linejoin="round"/>
<line x1="147.665" y1="972.371" x2="147.665" y2="1034.801" stroke="#2E353A" stroke-width="0.888" stroke-miterlimit="3.999327" stroke-linecap="round" stroke-linejoin="round"/>
<line x1="158.306" y1="806.779" x2="158.306" y2="1034.801" stroke="#2E353A" stroke-width="0.888" stroke-miterlimit="3.999327" stroke-linecap="round" stroke-linejoin="round"/>
<line x1="147.665" y1="940.2" x2="147.665" y2="962.902" stroke="#2E353A" stroke-width="0.888" stroke-miterlimit="3.999327" stroke-linecap="round" stroke-linejoin="round"/>
<line x1="178.085" y1="610.183" x2="178.085" y2="632.884" stroke="#2E353A" stroke-width="0.888" stroke-miterlimit="3.999327" stroke-linecap="round" stroke-linejoin="round"/>
<line x1="147.665" y1="42.901" x2="147.665" y2="65.603" stroke="#2E353A" stroke-width="0.888" stroke-miterlimit="3.999327" stroke-linecap="round" stroke-linejoin="round"/>
<line x1="147.665" y1="72.802" x2="147.665" y2="95.503" stroke="#2E353A" stroke-width="0.888" stroke-miterlimit="3.999327" stroke-linecap="round" stroke-linejoin="round"/>
<line x1="178.085" y1="658.374" x2="178.085" y2="776.812" stroke="#2E353A" stroke-width="0.888" stroke-miterlimit="3.999327" stroke-linecap="round" stroke-linejoin="round"/>
<line x1="53.88" y1="172.938" x2="75.202" y2="172.938" stroke="#2E353A" stroke-width="0.888" stroke-miterlimit="3.999327" stroke-linecap="round" stroke-linejoin="round"/>
<line x1="63.342" y1="181.467" x2="114.313" y2="181.467" stroke="#2E353A" stroke-width="0.888" stroke-miterlimit="3.999327" stroke-linecap="round" stroke-linejoin="round"/>
<line x1="252.81" y1="181.467" x2="303.741" y2="181.467" stroke="#2E353A" stroke-width="0.888" stroke-miterlimit="3.999327" stroke-linecap="round" stroke-linejoin="round"/>
<line x1="278.275" y1="190.936" x2="296.186" y2="190.936" stroke="#2E353A" stroke-width="0.888" stroke-miterlimit="3.999327" stroke-linecap="round" stroke-linejoin="round"/>
<line x1="368.724" y1="190.936" x2="475.054" y2="190.936" stroke="#2E353A" stroke-width="0.888" stroke-miterlimit="3.999327" stroke-linecap="round" stroke-linejoin="round"/>
<line x1="821.66" y1="190.936" x2="839.449" y2="190.936" stroke="#2E353A" stroke-width="0.888" stroke-miterlimit="3.999327" stroke-linecap="round" stroke-linejoin="round"/>
<line x1="770.729" y1="197.552" x2="831.123" y2="197.552" stroke="#2E353A" stroke-width="0.888" stroke-miterlimit="3.999327" stroke-linecap="round" stroke-linejoin="round"/>
<path d="M14.117,1049.817L53.96,1049.817C53.96,1049.817 -18.375,998.316 14.117,1003.57C46.609,1008.824 75.039,1027.115 75.039,1027.115C75.039,1027.115 36.618,998.251 63.18,1003.505C89.742,1008.759 88.645,1017.451 88.645,1017.451C88.645,1017.451 90.716,955.086 114.151,972.307C127.756,981.805 136.155,995.183 137.545,1009.57C137.545,1009.57 187.623,960.113 198.467,962.837C209.311,965.561 209.311,995.819 209.311,995.819C209.311,995.819 293.425,941.076 278.153,972.307C262.881,1003.538 252.687,1015.278 252.687,1015.278C252.687,1015.278 292.165,987.42 287.129,1003.505C284.979,1011.268 281.975,1018.865 278.153,1026.207C278.153,1026.207 337.531,1041.06 328.759,1041.028C319.987,1040.996 303.619,1050.011 303.619,1050.011C303.619,1050.011 403.897,1037.039 384.849,1050.011C365.799,1062.984 209.229,1060.811 209.229,1060.811C209.229,1060.811 285.707,1075.761 252.809,1075.761C219.911,1075.761 168.169,1064.93 168.169,1064.93C168.169,1064.93 91.001,1077.902 63.342,1075.761C35.684,1073.621 114.314,1064.93 114.314,1064.93C114.314,1064.93 -35.311,1065.059 14.117,1049.817Z" fill="#2E353A" stroke="#2E353A" stroke-width="0.917" stroke-miterlimit="3.999327" stroke-linecap="round" stroke-linejoin="round"/>
</g>
</svg>
