<svg width="148" height="208" viewBox="0 0 148 208" fill="none" xmlns="http://www.w3.org/2000/svg" xmlns:xlink="http://www.w3.org/1999/xlink">
<path d="M92.43,21.426C91.923,25.097 101.892,27.396 110.01,28.888C109.354,35.574 104.907,42.319 98.788,48.617C91.057,44.26 80.044,38.529 77.895,39.932C75.746,41.335 86.849,48.737 94.012,53.035C88.967,57.44 83.621,61.489 78.014,65.153C74.581,61.929 70.522,59.183 68.105,60.616C65.687,62.049 66.284,67.212 67.508,71.66C59.12,76.555 52.822,79.539 52.822,79.539C50.381,71.725 48.506,63.745 47.211,55.661C47.629,54.826 48.047,53.99 48.435,53.094C49.808,49.96 48.435,48.647 46.256,48.199C45.61,42.489 45.56,36.728 46.107,31.007C55.628,29.037 67.179,25.336 62.851,19.635C60.225,16.203 55.449,15.815 50.494,16.651C51.16,15.51 51.94,14.44 52.822,13.457C70.134,-5.616 82.193,13.457 82.193,13.457C92.251,5.07 106.369,7.338 109.414,20.411C103.892,19.038 93.087,16.889 92.43,21.426Z" fill="#80BBFF"/>
<g opacity="0.3">
<path d="M92.43,21.426C91.923,25.097 101.892,27.396 110.01,28.888C109.354,35.574 104.907,42.319 98.788,48.617C91.057,44.26 80.044,38.529 77.895,39.932C75.746,41.335 86.849,48.737 94.012,53.035C88.967,57.44 83.621,61.489 78.014,65.153C74.581,61.929 70.522,59.183 68.105,60.616C65.687,62.049 66.284,67.212 67.508,71.66C59.12,76.555 52.822,79.539 52.822,79.539C50.381,71.725 48.506,63.745 47.211,55.661C47.629,54.826 48.047,53.99 48.435,53.094C49.808,49.96 48.435,48.647 46.256,48.199C45.61,42.489 45.56,36.728 46.107,31.007C55.628,29.037 67.179,25.336 62.851,19.635C60.225,16.203 55.449,15.815 50.494,16.651C51.16,15.51 51.94,14.44 52.822,13.457C70.134,-5.616 82.193,13.457 82.193,13.457C92.251,5.07 106.369,7.338 109.414,20.411C103.892,19.038 93.087,16.889 92.43,21.426Z" fill="#FFFFFF"/>
</g>
<path d="M70.851,161.501L73.358,161.292C73.358,160.008 63.12,32.38 91.744,20.352C93.11,19.714 94.605,19.4 96.112,19.436C97.619,19.473 99.097,19.857 100.43,20.561C110.787,25.963 115.742,48.289 115.772,48.528L118.219,47.991C118.01,47.035 112.966,24.292 101.594,18.352C99.938,17.472 98.101,16.987 96.227,16.935C94.352,16.883 92.491,17.266 90.789,18.053C60.494,30.769 70.403,156.158 70.851,161.501Z" fill="#80BBFF"/>
<path d="M67.239,158.725C67.746,152.994 79.446,17.964 57.568,3.518C52.345,0.085 47.659,-0.661 43.689,1.339C33.362,6.562 32.018,28.649 31.959,29.575L34.466,29.724C34.466,29.515 35.779,8.144 44.823,3.577C47.808,2.025 51.778,2.682 56.225,5.607C76.82,19.128 64.881,156.994 64.761,158.397L67.239,158.725Z" fill="#80BBFF"/>
<path d="M63.955,169.649C64.135,165.261 67.716,61.899 47.808,52.855C45.941,51.975 43.902,51.519 41.838,51.519C39.774,51.519 37.736,51.975 35.869,52.855C22.199,58.825 13.752,84.345 13.424,85.419L15.782,86.195C15.782,85.927 24.228,60.705 36.854,55.154C38.39,54.432 40.067,54.058 41.764,54.058C43.461,54.058 45.137,54.432 46.674,55.154C61.926,62.078 62.433,140.1 61.329,169.589L63.955,169.649Z" fill="#80BBFF"/>
<path d="M69.031,164.933L71.508,164.635C68.016,133.862 61.3,51.901 72.254,42.111C72.785,41.47 73.492,40.999 74.288,40.755C75.083,40.511 75.932,40.505 76.731,40.738C84.074,43.543 88.67,70.227 89.655,80.256L92.133,79.987C91.715,76.137 87.715,42.26 77.627,38.409C76.4,37.996 75.08,37.951 73.828,38.28C72.576,38.609 71.448,39.297 70.583,40.26C56.435,52.886 68.493,160.337 69.031,164.933Z" fill="#80BBFF"/>
<path d="M110.757,106.611L20.886,106.611L28.407,207.286L103.265,207.286L110.757,106.611Z" fill="#80BBFF"/>
<g opacity="0.2">
<path d="M83.476,106.611L80.969,207.286L28.407,207.286L20.886,106.611L83.476,106.611Z" fill="#FFFFFF"/>
</g>
<path d="M98.519,69.66C99.474,72.107 106.458,70.167 111.921,68.227C113.622,73.443 113.569,79.072 111.771,84.255C105.503,84.255 96.848,84.434 95.982,86.016C95.116,87.598 104.578,88.344 110.398,88.583C108.804,93.019 106.899,97.338 104.697,101.507C101.474,100.701 97.982,100.343 97.027,102.134C96.072,103.925 98.161,106.82 100.459,109.148C96.967,115.117 94.102,119.027 94.102,119.027C89.914,115.06 86.024,110.79 82.461,106.253C82.461,105.596 82.461,104.939 82.461,104.253C82.222,101.865 80.939,101.477 79.476,101.984C77.135,98.673 75.135,95.133 73.507,91.418C78.7,86.941 84.55,80.703 79.924,78.673C78.403,78.245 76.793,78.243 75.271,78.67C73.749,79.096 72.375,79.934 71.298,81.091C71.315,80.157 71.425,79.227 71.626,78.315C75.775,60.616 89.744,68.227 89.744,68.227C93.087,59.631 102.548,56.288 108.936,63.212C104.787,64.257 97.385,66.645 98.519,69.66Z" fill="#80BBFF"/>
<g opacity="0.3">
<path d="M98.519,69.66C99.474,72.107 106.458,70.167 111.921,68.227C113.622,73.443 113.569,79.072 111.771,84.255C105.503,84.255 96.848,84.434 95.982,86.016C95.116,87.598 104.578,88.344 110.398,88.583C108.804,93.019 106.899,97.338 104.697,101.507C101.474,100.701 97.982,100.343 97.027,102.134C96.072,103.925 98.161,106.82 100.459,109.148C96.967,115.117 94.102,119.027 94.102,119.027C89.914,115.06 86.024,110.79 82.461,106.253C82.461,105.596 82.461,104.939 82.461,104.253C82.222,101.865 80.939,101.477 79.476,101.984C77.135,98.673 75.135,95.133 73.507,91.418C78.7,86.941 84.55,80.703 79.924,78.673C78.403,78.245 76.793,78.243 75.271,78.67C73.749,79.096 72.375,79.934 71.298,81.091C71.315,80.157 71.425,79.227 71.626,78.315C75.775,60.616 89.744,68.227 89.744,68.227C93.087,59.631 102.548,56.288 108.936,63.212C104.787,64.257 97.385,66.645 98.519,69.66Z" fill="#FFFFFF"/>
</g>
<path d="M31.78,81.599C34.586,81.841 37.352,82.423 40.018,83.33C40.735,81.418 41.138,79.402 41.212,77.36C41.779,59.243 28.825,66.884 21.96,61.541C20.398,60.179 18.57,59.157 16.592,58.541C14.613,57.924 12.528,57.726 10.469,57.96C11.069,58.909 11.588,59.908 12.021,60.944C12.157,61.342 12.207,61.763 12.169,62.182C12.131,62.6 12.005,63.006 11.799,63.372C11.594,63.738 11.313,64.057 10.976,64.307C10.638,64.557 10.252,64.734 9.842,64.825C8.117,65.157 6.331,64.938 4.738,64.198C4.276,63.937 3.836,63.638 3.425,63.302C2.347,65.178 1.514,67.184 0.948,69.272C0.276,71.808 -0.114,74.411 -0.217,77.032C0.794,77.263 1.791,77.552 2.768,77.898C3.164,78.065 3.516,78.32 3.798,78.644C4.08,78.968 4.283,79.353 4.393,79.768C4.502,80.183 4.515,80.618 4.43,81.039C4.345,81.46 4.164,81.856 3.902,82.196C2.826,83.287 1.562,84.177 0.171,84.822C0.638,87.727 1.398,90.578 2.44,93.329L3.365,93.329C4.052,93.478 4.678,93.628 5.335,93.836C5.708,93.921 6.069,94.051 6.41,94.225C6.848,94.424 7.231,94.726 7.528,95.105C7.824,95.484 8.024,95.93 8.111,96.403C8.185,96.897 8.124,97.402 7.935,97.864C7.746,98.327 7.435,98.729 7.036,99.03C6.611,99.343 6.162,99.622 5.693,99.866C7.419,102.868 9.899,105.368 12.887,107.119C15.504,105.914 18.055,104.569 20.527,103.089C19.96,102.343 19.423,101.627 18.916,100.88C18.317,100.007 18.053,98.948 18.17,97.896C18.231,97.397 18.393,96.915 18.644,96.479C18.895,96.043 19.231,95.662 19.632,95.359C20.437,94.735 21.457,94.456 22.468,94.583C23.479,94.722 24.399,95.246 25.034,96.045C25.631,96.941 26.288,97.776 26.945,98.642C30.404,96.081 33.506,93.07 36.168,89.688L35.869,89.688C34.196,89.25 32.489,88.96 30.765,88.822C29.761,88.681 28.852,88.152 28.232,87.349C27.613,86.545 27.333,85.531 27.452,84.524C27.686,83.589 28.257,82.773 29.056,82.233C29.855,81.693 30.825,81.467 31.78,81.599Z" fill="#80BBFF"/>
<g opacity="0.5">
<path d="M31.78,81.599C34.586,81.841 37.352,82.423 40.018,83.33C40.735,81.418 41.138,79.402 41.212,77.36C41.779,59.243 28.825,66.884 21.96,61.541C20.398,60.179 18.57,59.157 16.592,58.541C14.613,57.924 12.528,57.726 10.469,57.96C11.069,58.909 11.588,59.908 12.021,60.944C12.157,61.342 12.207,61.763 12.169,62.182C12.131,62.6 12.005,63.006 11.799,63.372C11.594,63.738 11.313,64.057 10.976,64.307C10.638,64.557 10.252,64.734 9.842,64.825C8.117,65.157 6.331,64.938 4.738,64.198C4.276,63.937 3.836,63.638 3.425,63.302C2.347,65.178 1.514,67.184 0.948,69.272C0.276,71.808 -0.114,74.411 -0.217,77.032C0.794,77.263 1.791,77.552 2.768,77.898C3.164,78.065 3.516,78.32 3.798,78.644C4.08,78.968 4.283,79.353 4.393,79.768C4.502,80.183 4.515,80.618 4.43,81.039C4.345,81.46 4.164,81.856 3.902,82.196C2.826,83.287 1.562,84.177 0.171,84.822C0.638,87.727 1.398,90.578 2.44,93.329L3.365,93.329C4.052,93.478 4.678,93.628 5.335,93.836C5.708,93.921 6.069,94.051 6.41,94.225C6.848,94.424 7.231,94.726 7.528,95.105C7.824,95.484 8.024,95.93 8.111,96.403C8.185,96.897 8.124,97.402 7.935,97.864C7.746,98.327 7.435,98.729 7.036,99.03C6.611,99.343 6.162,99.622 5.693,99.866C7.419,102.868 9.899,105.368 12.887,107.119C15.504,105.914 18.055,104.569 20.527,103.089C19.96,102.343 19.423,101.627 18.916,100.88C18.317,100.007 18.053,98.948 18.17,97.896C18.231,97.397 18.393,96.915 18.644,96.479C18.895,96.043 19.231,95.662 19.632,95.359C20.437,94.735 21.457,94.456 22.468,94.583C23.479,94.722 24.399,95.246 25.034,96.045C25.631,96.941 26.288,97.776 26.945,98.642C30.404,96.081 33.506,93.07 36.168,89.688L35.869,89.688C34.196,89.25 32.489,88.96 30.765,88.822C29.761,88.681 28.852,88.152 28.232,87.349C27.613,86.545 27.333,85.531 27.452,84.524C27.686,83.589 28.257,82.773 29.056,82.233C29.855,81.693 30.825,81.467 31.78,81.599Z" fill="#FFFFFF"/>
</g>
<path d="M26.617,19.098C25.037,18.005 23.334,17.104 21.543,16.412C21.977,15.09 22.644,13.857 23.513,12.77C31.154,2.98 34.616,12.77 40.556,12.77C41.973,12.73 43.383,12.988 44.694,13.528C46.006,14.068 47.189,14.878 48.167,15.904C47.417,16.167 46.689,16.486 45.988,16.859C45.727,16.994 45.501,17.186 45.327,17.422C45.152,17.658 45.035,17.931 44.983,18.219C44.931,18.508 44.946,18.805 45.027,19.086C45.108,19.368 45.253,19.627 45.451,19.844C46.216,20.783 47.262,21.453 48.436,21.754C48.803,21.785 49.172,21.785 49.54,21.754C49.267,23.23 48.806,24.665 48.167,26.023C47.422,27.657 46.491,29.199 45.391,30.619C44.751,30.285 44.094,29.986 43.421,29.724C43.14,29.642 42.845,29.625 42.557,29.674C42.269,29.723 41.995,29.837 41.757,30.006C41.519,30.175 41.322,30.396 41.181,30.652C41.04,30.908 40.959,31.193 40.944,31.485C41.037,32.519 41.31,33.529 41.75,34.469C40.228,35.786 38.578,36.946 36.825,37.932L36.258,37.574L35.034,36.977C34.792,36.869 34.543,36.779 34.288,36.708C33.969,36.616 33.632,36.606 33.309,36.679C32.985,36.753 32.686,36.906 32.437,37.126C32.184,37.355 31.995,37.646 31.89,37.971C31.785,38.296 31.768,38.643 31.84,38.976C31.929,39.325 32.049,39.664 32.198,39.991C29.976,40.806 27.58,41.032 25.244,40.648C24.393,38.872 23.646,37.048 23.005,35.186L24.796,34.708C25.465,34.547 26.05,34.143 26.438,33.574C26.627,33.281 26.757,32.954 26.818,32.61C26.88,32.267 26.872,31.915 26.796,31.574C26.639,30.897 26.223,30.309 25.637,29.935C25.051,29.561 24.342,29.432 23.662,29.574C22.946,29.783 22.229,29.933 21.513,30.082C20.798,27.234 20.487,24.301 20.588,21.366L20.767,21.366C21.809,21.88 22.807,22.479 23.752,23.157C24.343,23.528 25.056,23.652 25.737,23.501C26.419,23.35 27.014,22.937 27.393,22.351C27.645,21.8 27.706,21.181 27.565,20.591C27.424,20.002 27.091,19.476 26.617,19.098Z" fill="#80BBFF"/>
<g opacity="0.3">
<path d="M26.617,19.098C25.037,18.005 23.334,17.104 21.543,16.412C21.977,15.09 22.644,13.857 23.513,12.77C31.154,2.98 34.616,12.77 40.556,12.77C41.973,12.73 43.383,12.988 44.694,13.528C46.006,14.068 47.189,14.878 48.167,15.904C47.417,16.167 46.689,16.486 45.988,16.859C45.727,16.994 45.501,17.186 45.327,17.422C45.152,17.658 45.035,17.931 44.983,18.219C44.931,18.508 44.946,18.805 45.027,19.086C45.108,19.368 45.253,19.627 45.451,19.844C46.216,20.783 47.262,21.453 48.436,21.754C48.803,21.785 49.172,21.785 49.54,21.754C49.267,23.23 48.806,24.665 48.167,26.023C47.422,27.657 46.491,29.199 45.391,30.619C44.751,30.285 44.094,29.986 43.421,29.724C43.14,29.642 42.845,29.625 42.557,29.674C42.269,29.723 41.995,29.837 41.757,30.006C41.519,30.175 41.322,30.396 41.181,30.652C41.04,30.908 40.959,31.193 40.944,31.485C41.037,32.519 41.31,33.529 41.75,34.469C40.228,35.786 38.578,36.946 36.825,37.932L36.258,37.574L35.034,36.977C34.792,36.869 34.543,36.779 34.288,36.708C33.969,36.616 33.632,36.606 33.309,36.679C32.985,36.753 32.686,36.906 32.437,37.126C32.184,37.355 31.995,37.646 31.89,37.971C31.785,38.296 31.768,38.643 31.84,38.976C31.929,39.325 32.049,39.664 32.198,39.991C29.976,40.806 27.58,41.032 25.244,40.648C24.393,38.872 23.646,37.048 23.005,35.186L24.796,34.708C25.465,34.547 26.05,34.143 26.438,33.574C26.627,33.281 26.757,32.954 26.818,32.61C26.88,32.267 26.872,31.915 26.796,31.574C26.639,30.897 26.223,30.309 25.637,29.935C25.051,29.561 24.342,29.432 23.662,29.574C22.946,29.783 22.229,29.933 21.513,30.082C20.798,27.234 20.487,24.301 20.588,21.366L20.767,21.366C21.809,21.88 22.807,22.479 23.752,23.157C24.343,23.528 25.056,23.652 25.737,23.501C26.419,23.35 27.014,22.937 27.393,22.351C27.645,21.8 27.706,21.181 27.565,20.591C27.424,20.002 27.091,19.476 26.617,19.098Z" fill="#FFFFFF"/>
</g>
<path d="M99.832,37.245C100.369,40.916 90.4,43.364 82.252,44.707C82.909,51.393 87.356,58.138 93.505,64.436C101.205,60.078 112.249,54.348 114.398,55.75C116.547,57.153 105.443,64.705 98.25,68.854C103.258,73.299 108.563,77.398 114.129,81.121C117.591,77.897 121.651,75.151 124.039,76.584C126.426,78.017 125.889,83.18 124.636,87.657C133.053,92.552 139.32,95.507 139.32,95.507C141.761,87.693 143.637,79.713 144.932,71.629C144.514,70.794 144.096,69.928 143.708,69.033C142.365,65.899 143.708,64.585 145.917,64.138C146.513,58.432 146.513,52.681 145.917,46.975C136.425,44.975 125.024,41.274 129.202,35.574C131.799,32.141 136.575,31.753 141.559,32.589C140.894,31.44 140.103,30.369 139.201,29.395C121.919,10.323 109.831,29.395 109.831,29.395C99.802,21.008 85.685,23.426 82.61,36.379C88.401,34.857 99.176,32.708 99.832,37.245Z" fill="#80BBFF"/>
<g opacity="0.5">
<path d="M99.832,37.245C100.369,40.916 90.4,43.364 82.252,44.707C82.909,51.393 87.356,58.138 93.505,64.436C101.205,60.078 112.249,54.348 114.398,55.75C116.547,57.153 105.443,64.705 98.25,68.854C103.258,73.299 108.563,77.398 114.129,81.121C117.591,77.897 121.651,75.151 124.039,76.584C126.426,78.017 125.889,83.18 124.636,87.657C133.053,92.552 139.32,95.507 139.32,95.507C141.761,87.693 143.637,79.713 144.932,71.629C144.514,70.794 144.096,69.928 143.708,69.033C142.365,65.899 143.708,64.585 145.917,64.138C146.513,58.432 146.513,52.681 145.917,46.975C136.425,44.975 125.024,41.274 129.202,35.574C131.799,32.141 136.575,31.753 141.559,32.589C140.894,31.44 140.103,30.369 139.201,29.395C121.919,10.323 109.831,29.395 109.831,29.395C99.802,21.008 85.685,23.426 82.61,36.379C88.401,34.857 99.176,32.708 99.832,37.245Z" fill="#FFFFFF"/>
</g>
</svg>
