<svg width="168" height="166" viewBox="0 0 168 166" fill="none" xmlns="http://www.w3.org/2000/svg" xmlns:xlink="http://www.w3.org/1999/xlink">
<path d="M84,165.869C37.976,165.869 0.667,128.559 0.667,82.536C0.667,36.512 37.976,-0.797 84,-0.797C130.023,-0.797 167.333,36.512 167.333,82.536C167.333,128.559 130.023,165.869 84,165.869ZM72.516,52.658C71.968,52.292 71.325,52.098 70.667,52.098C68.826,52.098 67.333,53.59 67.333,55.431L67.333,109.641C67.333,110.299 67.528,110.943 67.893,111.49C68.914,113.022 70.984,113.436 72.516,112.414L113.173,85.309C113.539,85.065 113.853,84.751 114.097,84.385C115.119,82.853 114.705,80.783 113.173,79.763L72.516,52.658Z" fill="#FFFFFF"/>
</svg>
