<svg width="44" height="46" viewBox="0 0 44 46" fill="none" xmlns="http://www.w3.org/2000/svg" xmlns:xlink="http://www.w3.org/1999/xlink">
<path d="M19.229,33.793L20.984,29.773C22.546,26.195 25.358,23.347 28.865,21.791L33.696,19.646C35.232,18.964 35.232,16.73 33.696,16.048L29.016,13.97C25.418,12.373 22.556,9.42 21.021,5.72L19.243,1.436C18.583,-0.154 16.386,-0.154 15.727,1.436L13.949,5.72C12.413,9.42 9.551,12.373 5.954,13.97L1.273,16.048C-0.263,16.73 -0.263,18.964 1.273,19.646L6.105,21.791C9.612,23.347 12.423,26.195 13.985,29.773L15.741,33.793C16.416,35.339 18.554,35.339 19.229,33.793ZM36.803,43.582L37.296,42.451C38.176,40.433 39.761,38.827 41.739,37.949L43.26,37.273C44.082,36.907 44.082,35.712 43.26,35.347L41.824,34.709C39.796,33.807 38.182,32.142 37.317,30.056L36.81,28.833C36.457,27.981 35.279,27.981 34.926,28.833L34.419,30.056C33.554,32.142 31.941,33.807 29.912,34.709L28.476,35.347C27.654,35.712 27.654,36.907 28.476,37.273L29.997,37.949C31.975,38.827 33.56,40.433 34.44,42.451L34.933,43.582C35.295,44.41 36.441,44.41 36.803,43.582Z" fill="#0078FF"/>
</svg>
