<svg width="94" height="54" viewBox="0 0 94 54" fill="none" xmlns="http://www.w3.org/2000/svg" xmlns:xlink="http://www.w3.org/1999/xlink">
<path d="M19.865,53.757C19.686,53.759 19.512,53.697 19.375,53.582C19.238,53.467 19.147,53.307 19.119,53.13L16.821,36.535L0.255,33.55C0.088,33.524 -0.064,33.441 -0.178,33.317C-0.292,33.192 -0.36,33.032 -0.372,32.864C-0.378,32.69 -0.326,32.518 -0.223,32.377C-0.12,32.237 0.028,32.135 0.195,32.088L16.761,27.67L16.761,5.822C16.761,5.624 16.839,5.434 16.979,5.294C17.119,5.154 17.309,5.076 17.507,5.076C17.705,5.076 17.895,5.154 18.035,5.294C18.175,5.434 18.253,5.624 18.253,5.822L18.253,28.237C18.251,28.403 18.195,28.563 18.092,28.693C17.989,28.822 17.847,28.914 17.686,28.954L3.837,32.655L17.626,35.073C17.783,35.093 17.927,35.166 18.036,35.28C18.145,35.394 18.211,35.542 18.223,35.699L20.492,52.145L92.335,47.907L92.335,2.091L23.417,2.091C23.219,2.091 23.029,2.012 22.889,1.872C22.749,1.733 22.671,1.543 22.671,1.345C22.671,1.147 22.749,0.957 22.889,0.817C23.029,0.677 23.219,0.599 23.417,0.599L93.081,0.599C93.277,0.606 93.462,0.687 93.6,0.825C93.739,0.964 93.82,1.149 93.827,1.345L93.827,48.683C93.82,48.874 93.744,49.055 93.611,49.193C93.479,49.33 93.301,49.415 93.111,49.429L19.895,53.757L19.865,53.757Z" fill="#FFFFFF"/>
</svg>
