<svg width="36" height="36" viewBox="0 0 36 36" fill="none" xmlns="http://www.w3.org/2000/svg" xmlns:xlink="http://www.w3.org/1999/xlink">
<path d="M24.805,36L24.805,22.069L29.469,22.069L30.168,16.653L24.805,16.653L24.805,13.195C24.805,11.627 25.24,10.559 27.489,10.559L30.357,10.557L30.357,5.714C29.86,5.648 28.158,5.5 26.178,5.5C22.043,5.5 19.212,8.024 19.212,12.659L19.212,16.653L14.535,16.653L14.535,22.069L19.212,22.069L19.212,36L2,36C0.895,36 0,35.105 0,34L0,2C0,0.895 0.895,0 2,0L34,0C35.105,0 36,0.895 36,2L36,34C36,35.105 35.105,36 34,36L24.805,36Z" fill="#000C1A"/>
</svg>
