<svg width="76" height="54" viewBox="0 0 76 54" fill="none" xmlns="http://www.w3.org/2000/svg" xmlns:xlink="http://www.w3.org/1999/xlink">
<path d="M46.604,52.858C46.481,52.857 46.36,52.826 46.251,52.769C46.142,52.712 46.048,52.63 45.977,52.53L37.023,39.218C36.967,39.136 36.928,39.043 36.909,38.946C36.889,38.849 36.889,38.749 36.908,38.651C36.928,38.554 36.966,38.462 37.022,38.38C37.078,38.297 37.149,38.227 37.232,38.173C37.312,38.118 37.402,38.079 37.497,38.06C37.592,38.041 37.689,38.041 37.784,38.06C37.879,38.08 37.969,38.118 38.049,38.174C38.128,38.229 38.196,38.3 38.247,38.382L46.097,50.052L47.619,38.68C47.645,38.528 47.716,38.388 47.822,38.276C47.928,38.164 48.066,38.087 48.216,38.054C48.395,38.054 67.229,33.785 72.661,23.548C73.556,21.827 74.05,19.927 74.107,17.989C74.164,16.051 73.782,14.125 72.99,12.355C68.662,1.52 43.142,-0.271 22.875,4.893C8.758,8.475 0.46,14.623 1.206,20.951C3.355,39.009 15.384,38.083 15.891,38.054C15.988,38.041 16.086,38.048 16.179,38.075C16.273,38.102 16.36,38.147 16.435,38.209C16.511,38.27 16.573,38.346 16.618,38.432C16.663,38.519 16.69,38.613 16.697,38.71C16.714,38.907 16.656,39.103 16.534,39.258C16.412,39.413 16.236,39.516 16.04,39.546C15.891,39.546 2.072,40.68 -0.256,21.13C-1.122,13.907 7.385,7.281 22.487,3.43C40.963,-1.286 69.259,-0.987 74.362,11.817C75.242,13.781 75.665,15.919 75.597,18.07C75.53,20.221 74.975,22.329 73.974,24.234C68.691,34.233 52.216,38.621 49.052,39.397L47.321,52.201C47.297,52.349 47.231,52.487 47.13,52.599C47.029,52.71 46.899,52.79 46.754,52.828L46.604,52.858Z" fill="#FFFFFF"/>
</svg>
