<svg width="36" height="36" viewBox="0 0 36 36" fill="none" xmlns="http://www.w3.org/2000/svg" xmlns:xlink="http://www.w3.org/1999/xlink">
<path d="M36,26.84L36,33.912C36,34.962 35.188,35.833 34.141,35.907C33.266,35.969 32.553,36 32,36C14.327,36 0,21.673 0,4C0,3.447 0.031,2.734 0.093,1.859C0.167,0.812 1.038,0 2.088,0L9.16,0C9.674,0 10.104,0.389 10.155,0.9C10.201,1.358 10.244,1.726 10.284,2.004C10.689,4.829 11.515,7.519 12.697,10.006C12.887,10.405 12.763,10.883 12.404,11.14L8.087,14.224C10.715,20.362 15.638,25.285 21.776,27.913L24.854,23.604C25.114,23.24 25.598,23.115 26.002,23.306C28.489,24.488 31.178,25.313 34.003,25.717C34.279,25.756 34.645,25.799 35.1,25.845C35.611,25.897 36,26.327 36,26.84Z" fill="#000C1A"/>
</svg>
