<svg width="72" height="64" viewBox="0 0 72 64" fill="none" xmlns="http://www.w3.org/2000/svg" xmlns:xlink="http://www.w3.org/1999/xlink">
<path d="M59.929,63.216C59.81,63.215 59.693,63.185 59.589,63.128C59.485,63.07 59.396,62.988 59.332,62.888L47.751,47.158L5.218,52.322C5.123,52.334 5.027,52.327 4.934,52.302C4.842,52.276 4.756,52.232 4.681,52.173C4.601,52.114 4.535,52.038 4.488,51.95C4.442,51.862 4.416,51.765 4.412,51.665L-0.96,6.506C-0.975,6.406 -0.969,6.305 -0.944,6.207C-0.918,6.11 -0.873,6.018 -0.811,5.939C-0.667,5.792 -0.478,5.698 -0.274,5.67L65.152,0.536C65.348,0.528 65.541,0.594 65.69,0.721C65.84,0.848 65.935,1.028 65.958,1.223C65.967,1.419 65.901,1.612 65.773,1.761C65.646,1.911 65.467,2.006 65.271,2.029L0.502,7.073L5.666,50.591L47.87,45.487C48.001,45.472 48.133,45.491 48.254,45.544C48.374,45.596 48.479,45.679 48.557,45.785L57.511,57.724L53.273,45.785C53.23,45.692 53.208,45.59 53.208,45.487C53.208,45.384 53.23,45.282 53.273,45.188C53.326,45.092 53.399,45.009 53.486,44.942C53.574,44.875 53.674,44.827 53.78,44.8L69.57,41.816L65.57,9.491C65.552,9.294 65.611,9.098 65.733,8.943C65.855,8.787 66.031,8.685 66.227,8.655C66.325,8.642 66.424,8.65 66.52,8.676C66.615,8.702 66.704,8.747 66.782,8.808C66.86,8.87 66.924,8.945 66.973,9.032C67.021,9.118 67.051,9.213 67.062,9.312L71.151,42.323C71.163,42.514 71.107,42.703 70.992,42.856C70.877,43.009 70.711,43.116 70.525,43.159L54.914,46.143L60.585,61.992C60.643,62.164 60.639,62.351 60.573,62.52C60.508,62.689 60.386,62.83 60.227,62.918C60.156,63.042 60.053,63.145 59.929,63.216Z" fill="#FFFFFF"/>
</svg>
