<svg width="32" height="42" viewBox="0 0 32 42" fill="none" xmlns="http://www.w3.org/2000/svg" xmlns:xlink="http://www.w3.org/1999/xlink">
<path d="M26,0.202C27.105,0.202 28,1.098 28,2.202L28.002,19.259C25.879,17.358 23.074,16.202 20,16.202C13.373,16.202 8,21.575 8,28.202C8,34.679 13.52,40.202 20,40.202L2,40.202C0.895,40.202 0,39.307 0,38.202L0,2.202C0,1.098 0.895,0.202 2,0.202L26,0.202ZM20,20.202C24.418,20.202 28,23.784 28,28.202C28,29.686 27.596,31.075 26.892,32.266L31.314,36.687L28.485,39.516L24.064,35.095C22.873,35.798 21.484,36.202 20,36.202C15.582,36.202 12,32.62 12,28.202C12,23.784 15.582,20.202 20,20.202ZM20,24.202C17.791,24.202 16,25.993 16,28.202C16,30.411 17.791,32.202 20,32.202C22.209,32.202 24,30.411 24,28.202C24,25.993 22.209,24.202 20,24.202Z" fill="#0078FF"/>
</svg>
