<svg width="48" height="48" viewBox="0 0 48 48" fill="none" xmlns="http://www.w3.org/2000/svg" xmlns:xlink="http://www.w3.org/1999/xlink">
<path d="M26.466,0C29.167,0.004 30.536,0.019 31.719,0.054L32.184,0.069C32.723,0.088 33.253,0.112 33.894,0.142C36.447,0.26 38.19,0.664 39.72,1.258C41.302,1.868 42.638,2.692 43.972,4.026C45.304,5.36 46.128,6.701 46.74,8.279C47.332,9.807 47.736,11.551 47.856,14.105C47.885,14.745 47.908,15.276 47.927,15.814L47.942,16.28C47.977,17.462 47.993,18.831 47.998,21.532L48,23.322C48,23.541 48,23.766 48,23.999L48,24.676L47.998,26.466C47.994,29.167 47.98,30.536 47.944,31.719L47.929,32.184C47.91,32.723 47.886,33.253 47.856,33.894C47.738,36.447 47.332,38.19 46.74,39.72C46.13,41.302 45.304,42.638 43.972,43.972C42.638,45.304 41.296,46.128 39.72,46.74C38.19,47.332 36.447,47.736 33.894,47.856C33.253,47.885 32.723,47.908 32.184,47.927L31.719,47.942C30.536,47.977 29.167,47.993 26.466,47.998L24.676,48C24.458,48 24.232,48 23.999,48L23.322,48L21.532,47.998C18.831,47.994 17.462,47.98 16.28,47.944L15.814,47.929C15.276,47.91 14.745,47.886 14.105,47.856C11.551,47.738 9.811,47.332 8.279,46.74C6.699,46.13 5.36,45.304 4.026,43.972C2.692,42.638 1.87,41.296 1.258,39.72C0.664,38.19 0.262,36.447 0.142,33.894C0.114,33.253 0.091,32.723 0.072,32.184L0.057,31.719C0.022,30.536 0.005,29.167 0,26.466L0,21.532C0.004,18.831 0.019,17.462 0.054,16.28L0.069,15.814C0.088,15.276 0.112,14.745 0.142,14.105C0.26,11.549 0.664,9.809 1.258,8.279C1.868,6.699 2.692,5.36 4.026,4.026C5.36,2.692 6.701,1.87 8.279,1.258C9.809,0.664 11.549,0.262 14.105,0.142C14.745,0.114 15.276,0.091 15.814,0.072L16.28,0.057C17.462,0.022 18.831,0.005 21.532,0L26.466,0ZM23.999,11.999C17.368,11.999 11.999,17.374 11.999,23.999C11.999,30.63 17.374,36 23.999,36C30.63,36 36,30.624 36,23.999C36,17.368 30.624,11.999 23.999,11.999ZM23.999,16.799C27.976,16.799 31.199,20.021 31.199,23.999C31.199,27.976 27.977,31.199 23.999,31.199C20.022,31.199 16.799,27.977 16.799,23.999C16.799,20.022 20.021,16.799 23.999,16.799ZM36.6,8.399C34.945,8.399 33.6,9.742 33.6,11.397C33.6,13.051 34.943,14.397 36.6,14.397C38.254,14.397 39.6,13.053 39.6,11.397C39.6,9.742 38.252,8.397 36.6,8.399Z" fill="#000C1A"/>
</svg>
