<svg width="38" height="42" viewBox="0 0 38 42" fill="none" xmlns="http://www.w3.org/2000/svg" xmlns:xlink="http://www.w3.org/1999/xlink">
<path d="M16,1C24.135,1 30.852,7.071 31.867,14.93L36.368,22.007C36.665,22.473 36.605,23.169 35.919,23.463L32,25.142L32,31C32,33.209 30.209,35 28,35L24.002,35L24,41L6,41L6,33.612C6.001,31.25 5.127,29.017 3.511,27.002C1.314,24.263 0,20.785 0,17C0,8.163 7.163,1 16,1ZM16,11C14.895,11 14,11.895 14,13L14,14.998L12,15C10.895,15 10,15.895 10,17C10,18.105 10.895,19 12,19L14,18.998L14,21C14,22.105 14.895,23 16,23C17.105,23 18,22.105 18,21L18,19L20,19C21.105,19 22,18.105 22,17C22,15.895 21.105,15 20,15L18,15L18,13C18,11.895 17.105,11 16,11Z" fill="#0078FF"/>
</svg>
