<svg width="82" height="76" viewBox="0 0 82 76" fill="none" xmlns="http://www.w3.org/2000/svg" xmlns:xlink="http://www.w3.org/1999/xlink">
<path d="M79.565,74.712C79.419,74.756 79.263,74.756 79.117,74.712L57.806,59.58C54.105,61.281 26.585,72.802 6.737,52.804C-1.83,44.208 -2.218,30.956 5.841,19.017C11.383,10.734 19.654,4.657 29.214,1.842C38.774,-0.972 49.019,-0.344 58.164,3.615C70.401,8.749 77.654,15.554 79.714,24.091C82.699,36.478 73.535,47.521 73.147,47.969C73.089,48.056 73.013,48.131 72.924,48.187C72.835,48.243 72.736,48.28 72.632,48.295C72.528,48.309 72.422,48.302 72.32,48.273C72.219,48.244 72.126,48.194 72.045,48.127C71.965,48.059 71.9,47.975 71.854,47.88C71.808,47.786 71.783,47.683 71.78,47.577C71.777,47.472 71.796,47.368 71.836,47.271C71.877,47.174 71.937,47.086 72.013,47.014C72.013,47.014 80.967,36.03 78.251,24.419C76.311,16.42 69.297,9.883 57.567,4.959C48.736,1.154 38.852,0.564 29.631,3.29C20.411,6.017 12.437,11.887 7.095,19.882C1.125,28.837 -1.859,41.999 7.781,51.789C28.257,72.354 57.239,58.236 57.537,58.087C57.656,58.022 57.789,57.988 57.925,57.988C58.061,57.988 58.194,58.022 58.313,58.087L76.968,71.28L69.625,59.042C69.564,58.958 69.521,58.862 69.499,58.759C69.477,58.657 69.477,58.552 69.499,58.45C69.52,58.347 69.563,58.251 69.624,58.166C69.685,58.082 69.763,58.011 69.854,57.958C69.944,57.906 70.044,57.873 70.148,57.862C70.252,57.85 70.357,57.861 70.456,57.893C70.556,57.925 70.647,57.977 70.725,58.047C70.803,58.116 70.866,58.201 70.909,58.296L80.191,73.638C80.291,73.772 80.344,73.934 80.344,74.1C80.344,74.267 80.291,74.429 80.191,74.563C80.107,74.637 80.006,74.69 79.897,74.716C79.787,74.742 79.673,74.741 79.565,74.712Z" fill="#FFFFFF"/>
</svg>
