<svg width="48" height="48" viewBox="0 0 48 48" fill="none" xmlns="http://www.w3.org/2000/svg" xmlns:xlink="http://www.w3.org/1999/xlink">
<path d="M27.278,0.227C15.407,-1.41 4.149,5.964 0.902,17.502C-2.346,29.04 3.413,41.206 14.393,46.005C14.249,44.162 14.38,42.307 14.783,40.502C15.226,38.49 17.893,27.392 17.893,27.392C17.362,26.201 17.096,24.909 17.114,23.606C17.114,20.042 19.171,17.383 21.729,17.383C22.659,17.369 23.549,17.761 24.168,18.455C24.786,19.15 25.072,20.08 24.951,21.002C24.951,23.163 23.563,26.431 22.841,29.497C22.549,30.637 22.817,31.849 23.563,32.76C24.308,33.671 25.442,34.173 26.618,34.113C31.172,34.113 34.227,28.278 34.227,21.39C34.227,16.109 30.729,12.157 24.284,12.157C21.169,12.037 18.14,13.199 15.904,15.373C13.668,17.547 12.421,20.543 12.453,23.661C12.385,25.373 12.937,27.052 14.008,28.389C14.419,28.695 14.578,29.238 14.397,29.718C14.286,30.161 14.008,31.214 13.897,31.602C13.85,31.867 13.68,32.095 13.439,32.215C13.198,32.335 12.915,32.334 12.675,32.211C9.352,30.882 7.786,27.225 7.786,23.052C7.786,16.22 13.509,8.039 24.954,8.039C34.064,8.039 40.119,14.705 40.119,21.833C40.119,31.214 34.897,38.268 27.177,38.268C24.832,38.342 22.612,37.214 21.288,35.276C21.288,35.276 19.9,40.835 19.627,41.887C19.069,43.704 18.245,45.427 17.183,47.002C19.397,47.674 21.699,48.01 24.013,48C30.378,48.004 36.483,45.476 40.983,40.973C45.483,36.469 48.007,30.361 48,23.994C47.993,12.007 39.148,1.863 27.278,0.227Z" fill="#000C1A"/>
</svg>
