<svg width="90" height="86" viewBox="0 0 90 86" fill="none" xmlns="http://www.w3.org/2000/svg" xmlns:xlink="http://www.w3.org/1999/xlink">
<path d="M45.254,84.231C27.047,84.231 6.273,76.799 1.646,62.561C-5.935,39.25 20.451,25.133 25.256,22.804L13.496,1.643C13.42,1.49 13.397,1.317 13.429,1.15C13.461,0.982 13.548,0.831 13.675,0.717C13.807,0.613 13.97,0.557 14.138,0.557C14.306,0.557 14.469,0.613 14.6,0.717L34.897,15.373C34.993,15.422 35.077,15.491 35.143,15.575C35.21,15.66 35.257,15.758 35.282,15.863C35.307,15.968 35.31,16.076 35.289,16.182C35.268,16.288 35.224,16.388 35.161,16.475C35.098,16.562 35.016,16.634 34.922,16.687C34.829,16.74 34.724,16.772 34.617,16.781C34.51,16.789 34.402,16.775 34.301,16.738C34.2,16.701 34.108,16.642 34.031,16.566L16.451,3.881L26.957,22.804C27.002,22.898 27.026,23 27.026,23.103C27.026,23.206 27.002,23.308 26.957,23.401C26.889,23.595 26.751,23.755 26.569,23.849C26.241,23.849 -4.83,37.937 3.019,62.144C6.87,73.933 24.957,82.768 45.224,82.768L45.522,82.768C65.968,82.768 80.892,74.023 85.429,59.607C86.673,56.409 87.133,52.959 86.77,49.547C86.406,46.135 85.23,42.86 83.339,39.997C72.982,25.282 42.866,23.909 42.568,23.909C42.47,23.905 42.373,23.882 42.284,23.841C42.195,23.8 42.115,23.741 42.048,23.669C41.982,23.597 41.93,23.513 41.896,23.421C41.863,23.329 41.847,23.231 41.851,23.133C41.851,23.033 41.871,22.935 41.911,22.844C41.951,22.753 42.009,22.671 42.082,22.604C42.155,22.537 42.241,22.485 42.335,22.453C42.429,22.421 42.528,22.408 42.627,22.416C43.881,22.416 73.758,23.819 84.563,39.131C86.587,42.177 87.849,45.665 88.244,49.301C88.639,52.937 88.154,56.615 86.831,60.024C82.086,75.097 66.655,84.111 45.552,84.231L45.254,84.231Z" fill="#FFFFFF"/>
</svg>
