<svg width="48" height="32" viewBox="0 0 48 32" fill="none" xmlns="http://www.w3.org/2000/svg" xmlns:xlink="http://www.w3.org/1999/xlink">
<path d="M24.586,0C25.868,0.006 29.076,0.032 32.483,0.145L33.692,0.189C37.122,0.325 40.551,0.556 42.251,0.951C44.519,1.482 46.301,3.031 46.904,4.995C47.863,8.113 47.983,14.199 47.998,15.672L48,15.978L48,15.999C48,15.999 48,16.006 48,16.021L47.998,16.326C47.983,17.799 47.863,23.885 46.904,27.003C46.293,28.974 44.51,30.523 42.251,31.047C40.551,31.442 37.122,31.673 33.692,31.809L32.483,31.852C29.076,31.966 25.868,31.992 24.586,31.998L24.024,32L23.999,32C23.999,32 23.991,32 23.974,32L23.412,31.998C20.699,31.986 9.355,31.883 5.747,31.047C3.479,30.516 1.697,28.967 1.094,27.003C0.135,23.885 0.015,17.799 0,16.326L0,15.672C0.015,14.199 0.135,8.113 1.094,4.995C1.705,3.024 3.488,1.475 5.747,0.951C9.355,0.114 20.699,0.012 23.412,0L24.586,0ZM19.199,8.999L19.199,22.999L33.599,15.999L19.199,8.999Z" fill="#000C1A"/>
</svg>
