<svg width="82" height="54" viewBox="0 0 82 54" fill="none" xmlns="http://www.w3.org/2000/svg" xmlns:xlink="http://www.w3.org/1999/xlink">
<path d="M25.163,53.545C25.055,53.544 24.948,53.52 24.85,53.474C24.752,53.427 24.665,53.36 24.596,53.277C24.497,53.143 24.443,52.981 24.443,52.814C24.443,52.648 24.497,52.485 24.596,52.352L31.849,42.651L5.762,43.606C5.664,43.61 5.566,43.595 5.474,43.561C5.382,43.527 5.298,43.475 5.226,43.409C5.154,43.342 5.095,43.262 5.054,43.173C5.013,43.084 4.99,42.988 4.986,42.89C4.986,42.694 5.059,42.505 5.192,42.361C5.325,42.217 5.507,42.129 5.703,42.114L33.371,41.099C33.51,41.096 33.647,41.131 33.767,41.199C33.888,41.268 33.988,41.367 34.058,41.487C34.123,41.611 34.157,41.75 34.157,41.89C34.157,42.03 34.123,42.169 34.058,42.293L27.641,50.859L41.848,44.233C41.945,44.205 42.049,44.205 42.146,44.233L79.217,44.233L79.217,2.626C49.19,2.238 4.598,1.939 0.897,2.626C0.33,4.536 2.509,16.833 4.986,27.936C5.008,28.032 5.011,28.132 4.994,28.229C4.978,28.326 4.942,28.419 4.889,28.502C4.837,28.585 4.768,28.657 4.687,28.714C4.607,28.77 4.515,28.811 4.419,28.832C4.325,28.853 4.227,28.856 4.132,28.839C4.037,28.822 3.946,28.786 3.865,28.733C3.784,28.68 3.715,28.611 3.662,28.531C3.608,28.45 3.571,28.36 3.554,28.265C-0.267,11.222 -1.431,2.148 0.061,1.402C1.554,0.656 61.697,1.073 79.993,1.402C80.186,1.41 80.368,1.492 80.502,1.631C80.635,1.77 80.71,1.955 80.709,2.148L80.709,45.188C80.709,45.386 80.631,45.576 80.491,45.716C80.351,45.856 80.161,45.934 79.963,45.934L42.266,45.934L25.521,53.754L25.163,53.545Z" fill="#FFFFFF"/>
</svg>
