<svg width="48" height="48" viewBox="0 0 48 48" fill="none" xmlns="http://www.w3.org/2000/svg" xmlns:xlink="http://www.w3.org/1999/xlink">
<path d="M24,0C37.255,0 48,10.745 48,24C48,37.255 37.255,48 24,48C19.599,48 15.474,46.815 11.928,44.747L0.01,48L3.255,36.076C1.186,32.529 0,28.403 0,24C0,10.745 10.745,0 24,0ZM15.339,12.74C15.029,12.762 14.724,12.838 14.447,12.979C14.239,13.086 14.046,13.24 13.743,13.526C13.456,13.797 13.29,14.033 13.115,14.26C12.228,15.416 11.751,16.834 11.76,18.29C11.765,19.468 12.071,20.612 12.554,21.681C13.533,23.847 15.149,26.138 17.282,28.262C17.795,28.772 18.297,29.288 18.838,29.765C21.487,32.097 24.643,33.778 28.055,34.676C28.055,34.676 29.399,34.882 29.419,34.883C29.864,34.907 30.309,34.875 30.754,34.852C31.453,34.816 32.136,34.627 32.754,34.298C33.151,34.087 33.339,33.982 33.672,33.771C33.672,33.771 33.775,33.702 33.972,33.555C34.296,33.314 34.496,33.144 34.765,32.864C34.964,32.658 35.135,32.414 35.267,32.139C35.455,31.747 35.644,31 35.719,30.379C35.776,29.905 35.759,29.646 35.753,29.485C35.742,29.227 35.529,28.961 35.295,28.848L33.9,28.221C33.9,28.221 31.813,27.313 30.536,26.73C30.403,26.67 30.258,26.642 30.112,26.633C29.792,26.613 29.433,26.697 29.205,26.937C29.193,26.932 29.034,27.07 27.297,29.173C27.202,29.288 26.977,29.537 26.589,29.513C26.531,29.509 26.472,29.501 26.415,29.486C26.258,29.444 26.105,29.39 25.955,29.326C25.658,29.2 25.554,29.153 25.351,29.065C23.966,28.46 22.694,27.65 21.571,26.659C21.269,26.394 20.989,26.108 20.7,25.828C19.691,24.85 18.866,23.811 18.251,22.785C18.218,22.729 18.166,22.648 18.111,22.558C18.01,22.394 17.899,22.2 17.865,22.067C17.775,21.714 18.012,21.43 18.012,21.43C18.012,21.43 18.596,20.791 18.868,20.444C19.129,20.11 19.354,19.783 19.498,19.55C19.78,19.095 19.87,18.625 19.721,18.263C19.048,16.622 18.353,14.989 17.637,13.365C17.496,13.045 17.076,12.812 16.693,12.768C16.564,12.753 16.435,12.738 16.305,12.73C15.983,12.714 15.661,12.717 15.339,12.74Z" fill="#000C1A"/>
</svg>
